<svg viewBox="0 0 330 200" xmlns="http://www.w3.org/2000/svg"><g><g><g><g><g><line x1="42.390625" y1="177" x2="37.390625" y2="177" style="visibility: inherit;" fill="rgb(0, 0, 0)" stroke="rgb(204, 204, 204)" stroke-width="1px"></line><line x1="42.390625" y1="164.35714285714286" x2="37.390625" y2="164.35714285714286" style="visibility: inherit;" fill="rgb(0, 0, 0)" stroke="rgb(204, 204, 204)" stroke-width="1px"></line><line x1="42.390625" y1="151.71428571428572" x2="37.390625" y2="151.71428571428572" style="visibility: inherit;" fill="rgb(0, 0, 0)" stroke="rgb(204, 204, 204)" stroke-width="1px"></line><line x1="42.390625" y1="139.07142857142858" x2="37.390625" y2="139.07142857142858" style="visibility: inherit;" fill="rgb(0, 0, 0)" stroke="rgb(204, 204, 204)" stroke-width="1px"></line><line x1="42.390625" y1="126.42857142857143" x2="37.390625" y2="126.42857142857143" style="visibility: inherit;" fill="rgb(0, 0, 0)" stroke="rgb(204, 204, 204)" stroke-width="1px"></line><line x1="42.390625" y1="113.78571428571428" x2="37.390625" y2="113.78571428571428" style="visibility: inherit;" fill="rgb(0, 0, 0)" stroke="rgb(204, 204, 204)" stroke-width="1px"></line><line x1="42.390625" y1="101.14285714285715" x2="37.390625" y2="101.14285714285715" style="visibility: inherit;" fill="rgb(0, 0, 0)" stroke="rgb(204, 204, 204)" stroke-width="1px"></line><line x1="42.390625" y1="88.5" x2="37.390625" y2="88.5" style="visibility: inherit;" fill="rgb(0, 0, 0)" stroke="rgb(204, 204, 204)" stroke-width="1px"></line><line x1="42.390625" y1="75.85714285714286" x2="37.390625" y2="75.85714285714286" style="visibility: inherit;" fill="rgb(0, 0, 0)" stroke="rgb(204, 204, 204)" stroke-width="1px"></line><line x1="42.390625" y1="63.21428571428571" x2="37.390625" y2="63.21428571428571" style="visibility: inherit;" fill="rgb(0, 0, 0)" stroke="rgb(204, 204, 204)" stroke-width="1px"></line><line x1="42.390625" y1="50.57142857142857" x2="37.390625" y2="50.57142857142857" style="visibility: inherit;" fill="rgb(0, 0, 0)" stroke="rgb(204, 204, 204)" stroke-width="1px"></line><line x1="42.390625" y1="37.928571428571445" x2="37.390625" y2="37.928571428571445" style="visibility: inherit;" fill="rgb(0, 0, 0)" stroke="rgb(204, 204, 204)" stroke-width="1px"></line><line x1="42.390625" y1="25.285714285714306" x2="37.390625" y2="25.285714285714306" style="visibility: inherit;" fill="rgb(0, 0, 0)" stroke="rgb(204, 204, 204)" stroke-width="1px"></line><line x1="42.390625" y1="12.642857142857139" x2="37.390625" y2="12.642857142857139" style="visibility: inherit;" fill="rgb(0, 0, 0)" stroke="rgb(204, 204, 204)" stroke-width="1px"></line><line x1="42.390625" y1="0" x2="37.390625" y2="0" style="visibility: inherit;" fill="rgb(0, 0, 0)" stroke="rgb(204, 204, 204)" stroke-width="1px"></line></g><g transform="translate(32.390625, 0)"><text x="0" y="177" dx="0em" dy="0.3em" style="text-anchor: end; visibility: hidden; font-family: &quot;Helvetica Neue&quot;, sans-serif; font-size: 12px; font-weight: 200;" fill="rgb(50, 49, 63)" stroke="none" stroke-width="1px">-30</text><text x="0" y="164.35714285714286" dx="0em" dy="0.3em" style="text-anchor: end; visibility: inherit; font-family: &quot;Helvetica Neue&quot;, sans-serif; font-size: 12px; font-weight: 200;" fill="rgb(50, 49, 63)" stroke="none" stroke-width="1px">-20</text><text x="0" y="151.71428571428572" dx="0em" dy="0.3em" style="text-anchor: end; visibility: hidden; font-family: &quot;Helvetica Neue&quot;, sans-serif; font-size: 12px; font-weight: 200;" fill="rgb(50, 49, 63)" stroke="none" stroke-width="1px">-10</text><text x="0" y="139.07142857142858" dx="0em" dy="0.3em" style="text-anchor: end; visibility: inherit; font-family: &quot;Helvetica Neue&quot;, sans-serif; font-size: 12px; font-weight: 200;" fill="rgb(50, 49, 63)" stroke="none" stroke-width="1px">0</text><text x="0" y="126.42857142857143" dx="0em" dy="0.3em" style="text-anchor: end; visibility: hidden; font-family: &quot;Helvetica Neue&quot;, sans-serif; font-size: 12px; font-weight: 200;" fill="rgb(50, 49, 63)" stroke="none" stroke-width="1px">10</text><text x="0" y="113.78571428571428" dx="0em" dy="0.3em" style="text-anchor: end; visibility: inherit; font-family: &quot;Helvetica Neue&quot;, sans-serif; font-size: 12px; font-weight: 200;" fill="rgb(50, 49, 63)" stroke="none" stroke-width="1px">20</text><text x="0" y="101.14285714285715" dx="0em" dy="0.3em" style="text-anchor: end; visibility: hidden; font-family: &quot;Helvetica Neue&quot;, sans-serif; font-size: 12px; font-weight: 200;" fill="rgb(50, 49, 63)" stroke="none" stroke-width="1px">30</text><text x="0" y="88.5" dx="0em" dy="0.3em" style="text-anchor: end; visibility: inherit; font-family: &quot;Helvetica Neue&quot;, sans-serif; font-size: 12px; font-weight: 200;" fill="rgb(50, 49, 63)" stroke="none" stroke-width="1px">40</text><text x="0" y="75.85714285714286" dx="0em" dy="0.3em" style="text-anchor: end; visibility: hidden; font-family: &quot;Helvetica Neue&quot;, sans-serif; font-size: 12px; font-weight: 200;" fill="rgb(50, 49, 63)" stroke="none" stroke-width="1px">50</text><text x="0" y="63.21428571428571" dx="0em" dy="0.3em" style="text-anchor: end; visibility: inherit; font-family: &quot;Helvetica Neue&quot;, sans-serif; font-size: 12px; font-weight: 200;" fill="rgb(50, 49, 63)" stroke="none" stroke-width="1px">60</text><text x="0" y="50.57142857142857" dx="0em" dy="0.3em" style="text-anchor: end; visibility: hidden; font-family: &quot;Helvetica Neue&quot;, sans-serif; font-size: 12px; font-weight: 200;" fill="rgb(50, 49, 63)" stroke="none" stroke-width="1px">70</text><text x="0" y="37.928571428571445" dx="0em" dy="0.3em" style="text-anchor: end; visibility: inherit; font-family: &quot;Helvetica Neue&quot;, sans-serif; font-size: 12px; font-weight: 200;" fill="rgb(50, 49, 63)" stroke="none" stroke-width="1px">80</text><text x="0" y="25.285714285714306" dx="0em" dy="0.3em" style="text-anchor: end; visibility: hidden; font-family: &quot;Helvetica Neue&quot;, sans-serif; font-size: 12px; font-weight: 200;" fill="rgb(50, 49, 63)" stroke="none" stroke-width="1px">90</text><text x="0" y="12.642857142857139" dx="0em" dy="0.3em" style="text-anchor: end; visibility: inherit; font-family: &quot;Helvetica Neue&quot;, sans-serif; font-size: 12px; font-weight: 200;" fill="rgb(50, 49, 63)" stroke="none" stroke-width="1px">100</text><text x="0" y="0" dx="0em" dy="0.3em" style="text-anchor: end; visibility: hidden; font-family: &quot;Helvetica Neue&quot;, sans-serif; font-size: 12px; font-weight: 200;" fill="rgb(50, 49, 63)" stroke="none" stroke-width="1px">110</text></g><line x1="42.390625" y1="0" x2="42.390625" y2="177" fill="rgb(0, 0, 0)" stroke="rgb(204, 204, 204)" stroke-width="1px"></line></g></g><g transform="translate(42, 0)" clip-path="url(#clip_0)"><clipPath id="clip_0"><rect width="287" height="177"></rect></clipPath><g><g><g><line x1="0" y1="0" x2="0" y2="177" fill="rgb(0, 0, 0)" stroke="rgb(60, 60, 60)" stroke-width="1px" opacity="0.25"></line><line x1="23.967447916666664" y1="0" x2="23.967447916666664" y2="177" fill="rgb(0, 0, 0)" stroke="rgb(60, 60, 60)" stroke-width="1px" opacity="0.25"></line><line x1="47.93489583333333" y1="0" x2="47.93489583333333" y2="177" fill="rgb(0, 0, 0)" stroke="rgb(60, 60, 60)" stroke-width="1px" opacity="0.25"></line><line x1="71.90234375" y1="0" x2="71.90234375" y2="177" fill="rgb(0, 0, 0)" stroke="rgb(60, 60, 60)" stroke-width="1px" opacity="0.25"></line><line x1="95.86979166666666" y1="0" x2="95.86979166666666" y2="177" fill="rgb(0, 0, 0)" stroke="rgb(60, 60, 60)" stroke-width="1px" opacity="0.25"></line><line x1="119.83723958333334" y1="0" x2="119.83723958333334" y2="177" fill="rgb(0, 0, 0)" stroke="rgb(60, 60, 60)" stroke-width="1px" opacity="0.25"></line><line x1="143.8046875" y1="0" x2="143.8046875" y2="177" fill="rgb(0, 0, 0)" stroke="rgb(60, 60, 60)" stroke-width="1px" opacity="0.25"></line><line x1="167.77213541666669" y1="0" x2="167.77213541666669" y2="177" fill="rgb(0, 0, 0)" stroke="rgb(60, 60, 60)" stroke-width="1px" opacity="0.25"></line><line x1="191.73958333333331" y1="0" x2="191.73958333333331" y2="177" fill="rgb(0, 0, 0)" stroke="rgb(60, 60, 60)" stroke-width="1px" opacity="0.25"></line><line x1="215.70703125" y1="0" x2="215.70703125" y2="177" fill="rgb(0, 0, 0)" stroke="rgb(60, 60, 60)" stroke-width="1px" opacity="0.25"></line><line x1="239.67447916666669" y1="0" x2="239.67447916666669" y2="177" fill="rgb(0, 0, 0)" stroke="rgb(60, 60, 60)" stroke-width="1px" opacity="0.25"></line><line x1="263.6419270833333" y1="0" x2="263.6419270833333" y2="177" fill="rgb(0, 0, 0)" stroke="rgb(60, 60, 60)" stroke-width="1px" opacity="0.25"></line><line x1="287.609375" y1="0" x2="287.609375" y2="177" fill="rgb(0, 0, 0)" stroke="rgb(60, 60, 60)" stroke-width="1px" opacity="0.25"></line></g><g><line x1="0" y1="177" x2="287.609375" y2="177" fill="rgb(0, 0, 0)" stroke="rgb(60, 60, 60)" stroke-width="1px" opacity="0.25"></line><line x1="0" y1="164.35714285714286" x2="287.609375" y2="164.35714285714286" fill="rgb(0, 0, 0)" stroke="rgb(60, 60, 60)" stroke-width="1px" opacity="0.25"></line><line x1="0" y1="151.71428571428572" x2="287.609375" y2="151.71428571428572" fill="rgb(0, 0, 0)" stroke="rgb(60, 60, 60)" stroke-width="1px" opacity="0.25"></line><line x1="0" y1="139.07142857142858" x2="287.609375" y2="139.07142857142858" fill="rgb(0, 0, 0)" stroke="rgb(60, 60, 60)" stroke-width="1px" opacity="0.25"></line><line x1="0" y1="126.42857142857143" x2="287.609375" y2="126.42857142857143" fill="rgb(0, 0, 0)" stroke="rgb(60, 60, 60)" stroke-width="1px" opacity="0.25"></line><line x1="0" y1="113.78571428571428" x2="287.609375" y2="113.78571428571428" fill="rgb(0, 0, 0)" stroke="rgb(60, 60, 60)" stroke-width="1px" opacity="0.25"></line><line x1="0" y1="101.14285714285715" x2="287.609375" y2="101.14285714285715" fill="rgb(0, 0, 0)" stroke="rgb(60, 60, 60)" stroke-width="1px" opacity="0.25"></line><line x1="0" y1="88.5" x2="287.609375" y2="88.5" fill="rgb(0, 0, 0)" stroke="rgb(60, 60, 60)" stroke-width="1px" opacity="0.25"></line><line x1="0" y1="75.85714285714286" x2="287.609375" y2="75.85714285714286" fill="rgb(0, 0, 0)" stroke="rgb(60, 60, 60)" stroke-width="1px" opacity="0.25"></line><line x1="0" y1="63.21428571428571" x2="287.609375" y2="63.21428571428571" fill="rgb(0, 0, 0)" stroke="rgb(60, 60, 60)" stroke-width="1px" opacity="0.25"></line><line x1="0" y1="50.57142857142857" x2="287.609375" y2="50.57142857142857" fill="rgb(0, 0, 0)" stroke="rgb(60, 60, 60)" stroke-width="1px" opacity="0.25"></line><line x1="0" y1="37.928571428571445" x2="287.609375" y2="37.928571428571445" fill="rgb(0, 0, 0)" stroke="rgb(60, 60, 60)" stroke-width="1px" opacity="0.25"></line><line x1="0" y1="25.285714285714306" x2="287.609375" y2="25.285714285714306" fill="rgb(0, 0, 0)" stroke="rgb(60, 60, 60)" stroke-width="1px" opacity="0.25"></line><line x1="0" y1="12.642857142857139" x2="287.609375" y2="12.642857142857139" fill="rgb(0, 0, 0)" stroke="rgb(60, 60, 60)" stroke-width="1px" opacity="0.25"></line><line x1="0" y1="0" x2="287.609375" y2="0" fill="rgb(0, 0, 0)" stroke="rgb(60, 60, 60)" stroke-width="1px" opacity="0.25"></line></g></g></g><g><g><line x1="0" y1="139.07142857142858" x2="287.609375" y2="139.07142857142858" fill="rgb(0, 0, 0)" stroke="rgb(153, 153, 153)" stroke-width="1.5px"></line></g></g><g><g><line x1="23.967447916666664" y1="0" x2="23.967447916666664" y2="177" fill="rgb(0, 0, 0)" stroke="rgb(153, 153, 153)" stroke-width="1.5px"></line></g></g><g><g><g><g><g><path stroke="rgb(255, 112, 67)" stroke-width="2px" d="M23.9743984765625,134.0142857142857L23.995250156250002,142.3111607142857L23.981349036458337,145.17354227405247L24.1412119140625,143.83341648051467L24.586047747395835,144.09698125226677L24.648602786458333,144.12106150588878L25.0795375,143.84840426012693L25.114290299479165,143.54575931204212L25.260252057291666,143.72506260434847L25.385362135416667,143.70937130296724L25.628631731770835,143.44116407261046L25.6425328515625,143.33154554700462L25.698137330729168,143.52417892075795L26.414045,143.411847872482L26.6851168359375,143.57724362812428L26.782424674479167,143.32233137724688L27.213359388020834,142.9620521770578L27.401024505208333,143.02409477424965L27.512233463541666,143.2939590666848L27.5608873828125,143.38000715267094L27.894514257812503,143.51760734389126L27.984871536458332,143.41304871546478L28.082179375000003,143.57788766909619L28.151684973958336,143.73241899009736L28.450559049479168,143.76445148512772L28.506163528645835,143.72298516393136L28.846740963541667,143.44524801482908L28.944048802083334,143.73880611273543L29.0622083203125,143.88965515661687L29.103911679687503,144.24819316358779L29.298527356770833,144.175058769709L30.056138385416666,143.99969241966295L30.23685294270833,144.22318696820736L30.473171979166665,144.43819790137044L30.535727018229167,144.50651879987117L30.897156132812498,144.1833970342814L31.16127740885417,143.91366678550528L31.6895199609375,143.88331434725902L32.2525153125,143.84993147024676L32.634796106770835,143.61750170522015L32.65564778645833,143.46792957032636L32.752955625,143.37818628946687L32.780757864583336,143.20296888754947L33.114384739583336,143.4063242282907L33.16303865885416,143.4373088275148L33.46886329427083,143.30924246347237L33.677380091145835,142.94920267397862L34.07356200520834,142.53595017580648L34.2751282421875,141.64574154368904L34.386337200520835,141.67295916852214L34.49754615885417,141.9977755252292L34.88677751302083,143.4215510873018L35.241256067708335,143.82573053663296L35.36636614583333,144.2452383991461L35.428921184895835,144.29971437160177L35.5262290234375,144.3020571268695L35.54013014322917,144.35909141897884L35.560981822916666,144.44894063319316L35.86680645833333,145.03385001703577L36.30469173177084,145.21790997163853L36.36724677083334,145.09571735368013L36.457604049479166,144.69368756953384L36.47845572916666,144.41201259477182L36.53406020833334,144.3947218715146L36.81208260416666,143.78760454665732L36.93024212239584,143.1451913187144L37.020599401041665,142.79514334818862L37.395929635416664,143.3184003042732L37.63919923177084,143.43512585344382L37.9241721875,143.25230404008906L38.05623282552083,142.68746816727636L38.688733776041666,143.25379519572584L38.772140494791664,143.52784849777825L38.85554721354166,144.09685200403848L38.99455841145833,143.9426540981489L39.036261770833335,143.8754210447865L39.17527296875,143.35465261722618L39.21002576822917,142.94104867943278L39.52280096354167,142.97102914978527L39.60620768229166,143.33290318004254L39.849477278645836,143.36291337035703L40.092746874999996,143.09266225487696L40.09969743489583,142.90522589541754L40.41942319010417,142.83322130458777L40.53758270833333,143.06310424508416L40.551483828125,143.13529109436473L40.586236627604166,143.57306033232163L40.760000625,143.99249327472998L40.76695118489584,144.33518176593532L40.85035790364583,144.67733770815562L40.885110703125,144.7460884259907L41.08667694010416,144.61539592238302L41.19093533854167,144.7594947348699L41.23263869791667,144.7346967444646L42.15011260416667,143.84493234686164L42.5323933984375,143.05315942740845L42.629701236979166,142.38086711154227L42.872970833333326,142.14437745801118L43.6166807421875,141.49171218185813L44.11017049479167,140.54382730866274L44.41599513020833,139.75258209646907L44.60366024739583,139.91503497940147L44.62451192708333,139.80516383875516L45.02764440104166,140.51804116521882L45.45857911458334,140.64233897761127L45.7018487109375,140.97483194593818L45.93816774739583,141.63958484808853L46.0354755859375,141.61869377081885L46.049376705729166,141.5909877103542L46.056327265625,141.69573550746972L46.45945973958333,141.40458416162468L47.17536740885417,141.7710076060719L47.46034036458334,141.90489032615753L47.67580772135417,141.8436198521058L48.509874908854165,139.9559433591264L48.63498498697917,138.85368029154438L48.64888610677083,138.1670367608238L48.9964141015625,138.39730777560285L49.38564545572917,139.38507035794453L49.48990385416666,139.679356492041L49.85133296875,140.10878534549892L49.9972947265625,139.83038549843937L50.045948645833334,139.40543130177647L50.789658554687506,138.78128733802586L50.98427423177083,138.60908669214695L51.17888990885417,138.52599488689964L51.5403190234375,138.42051122508838L51.971253736979165,137.17384958255013L52.047709895833336,136.65342404971298L52.652408606770834,136.24508298678774L52.69411196614583,135.81296412119275L52.867875963541664,135.39186414359557L52.90262876302083,135.40723271399722L53.11809611979167,135.79573957052392L53.40306907552083,136.88855802441148L53.49342635416667,137.2104776549097L53.507327473958334,137.36822946696873L54.07032282552083,136.9521090701697L54.709774335937496,136.80863685138178L54.827933854166666,136.90966780823476L54.97389561197917,136.70731502370668L55.655050481770836,136.7224461402011L55.90527063802083,137.01472484144642L55.93307287760416,137.51374919781642L55.988677356770836,137.69179237824414L56.5030187890625,136.95407545106082L56.767140065104165,136.10181675225945L56.86444790364583,135.5398900320642L57.128569179687496,134.78299118138713L57.2119758984375,135.00145183239795L57.503899414062495,135.22861396622736L57.97653748697916,135.29411119347347L58.039092526041664,135.45983810124972L58.05994420572917,135.5491599698469L58.5881867578125,134.5407530186622L58.60208787760416,134.0520231433114L58.97741811197917,133.54132816205538L59.172033789062496,133.48271129869633L59.901842578125,133.12388386420054L60.52739296875,132.91364466210902L60.638601927083336,132.69647241509378L60.735909765625,132.3335404761646L61.159893919270836,131.55949564675007L61.820197109375,131.3984972723012L61.83409822916667,131.48395545800918L62.056516145833335,131.01940180765115L62.320637421875,130.73055534136776L62.85583053385417,131.08319029944914L62.96008893229167,131.16834270286938L63.26591356770834,131.49251983991576L63.85671115885417,130.76662627647536L63.97487067708334,130.841861441588L63.995722356770834,130.9830882838785L64.23204139322917,131.51285301855577L64.24594251302084,131.79025475508791L64.29459643229167,131.8656670712469L64.54481658854166,130.52020041637135L64.69077834635416,129.21732017265694L64.85759178385416,127.79839191067947L65.12171305989584,127.7005496057452L65.2607242578125,127.61655841204157L66.03223640625,128.01119232512235L66.10174200520834,128.0355726343879L66.44927,127.94905805926172L66.58133063802083,127.48752053055128L66.67168791666667,127.76688392052542L66.71339127604166,127.99518761092122L66.8037485546875,127.76299814579815L67.19993046875,126.58697008455269L67.35979334635417,125.3098965293606L67.39454614583333,124.36159494472469L67.56135958333334,124.11121405181754L67.8046291796875,124.48692835392464L67.9714426171875,124.66684257230875L68.63869636718749,124.25896278269974L68.8055098046875,123.80689212895734L69.1808400390625,122.4433064744482L69.38240627604166,121.33689809321734L69.75773651041666,119.50991059316533L70.02880834635417,118.68174604723569L70.04966002604166,118.50344785983904L70.13306674479166,118.09809744166375L70.34853410156249,118.20888661201451L71.07139233072917,116.80878887856821L71.12699680989583,115.65013066291277L71.23125520833334,115.05607801191829L71.90545951822916,114.89687564866011L72.08617407552084,114.82663955916155L72.23908639322917,114.91092647689098L72.87853790364582,112.68072708320838L72.93414238281251,111.180779029902L73.21911533854167,111.14558212806782L73.6430994921875,111.34192031958274L73.85856684895833,111.53052389040164L74.30340268229168,109.83828618722472L74.42851276041667,107.95817163516897L74.498018359375,107.17398877255296L74.50496891927084,106.79956503934966L74.63702955729167,106.3422817264209L74.79689243489582,106.73545444147474L74.92895307291667,106.90561563777652L75.26953050781249,106.55762694993537L75.33903610677083,106.59663362148187L75.35988778645833,106.48855179437524L75.46414618489582,105.9685600338831L75.69351466145832,106.0560787617239L76.37466953125,106.10353273982243L76.61793912760416,105.65157713399705L76.91681320312499,104.267831956101L76.9585165625,103.69044199222053L77.42420407552083,103.56146531108112L77.61881975260417,104.60676466943677L77.6883253515625,104.82431598310214L77.93159494791666,105.05093275566765L78.3972824609375,103.71021706633829L78.61970037760418,103.1485302783859L79.02978341145833,103.24643279999228L79.2730530078125,101.82848856008744L79.34950916666666,100.89680780759613L79.43291588541666,100.21137078467277L79.55107540364583,99.30956509644889L80.34343923177083,97.86831087227014L80.58670882812501,97.12492868601205L80.62841218749999,96.58281435446438L81.10800082031251,98.16408884417625L81.41382545572917,98.66782442641367L81.61539169270833,98.30252307294504L81.6501444921875,97.04157013779951L81.71269953125,95.7539987625416L82.338249921875,94.94605609171859L82.3591016015625,94.74954747775018L82.55371727864583,95.25872887247948L82.62322287760416,95.44792365510041L83.02635535156249,95.7283252358023L83.26962494791667,97.10016672438455L83.49899342447915,98.16601424317913L83.50594398437501,98.77012290878766L83.92297757812501,99.92150212378647L84.78484700520833,100.05098745155286L84.80569868489583,100.09327783797099L85.19493003906251,98.10591040875008L85.37564459635416,96.2105454735913L85.39649627604167,95.33124187853257L85.54245803385416,94.37380142115205L85.591111953125,93.94599475257614L85.99424442708334,95.49976882027825L86.03594778645832,96.9428038406463L86.425179140625,96.26114037323543L86.48078361979167,95.93305650133733L87.6137248828125,94.56294726052617L87.66237880208332,94.03419692774429L87.85004391927083,93.3123756853331L88.2392752734375,92.77308340288162L88.46169319010417,92.51019320753534L88.9065290234375,94.88103051889898L88.927380703125,95.77253329154655L89.06639190104167,97.07106267773904L89.1150458203125,97.91086644815256L89.29576037760417,97.34263400027407L89.7822995703125,95.21652372030255L89.844854609375,93.43008504342596L89.89350852864584,92.5807373576683L89.98386580729168,92.74372774305732L90.136778125,91.60252158846134L90.40089940104166,90.19968453597998L90.60941619791667,89.69175365589673L90.76927907552083,90.35796563042769L90.89438915364583,91.14709304664389L91.38092834635417,92.76348486241017L91.90222033854167,92.6055773262247L92.180242734375,93.13791743847688L92.347056171875,94.47380830043615L92.79884256510415,94.09197131187443L93.34098623697916,92.83121151288498L93.37573903645834,91.64995555632542L93.39659071614584,90.7844298593254L93.5773052734375,89.07668664135556L94.16115230468749,89.18989785343081L94.27931182291667,89.24771006346404L94.77280157552083,86.61222657823957L94.91181277343749,85.59733594694374L94.96046669270832,85.05920125950274L95.7458799609375,85.56569156694607L95.76673164062501,86.06681401417713L95.91269339843751,85.9477456285293L96.32277643229166,86.78153363156443L96.39228203125,86.02763523631171L96.42008427083334,86.04055241602671L96.6216505078125,87.48453137245014L96.851018984375,88.02726191211057L97.21244809895833,88.42875622127583L97.3306076171875,87.86556894447028L97.42791545572916,86.97136970661313L97.5391244140625,86.54610792408296L97.65728393229166,86.31623618302122L97.93530632812501,85.28825684435165L98.25503208333333,85.67278329536659L98.26198264322917,85.95406982288819L98.4148949609375,84.92935571645195L98.46354888020834,84.86069960715213L98.65816455729167,85.60336269860001L98.72767015625,85.60898966505844L98.83887911458334,85.56685148205335L98.90143415364582,85.72362602377092L98.99874199218749,85.93400480301814L99.26286326822917,85.29154612478312L99.28371494791666,85.22467145800326L99.520033984375,86.85845970899558L99.54783622395833,88.26353273675686L99.70769910156251,88.29237624475012L99.74940246093749,87.9506256696842L99.76330358072917,87.79614598155732L100.0413259765625,87.81977415204476L100.0830293359375,87.62660827436021L100.17338661458332,87.7382786330034L100.2081394140625,87.7243666396409L100.65297524739584,89.04099226118062L100.78503588541666,90.48839581970361L100.84759092447916,91.42763764615393L101.16036611979166,92.00129725923601L101.32022899739583,90.19114908962017L101.3341301171875,88.91794644229748L101.34108067708333,88.13379581948004L101.7511637109375,85.62527749168802L102.856302734375,82.75979576093427L103.22468240885416,79.86724973395664L103.36369360677082,78.68295076636448L103.57916096354167,77.77008489986474L103.64171600260416,77.36902298581727L103.75987552083333,77.37112846303404L103.8780350390625,76.75036340943313L104.09350239583334,76.20596144296387L104.44798095052083,74.44309161448787L104.607843828125,73.70396832841648L104.70515166666667,73.71058169154279L105.21949309895834,75.14572013483358L106.01185692708334,74.34806096099223L106.67911067708333,73.56603572777071L106.71386347656251,72.35342189965769L106.9640836328125,70.80153877691446L107.17955098958335,68.86403662587244L107.85375529947918,69.44625000679089L108.03446985677084,70.08383502386738L108.06227209635416,70.2792722885601L108.1734810546875,71.37761966716856L108.4654045703125,71.89502871166066L108.91024040364583,72.84773151271068L108.93109208333334,73.10075265317954L109.04230104166666,73.08062240315216L109.70955479166666,71.88011645336591L110.07793446614583,71.76161218900127L110.73823765624999,68.26176739056663L111.55840372395834,68.28586089733524L111.75301940104167,65.82737445291707L112.16310243489583,65.08051046320182L112.27431139322917,66.15964944372746L112.48977875000001,66.87793252337933L112.9902190625,66.1761015223458L113.12227970052083,65.53754755368372L113.42115377604166,65.41738490340862L113.56016497395832,64.77888785340468L113.96329744791667,63.38941927515313L114.08145696614582,63.248566159469675L114.26912208333333,63.53322548713341L114.41508384114584,64.75084950082845L114.49849055989583,65.62808151489789L114.60274895833334,66.75622002884666L114.63055119791666,67.00324676601754L114.74871071614584,67.5459193338502L114.99893087239583,67.03709353146246L115.27695326822916,67.53588384148142L115.50632174479168,68.63418752491187L116.27088333333333,72.1555125149471L116.6392630078125,73.78282225767782L116.66706524739583,74.21809397193368L116.8060764453125,75.16197051454274L117.14665388020833,74.67641172897886L117.3482201171875,74.97676124593573L117.6401436328125,72.86608585915114L117.9946221875,71.57439529862407L118.15448506510417,70.62743802799906L118.56456809895833,70.70657733401136L118.58541977864583,70.88554578307979L119.037206171875,70.633870172659L119.23877240885416,69.85578017244305L119.4750914453125,67.7099529689269L119.71836104166665,66.82197139552676L119.87822391927084,66.22849727736211L119.98943287760416,66.15561350095616L120.35781255208333,63.7350257064261L120.49682375,63.49132986390168L120.58718102864583,64.08851297571407L120.62888438802084,64.56819319105065L120.78179670572916,67.13171560596687L121.3517426171875,66.57617222072298L122.3317715625,67.58804611241077L122.790508515625,66.87019955901314L122.83916243489584,66.63166166656025L122.90171747395833,66.15982580286234L123.0198769921875,65.77558104167134L123.10328371093749,65.86363472511792L123.1449870703125,66.71043820942552L123.55507010416666,68.46257697987197L123.90259809895834,69.28123213370652L124.22927441406249,67.7445098599707L124.4794945703125,66.70616244151256L124.6463080078125,63.58492611350199L124.6671596875,61.77792771399963L125.1884516796875,59.61150041153314L125.23015503906251,58.58978457221984L125.4386718359375,58.553270974829516L125.501226875,58.10150451605007L125.52902911458334,58.29570278679593L125.57073247395833,58.558879355095826L126.210183984375,60.41598560473929L126.21713454427083,61.85896248275148L126.2727390234375,62.63371988379849L126.30054126302085,63.04294544433462L126.41870078125,63.11653784634758L126.86353661458334,64.41992270780852L126.99559725260416,63.89720984155177L127.2319162890625,61.84392567343342L127.39872972656251,60.14669702654889L127.93392283854166,61.78336176756508L128.37180811197916,61.28867389473268L128.6915338671875,59.611263331677776L128.99735850260416,60.425385721610596L129.129419140625,59.9631176874132L129.59510665364584,61.587241732355835L129.99823912760417,63.45177438250083L130.15810200520835,63.72089381825609L130.72109735677083,62.041565788372736L130.91571303385416,59.830366501134705L131.03387255208332,57.72990468897602L131.047773671875,55.91334265905385L131.27019158854165,55.56680605842759L131.4856589453125,55.89494000625494L131.89574197916667,57.49770740105694L132.88967204427084,60.320396563698495L133.05648548177084,61.4172670498088L133.11904052083335,62.156303550023395L133.16074388020834,62.06366761280211L133.48046963541665,60.14705925385593L133.50132131510418,58.83526582139142L133.633381953125,58.579187446936416L133.7654425911458,58.971712776825356L134.550855859375,57.14897098623332L134.64816369791666,57.22858290040348L135.35712080729166,56.21940518544997L135.50308256510417,55.42172851689219L136.00352287760415,57.71949479315357L136.0730284765625,58.98689679872628L136.42750703125,62.16970989363658L136.92794734375,62.31445404461526L137.08085966145833,62.10292902946516L137.1990191796875,62.68907108606638L137.51874493489584,62.464242342976306L137.75506397135416,59.41137536620012L138.20685036458335,56.618797265618525L138.58218059895833,54.94325040526954L138.76289515625,54.69143549445218L138.79764795572916,54.48977589104909L139.29113770833334,57.27157904868497L139.54135786458332,58.15680418623876L139.88193529947918,58.141768843355976L140.31287001302084,56.55491767721196L140.31982057291665,56.057950606327196L140.556139609375,56.477883723520094L140.65344744791668,56.6236440568311L140.94537096354165,57.66689994815418L142.10611446614584,56.75548159138134L142.32158182291667,57.093630577317626L142.557900859375,56.507606917819146L142.98188501302084,55.66039102447077L143.05139061197917,55.83983322569671L143.308561328125,55.765441094911594L143.36416580729167,56.01412102814534L143.53792980468748,56.85110072532051L143.66303988281248,59.01708900662088L143.67694100260417,59.810967689686805L143.83680388020832,59.64503752517162L143.84375444010416,59.43422166627832L143.850705,59.55047670573447L143.8715566796875,59.84779961466211L144.00361731770832,60.5824802317925L144.2468869140625,58.378401190135776L144.46235427083334,55.639956080118026L144.60831602864582,52.525258590697774L144.73342610677082,50.46932828063936L144.80293170572915,49.53413967119474L145.42153153645833,51.476310676496155L145.518839375,53.05629883963094L145.6578505729167,54.196465635391306L145.72040561197917,54.90584911215693L145.76905953125,55.49836583849253L145.77601009114585,55.914562977565396L145.977576328125,55.69396682096307L146.04708192708333,56.68429352946751L146.18609312499999,55.90800623242659L146.6656817578125,54.926403122128946L147.00625919270834,55.98101268452179L147.01320975260418,56.634007456381326L147.23562766927083,55.94863427991139L147.4997489453125,56.80675045320075L148.27126109375,57.25082046583786L148.44502509114582,56.687891353512214L148.46587677083335,56.53219133763747L148.52843180989584,56.26177209977138L148.72304748697917,56.62546387718983L148.96631708333334,58.310249214724195L149.04972380208335,59.67512080307419L149.32079563802083,59.44215904495488L149.4945596354167,58.58932492439199L149.61271915364583,57.207795263298706L150.08535722656248,55.67593491816338L150.23826954427082,55.89973407711874L150.43288522135416,55.94803921161723L150.80821545572917,55.269025378951355L151.73263992187498,54.51773121073438L151.73959048177082,54.2338374917866L152.39989367187502,53.846043963229036L152.7126688671875,53.57291363554066L153.55368661458334,51.28503312395134L153.60234053385417,49.61393524040736L154.47116052083334,46.148446549866605L154.80478739583333,46.759553181210435L155.08280979166668,49.44238951457865L155.2565737890625,51.07737471390901L155.38863442708333,52.93325324544223L155.42338722656248,53.77369418708119L155.58325010416667,53.913843849023266L155.736162421875,53.72484746890754L155.8821241796875,52.96919419563024L156.35476225260416,50.68511512839237L156.72314192708336,50.88238506039899L157.12627440104168,49.822431807898155L157.43209903645834,47.37094356437058L157.45990127604165,46.350136023876246L157.63366527343751,47.047453505892435L158.91951885416668,46.09535874381169L159.0237772526042,45.54433092098705L159.04462893229166,45.122685501531976L159.19754125,44.82924018101127L159.239244609375,45.08302935989721L159.572871484375,44.41098997050025L159.6771298828125,42.829451125157306L159.9551522786458,42.05752704629276L159.99685563802083,42.54511792542493L160.0941634765625,41.532928669770854L160.17061963541667,40.94078592762284L160.23317467447916,41.42498399030694L160.5529004296875,42.216162748746115L160.62935658854167,43.24715494643655L160.6710599479167,42.6672060189222L161.08114298177082,43.730179982551704L161.26880809895835,43.47790613755001L161.4286709765625,44.20648746566337L161.91521016927084,44.46663703419017L162.06812248697918,43.66186886079032L162.29749096354166,42.75926417361703L162.41565048177085,43.35050028099084L162.4643044010417,44.039015225967546L162.742326796875,44.973009289912284L162.83268407552083,46.57517592219651L162.867436875,47.12179034161312L162.90914023437497,47.646987256028154L162.9299919140625,48.12899204495338L163.45823446614585,46.15259707895305L163.46518502604167,44.75435716704956L163.47908614583332,43.71818495714243L163.77100966145835,42.342968425806106L163.79186134114582,41.71506676976935L164.00732869791668,42.29918369066323L164.19499381510417,40.95551175771547L164.21584549479167,40.62467740287846L164.25059829427082,40.36549354499854L164.63982964843748,39.24406709257531L164.744088046875,38.055384347342056L164.8066430859375,37.949030299741736L164.82054420572916,37.956017562518014L165.161121640625,37.4342666000457L165.25842947916667,36.6003309256036L165.5573035546875,37.875027744117745L165.87007875,40.146872246010275L166.15505170572916,41.38355037571719L166.245408984375,43.30387246524617L166.25235954427083,44.83029321006984L166.3913707421875,45.169631679913266L166.40527186197917,45.61597931661146L166.44002466145832,45.610701721349415L166.5164808203125,45.28893655317793L167.28799296875,44.767162394902016L167.4339547265625,44.170899134590485L167.90659279947917,43.767624886376495L167.913543359375,43.17671624565125L167.93439503906248,42.36197306752885L167.94134559895832,42.07541364659991L168.21241743489583,42.9806480336282L168.27497247395834,43.806987431191146L168.4417859114583,43.67064821258609L168.67115438802082,43.89733070437225L168.8449183854167,43.107885988890075L169.09513854166667,44.68235970176738L169.35925981770833,47.189703078663655L169.63728221354165,51.672764009848166L169.69288669270836,53.791142885540594L169.915304609375,54.596913994089434L170.00566188802082,55.36357542456469L170.45049772135417,50.38714371142129L170.90228411458332,50.29397101514799L171.0621469921875,51.96255496365073L171.6459940234375,51.32013390418095L171.666845703125,50.782965439467276L171.70159850260416,50.15217833768985L172.167286015625,48.89882252298219L172.29239609375,50.346665405356006L172.81368808593749,52.71228495749929L173.08475992187502,51.02657128316309L173.09171048177083,50.17697149565821L174.18294838541667,49.78858197140441L174.47487190104164,48.200233816806104L174.4818224609375,47.44951140999157L174.93360885416666,45.203790708299664L174.97531221354168,44.41264708820523L175.11432341145832,44.6307870182691L175.15602677083334,45.29267251962497L175.30198852864584,44.22828984338773L175.34369188802083,44.4948892720692L175.76072548177083,44.63967811803366L176.17080851562503,43.35100795114246L176.39322643229167,43.27063195312829L176.4418803515625,43.11115245242942L177.92930016927085,42.959835871918045L178.10306416666666,43.43544345430317L178.1934214453125,42.90660769507073L178.3810865625,44.81950809151232L178.42974048177084,45.81553250034543L178.50619664062498,45.95800351684369L178.54094944010416,45.88671593282521L178.59655391927083,45.81865998310474L178.6938617578125,45.44405313271997L178.88847743489583,45.32548855949386L179.36806606770836,45.15320850173288L179.38891774739582,45.53532571836672L179.68084126302082,44.51042292212634L179.924110859375,44.67428170737739L180.18128157552084,44.17585396705337L180.81378252604168,43.133396705531965L180.924991484375,43.70646659474775L181.66870139322918,46.164194396894686L181.71735531250002,47.14322938053357L181.80076203124997,46.36522334260587L182.15524058593752,44.33576442897311L182.23169674479166,42.673058040056844L182.2386473046875,41.35683559569287L182.8641976953125,40.582272940318916L182.885049375,39.783762066542096L183.9067816796875,40.659969982322025L183.93458391927084,41.757154343955136L183.94153447916665,42.16766218296348L184.05969399739584,42.277425726874924L184.16395239583335,41.63528308156302L184.23345799479165,41.38654251216326L184.30991415364585,41.67221276490119L184.34466695312503,41.63627020742007L184.37941975260415,42.48959208486636L184.40722199218752,42.17726845631185L184.4489253515625,43.137847868395085L184.6157387890625,43.93165281283393L184.68524438802083,44.67596373359879L184.8659589453125,45.88112171462913L184.87986006510417,47.08970175453783L185.17873414062498,45.372248852492504L185.33859701822917,45.90443626043523L185.69307557291668,48.36797619630718L185.85988901041668,49.244298923176345L185.99194964843753,48.804180279896315L186.0892574869792,48.47436376747743L186.31862596354168,47.48756080896584L187.10403923177083,48.99925231441131L187.4446166666667,46.032493937126134L187.8686008203125,43.868094973289914L188.00761201822917,43.23699829779926L188.0840681770833,43.70794044683663L188.223079375,42.999306199254335L188.64011296875,41.390756074114535L188.73047024739583,40.75939542128933L188.98764096354168,38.453808835676796L189.1266521614583,37.1968854557378L189.2031083203125,36.189874284917295L189.80085647135417,37.91195252505193L189.8703620703125,38.49511406351053L190.850391015625,37.545325426631706L191.10756173177083,39.52931093067909L191.12146285156248,40.59327366167892L191.32302908854166,41.61093701456454L191.59410092447916,43.36444653403868L191.9277277994792,42.73252660659787L192.26135467447915,41.45825820377456L192.27525579427083,41.14884079088219L192.3308602734375,40.573792040796064L192.5393770703125,40.94687615046814L192.69923994791665,41.7826404389904L192.79654778645832,42.87072557721959L193.19272970052083,44.20123580932699L193.85998345052082,44.96920032610262L194.17275864583334,43.336318343680546L194.20056088541665,42.24533525233693L194.61759447916668,43.05731373946716L194.937320234375,45.32967550128353L195.14583703124998,46.76894661459545L195.29874934895832,47.67296735143026L195.354353828125,47.07752265067401L195.7922391015625,44.52545768220128L196.20232213541667,42.68573267816845L196.41083893229168,38.921839452569316L196.56375125000002,35.55093363195593L196.7931197265625,32.91141809368946L196.99468596354166,33.15839201570725L197.30746115885415,34.02469358693551L197.57853299479166,32.931244723589884L198.17628114583334,34.01988814797926L198.68367201822917,36.711106015008255L198.857436015625,38.988321214857365L198.9477932942708,39.79836539213986L199.01034833333335,40.06693460132047L199.55944256510418,39.1863020746176L199.96952559895834,37.88418031878004L200.76188942708333,37.36082263131405L200.86614782552084,37.284494350447204L201.22757694010417,35.59006773017623L201.41524205729166,34.517782877921576L201.84617677083335,36.2310423899784L202.01994076822916,37.329797788549L202.63854059895831,41.144707090226206L202.89571131510417,43.41342363680869L203.13898091145836,41.82128398816781L203.36834938802082,38.23628359829269L203.65332234375,34.47205741657885L204.4039828125,36.39577715275843L204.51519177083333,38.622124669166226L204.66115352864583,38.95155897246792L204.72370856770831,39.705508355369716L204.8349175260417,40.05673281299164L205.27280279947917,40.56584092244901L205.27975335937498,40.739818993515456L205.37706119791665,42.70017633873624L206.14162278645836,41.65630534024649L206.23198006510418,40.79735463271933L206.30843622395832,40.34772567636011L206.93398661458335,39.67843355383505L207.00349221354168,40.16691650349941L207.4691797265625,37.06666387915041L207.7611032421875,37.335568984402926L208.85929170572916,36.54111235621792L209.12341298177085,35.022668185389506L209.44313873697917,34.1267724941369L209.45703985677082,33.270636468371094L209.73506225260417,33.04521184143701L209.7420128125,32.85938255007005L209.74896337239582,33.253599260964194L209.86017233072917,33.39404619685476L209.950529609375,34.81339976401128L209.96443072916665,35.649841093060786L210.65253615885416,31.155246278325308L211.69512014322916,32.81268969814755L212.1399559765625,31.88038555612343L212.1816593359375,31.578918436945543L212.22336269531252,31.079435696130787L212.25116493489583,31.123631920259356L212.25811549479167,30.65455181538107L212.77940748697918,29.943243522961893L213.0574298828125,32.05514642244063L213.43971067708333,34.76863132793426L214.19732170572917,35.91123701993996L214.27377786458334,37.89648599509735L214.32938234375,40.099063951620366L214.66300921875,39.210637907976974L214.82982265625,37.41329656750523L215.10784505208335,34.827865352438124L215.12869673177084,33.34740631473434L215.34416408854165,31.048187571973983L215.4136696875,29.041567834060487L215.46232360677084,28.484913517993505L215.58743368489584,28.904434133745326L215.98361559895832,31.09303314347264L216.122626796875,33.66542004041534L216.14347847656248,35.61847951535552L216.289440234375,38.140575275480046L216.88718838541666,38.90031566786894L217.5196893359375,36.44830276044513L217.53359045572915,35.19455231317974L217.75600837239585,33.9163587246824L217.88111845052083,32.44144565821904L219.84812690104167,33.68049627502353L220.02884145833332,32.91689637602835L220.33466609375,30.238651031009027L220.71694688802083,32.10090413266093L221.14788160156252,34.229684565080674L221.2382388802083,36.346440390799216L221.877690390625,33.83374933143824L222.07925662760417,33.92419369065982L222.35032846354167,34.24648826029431L222.80211485677083,34.91523766530048L224.296485234375,32.66654167318978L224.84557946614584,33.00135357534245L225.0262940234375,34.47158465409916L225.17920634114586,34.76709287794358L225.31126697916667,35.10117186446149L225.45027817708333,33.6681604158658L225.4850309765625,32.54538381578621L225.59623993489583,34.07662859182247L225.67964665364585,33.43777838974748L225.79085561197917,33.211238462419914L225.9785207291667,33.029802072290124L226.45115880208334,32.187652208950254L226.79173623697918,31.469963216936833L226.882093515625,31.75746318145255L226.93769799479168,31.515277600208037L227.20181927083334,31.92119682920267L227.59800118489582,30.74368860010253L228.09844149739584,28.924613777388515L228.32780997395835,29.770055524036366L228.3764638932292,29.82217694322344L228.43901893229167,30.06079064556576L228.78654692708335,31.716047359228384L228.80739860677082,32.6434560609751L228.95336036458332,33.58930344266767L229.03676708333333,33.58535225951803L229.16882772135418,33.759984636263255L229.300888359375,33.622019507518274L230.24616450520833,31.455696184142653L230.80915985677086,29.59961724749033L230.81611041666667,28.394941159738607L231.052429453125,27.353536896073365L231.18449009114585,28.812234725709033L231.50421584635416,26.283998441277816L232.00465615885415,25.38908308140313L232.03940895833333,25.681508843680064L232.220123515625,26.853218202936546L232.53984927083332,28.587901424342846L232.64410766927082,29.750085563729584L232.95688286458335,29.233680989988613L233.21405358072917,30.663492764961347L233.51292765625,32.35580917303233L233.65193885416664,31.83382712630825L233.69364221354166,32.228638669932565L233.7839994921875,31.818211927719858L233.97861516927082,28.512382910503277L234.27748924479167,26.01305862639404L234.555511640625,27.289834404177668L234.930841875,27.631101722828873L235.02119915364582,27.557717713559214L235.19496315104166,26.972573176614873L235.2436170703125,25.70108660878003L235.27141930989583,25.357938451212505L235.95952473958334,24.964933881971916L235.98037641927084,24.76453098609582L236.13328873697915,22.965317974330475L236.2583988151042,23.6911900129395L236.48081673177083,24.010401111035208L236.9117514453125,27.296896729156003L237.00905928385419,28.196682283622238L237.12721880208332,28.56460875284634L237.13416936197916,28.385849885671234L237.42609287760416,27.95493773117255L238.11419830729167,27.954305804509886L238.30186342447917,28.833868425332895L239.31664516927083,24.17803456925526L239.68502484375003,24.2013626727055L240.43568531249997,24.67050316357728L240.51214147135417,24.72441757284642L241.36706033854165,27.335908303891983L241.7771433723958,28.80165757040021L242.0343140885417,28.821394387908356L242.1802758463542,27.644808678643443L242.4374465625,27.156314550273407L242.68766671875,26.35244556435768L242.69461727864584,26.32020957843045L242.86838127604165,27.51458304424716L243.29931598958333,28.964491294705397L243.34101934895833,30.158093079173966L243.44527774739583,31.111940481467826L243.7928057421875,33.509877802936245L243.9735202994792,33.37081409369674L244.09167981770833,31.896661582438725L244.2515426953125,29.560768686698168L244.57126845052085,26.58140298883947L245.02305484375,25.820382952797274L245.07170876302084,25.844201817576817L245.1273132421875,25.13026333036194L245.46094011718748,24.843499620705984L245.52349515625002,24.620870737999752L245.93357819010419,27.5013500882379L246.02393546875,29.821322486676024L247.03176665364583,30.61150854937864L247.11517337239584,31.63179254156219L247.34454184895833,32.37544587318649L247.35844296874998,32.75589640400398L247.63646536458333,32.250882551526274L248.0882517578125,29.69744335363478L248.60259319010416,29.303236977757052L248.92926950520834,27.60519917517962L249.17948966145835,26.08572043109828L249.3810558984375,24.749231178336714L249.58262213541667,26.3343096725782L249.6729794140625,28.949157232118353L249.69383109375,30.770922910699596L250.152568046875,30.761525020659434L250.1734197265625,30.40694219483845L250.47229380208333,29.622736745474498L250.74336563802083,30.219270927376783L250.81287123697916,29.626449968361044L250.83372291666666,29.715784575394423L251.20210259114586,30.254870590904886L251.98751585937498,29.460694091777867L252.11957649739583,29.44438618598889L252.16823041666666,28.30686074601718L252.1751809765625,27.558604013877044L252.22383489583333,26.608990053764273L252.6756212890625,26.458965460829972L252.70342352864586,26.32343827133616L252.87023696614582,24.92220736326206L252.95364368489584,23.85895329804933L253.04400096354166,22.604028813023234L253.0926548828125,21.962331882191734L253.655650234375,23.018598666319775L253.8850187109375,23.60684630306335L253.91282095052082,24.460450947644375L254.10048606770835,25.660385471627905L254.1143871875,26.420804254865715L254.58007470052084,29.147711587343252L254.62177805989583,30.950742627106024L254.73993757812502,30.57610163879849L255.22647677083333,28.98589001770293L255.2959823697917,26.666332158640728L255.41414188802082,26.796798523525666L255.46279580729166,25.82824992535984L255.48364748697915,25.449407252404797L255.58095532552082,25.86435709383963L255.657411484375,25.70369966192598L256.6026876302083,29.476020260150875L256.8598583463542,30.64201354507628L257.242139140625,31.417463572253638L257.2907930598958,32.0597366751951L257.742579453125,36.50598563391867L257.91634345052086,39.05741902578927L257.97889848958334,40.724824078699015L258.0623052083333,41.11335328772583L258.1943658463542,40.38561289862599L258.31252536458334,40.1613677391756L258.4167837630208,39.35421971751484L258.6878555989583,37.9950473508772L258.77126231770836,36.72440030209302L258.94502631510414,35.20344064425109L259.15354311197916,34.56395102682686L259.20219703124997,34.41794358798509L259.6053295052084,34.45676769610856L259.6817856640625,33.842861080660384L259.9250552604167,33.44417548890266L260.05711589843753,32.56270483034632L260.10576981770834,32.352421046226766L260.42549557291665,32.68139440455664L260.59230901041667,33.384492705268855L260.7869246875,33.9024386346359L260.8077763671875,34.07160680958316L261.0510459635417,34.62319312017371L261.52368403645835,31.818714020123195L261.69744803385413,31.299170960553255L261.9337670703125,28.64093114776054L261.95461875,27.101616140176958L262.3160478645833,27.007398255534753L262.3229984244792,26.758697485163793L262.37860290364586,27.150591154323706L262.46896018229165,27.117699401718113L262.8512409765625,25.879191069602285L263.03890609375,24.594971938950266L263.4559396875,30.176210654476478L263.4628902473958,33.464270638814526L263.63665424479166,34.946563154947455" style="fill: none;" fill="none"></path></g></g></g></g><g opacity="0.2"><g><g><g><path stroke="rgb(255, 112, 67)" stroke-width="2px" d="M23.9743984765625,134.0142857142857L23.995250156250002,147.2892857142857L23.981349036458337,147.92142857142858L24.1412119140625,142.25742854731425L24.586047747395835,144.4410914182663L24.648602786458333,144.15437316553934L25.0795375,143.4585000361715L25.114290299479165,143.104500072343L25.260252057291666,143.98950013262885L25.385362135416667,143.68607154914312L25.628631731770835,143.04128584691458L25.6425328515625,143.16771429777145L25.698137330729168,143.8125L26.414045,143.2435713682856L26.6851168359375,143.82514284508568L26.782424674479167,142.94014278479986L27.213359388020834,142.4217858348574L27.401024505208333,143.1171429174287L27.512233463541666,143.6987143942288L27.5608873828125,143.50907141651425L27.894514257812503,143.7240000844002L27.984871536458332,143.25621421337127L28.082179375000003,143.82514284508568L28.151684973958336,143.96421414102826L28.450559049479168,143.8125L28.506163528645835,143.66078585897174L28.846740963541667,143.02864300182887L28.944048802083334,144.17914280891418L29.0622083203125,144.11592858348575L29.103911679687503,144.78599997588566L29.298527356770833,144.06535720314298L30.056138385416666,143.73664292948587L30.23685294270833,144.55842876434326L30.473171979166665,144.7607142857143L30.535727018229167,144.609000144686L30.897156132812498,143.6987143942288L31.16127740885417,143.50907141651425L31.6895199609375,143.8377856901714L32.2525153125,143.79985715491432L32.634796106770835,143.26885705845697L32.65564778645833,143.2435713682856L32.752955625,143.2435713682856L32.780757864583336,142.94014278479986L33.114384739583336,143.71135723931448L33.16303865885416,143.4837857263429L33.46886329427083,143.1171429174287L33.677380091145835,142.4091429897717L34.07356200520834,141.91607142857143L34.2751282421875,140.3104285955429L34.386337200520835,141.7137856057712L34.49754615885417,142.48500006028584L34.88677751302083,145.5572144304003L35.241256067708335,144.43199971062796L35.36636614583333,144.8745001929147L35.428921184895835,144.38142833028522L35.5262290234375,144.30557125977109L35.54013014322917,144.44464285714287L35.560981822916666,144.58371445451465L35.86680645833333,145.91121409279958L36.30469173177084,145.49399990354266L36.36724677083334,144.91242842674257L36.457604049479166,144.09064289331437L36.47845572916666,143.98950013262885L36.53406020833334,144.36878578662873L36.81208260416666,142.8769285593714L36.93024212239584,142.18157147680012L37.020599401041665,142.27007139239993L37.395929635416664,144.10328573840005L37.63919923177084,143.61021417719977L37.9241721875,142.97807132005693L38.05623282552083,141.8402143580573L38.688733776041666,144.10328573840005L38.772140494791664,143.93892845085688L38.85554721354166,144.95035726342883L38.99455841145833,143.71135723931448L39.036261770833335,143.77457146474293L39.17527296875,142.57349997588565L39.21002576822917,142.32064277274267L39.52280096354167,143.015999855314L39.60620768229166,143.87571422542845L39.849477278645836,143.40792865582875L40.092746874999996,142.68728558165685L40.09969743489583,142.62407135622843L40.41942319010417,142.72521441834314L40.53758270833333,143.40792865582875L40.551483828125,143.2435713682856L40.586236627604166,144.22971418925695L40.760000625,144.6216426883425L40.76695118489584,144.8492145027433L40.85035790364583,145.19057162148613L40.885110703125,144.8492145027433L41.08667694010416,144.41935716697148L41.19093533854167,144.97564295360021L41.23263869791667,144.69749975885662L42.15011260416667,142.51028575045723L42.5323933984375,141.86550004822868L42.629701236979166,141.37242863774298L42.872970833333326,141.78964297771455L43.6166807421875,140.51271426762852L44.11017049479167,139.12199999886963L44.41599513020833,138.56571427817855L44.60366024739583,140.15871430380002L44.62451192708333,139.64035712778568L45.02764440104166,141.58735715491432L45.45857911458334,140.82878569619996L45.7018487109375,141.4735713984285L45.93816774739583,142.6367142013141L46.0354755859375,141.58735715491432L46.049376705729166,141.54942861965725L46.056327265625,141.85285720314297L46.45945973958333,140.96785714285716L47.17536740885417,142.32064277274267L47.46034036458334,142.10571440628595L47.67580772135417,141.75171414102826L48.509874908854165,137.12442861965724L48.63498498697917,137.20028569017137L48.64888610677083,137.13707146474295L48.9964141015625,138.74271429777144L49.38564545572917,140.86671423145702L49.48990385416666,140.12078569318567L49.85133296875,140.75292862568583L49.9972947265625,139.41278572785004L50.045948645833334,138.76800000678216L50.789658554687506,137.84507139239992L50.98427423177083,138.35078572332858L51.17888990885417,138.40135717902865L51.5403190234375,138.26228573237148L51.971253736979165,135.3038571187428L52.047709895833336,135.8727857504572L52.652408606770834,135.63257139239994L52.69411196614583,135.16478582280024L52.867875963541664,134.76021417719977L52.90262876302083,135.4302855695997L53.11809611979167,136.37849985531398L53.40306907552083,138.52778570524285L53.49342635416667,137.69335710065707L53.507327473958334,137.60485718505723L54.07032282552083,136.32792847497123L54.709774335937496,136.5934285231999L54.827933854166666,137.0612142435142L54.97389561197917,136.40378584691456L55.655050481770836,136.74514281494277L55.90527063802083,137.45314289331435L55.93307287760416,138.26228573237148L55.988677356770836,137.95885714888573L56.5030187890625,135.84750006028585L56.767140065104165,134.82342870405742L56.86444790364583,134.69699995177132L57.128569179687496,133.64764290537153L57.2119758984375,135.32914280891418L57.503899414062495,135.56935716697149L57.97653748697916,135.39235703434264L58.039092526041664,135.70842846291407L58.05994420572917,135.68314277274268L58.5881867578125,133.02814259188517L58.60208787760416,133.31892833028522L58.97741811197917,132.7752856901714L59.172033789062496,133.39478600365774L59.901842578125,132.58564271245683L60.52739296875,132.59828585897174L60.638601927083336,132.37071404457092L60.735909765625,131.78914256777082L61.159893919270836,130.3984284026282L61.820197109375,131.15699971062796L61.83409822916667,131.61214273657117L62.056516145833335,130.32257133211408L62.320637421875,130.29728564194272L62.85583053385417,131.61214273657117L62.96008893229167,131.29607130799974L63.26591356770834,131.97878554548535L63.85671115885417,129.67778593131473L63.97487067708334,130.95471418925695L63.995722356770834,131.19492854731425L64.23204139322917,132.3075001205717L64.24594251302084,132.20635735988617L64.29459643229167,131.97878554548535L64.54481658854166,128.50200043405806L64.69077834635416,127.26299980708531L64.85759178385416,125.66999951771328L65.12171305989584,127.55378614834378L65.2607242578125,127.49057162148611L66.03223640625,128.60314319474355L66.10174200520834,128.07214309828623L66.44927,127.81928619657245L66.58133063802083,126.79521423748562L66.67168791666667,128.18592900548663L66.71339127604166,128.3376431465149L66.8037485546875,127.41471394811359L67.19993046875,124.8229279926845L67.35979334635417,123.39428619657244L67.39454614583333,122.93914256777083L67.56135958333334,123.73564271245684L67.8046291796875,125.0504998070853L67.9714426171875,124.93671389988491L68.63869636718749,123.64714309828622L68.8055098046875,123.12878614834378L69.1808400390625,120.39792799268449L69.38240627604166,119.67728552137103L69.75773651041666,116.76942934308732L70.02880834635417,117.43949922834125L70.04966002604166,118.23600057874407L70.13306674479166,117.4900718144008L70.34853410156249,118.37507036754063L71.07139233072917,114.70864227839878L71.12699680989583,113.91214333942959L71.23125520833334,114.16499903542655L71.90545951822916,114.65807210377285L72.08617407552084,114.72128542491367L72.23908639322917,115.03735685348511L72.87853790364582,109.3354279926845L72.93414238281251,108.93085694994245L73.21911533854167,111.09278677531651L73.6430994921875,111.63642760685512L73.85856684895833,111.81342924662998L74.30340268229168,107.29992963245937L74.42851276041667,105.13799980708531L74.498018359375,105.99771447862898L74.50496891927084,106.23792943954467L74.63702955729167,105.65635675702777L74.79689243489582,107.32521351405552L74.92895307291667,107.16085743222918L75.26953050781249,106.03564391817366L75.33903610677083,106.65514362880161L75.35988778645833,106.3264290537153L75.46414618489582,105.18857239314488L75.69351466145832,106.18735685348511L76.37466953125,106.17471370697021L76.61793912760416,104.97364372525897L76.91681320312499,102.19221418925694L76.9585165625,102.8243570463998L77.42420407552083,103.36800028937203L77.61881975260417,106.17471370697021L77.6883253515625,105.1506429536002L77.93159494791666,105.3908579145159L78.3972824609375,101.69914353234428L78.61970037760418,102.30600009645735L79.02978341145833,103.39328658240181L79.2730530078125,99.70157220023019L79.34950916666666,99.49928667885916L79.43291588541666,99.18321525028774L79.55107540364583,97.95685656411307L80.34343923177083,95.70642953600202L80.58670882812501,96.00985540662492L80.62841218749999,95.76964285714286L81.10800082031251,100.53600057874408L81.41382545572917,99.42342779976981L81.61539169270833,97.75457104274204L81.6501444921875,95.15014073508127L81.71269953125,93.82264169965472L82.338249921875,93.7341420854841L82.3591016015625,94.45478455679758L82.55371727864583,96.02250096457345L82.62322287760416,95.7317158290318L83.02635535156249,96.14892760685512L83.26962494791667,99.15792895725795L83.49899342447915,99.76478552137102L83.50594398437501,99.67628590720041L83.92297757812501,101.64857094628469L84.78484700520833,100.24521544320243L84.80569868489583,100.15671341759817L85.19493003906251,95.12485926491873L85.37564459635416,93.36749807085309L85.39649627604167,94.01228648594447L85.54245803385416,92.93764073508127L85.591111953125,93.30428474971227L85.99424442708334,97.8304299218314L86.03594778645832,99.10735637119838L86.425179140625,95.23864517211913L86.48078361979167,95.44093069349017L87.6137248828125,92.50778339930943L87.66237880208332,93.24107142857143L87.85004391927083,92.22964382171631L88.2392752734375,91.96414497920445L88.46169319010417,92.1158579145159L88.9065290234375,98.43728648594448L88.927380703125,97.10978745051793L89.06639190104167,99.01885675702776L89.1150458203125,99.17057210377284L89.29576037760417,96.49028532845632L89.7822995703125,92.02735830034528L89.844854609375,90.75042702811105L89.89350852864584,91.30671582903182L89.98386580729168,92.98821332114083L90.136778125,89.89071235656738L90.40089940104166,88.09542895725797L90.60941619791667,88.92985733577183L90.76927907552083,91.35728359222412L90.89438915364583,92.3307841709682L91.38092834635417,95.18807258605958L91.90222033854167,92.3687160219465L92.180242734375,93.93642760685512L92.347056171875,96.47764459337506L92.79884256510415,93.51921582903181L93.34098623697916,90.94007181440081L93.37573903645834,89.87807162148611L93.39659071614584,89.48614131382534L93.5773052734375,86.5150718144008L94.16115230468749,89.35971467154367L94.27931182291667,89.33442837851389L94.77280157552083,82.65900135040283L94.91181277343749,84.075L94.96046669270832,84.25199922834125L95.7458799609375,86.32542702811105L95.76673164062501,86.81849768502371L95.91269339843751,85.76914305005754L96.32277643229166,88.03221563611712L96.39228203125,84.89678764343262L96.42008427083334,86.05992818559919L96.6216505078125,89.65049980708531L96.851018984375,88.84135772160121L97.21244809895833,89.0309976850237L97.3306076171875,87.020788029262L97.42791545572916,85.63007084982736L97.5391244140625,85.90821525028774L97.65728393229166,85.97142857142858L97.93530632812501,83.74628783634732L98.25503208333333,86.24957297188897L98.26198264322917,86.37599961417062L98.4148949609375,83.39228455679758L98.46354888020834,84.75771544320244L98.65816455729167,86.71735733577184L98.72767015625,85.61743011474609L98.83887911458334,85.5036442075457L98.90143415364582,85.95878783634731L98.99874199218749,86.24957297188897L99.26286326822917,84.3278581074306L99.28371494791666,85.12435945783344L99.520033984375,89.3091420854841L99.54783622395833,90.37114227839878L99.70769910156251,88.33564150674003L99.74940246093749,87.4379998070853L99.76330358072917,87.56442644936698L100.0413259765625,87.85521640777587L100.0830293359375,87.33685945783343L100.17338661458332,87.90578417096819L100.2081394140625,87.70349864959717L100.65297524739584,91.01593069349016L100.78503588541666,92.65950115748814L100.84759092447916,92.83650038582938L101.16036611979166,92.86178667885916L101.32022899739583,87.47592683519636L101.3341301171875,87.00814247131348L101.34108067708333,86.9575698852539L101.7511637109375,81.8625L102.856302734375,78.46157316480364L103.22468240885416,75.52843069349017L103.36369360677082,76.90650231497628L103.57916096354167,76.4007861001151L103.64171600260416,76.76743011474609L103.75987552083333,77.37428667885916L103.8780350390625,75.81921582903182L104.09350239583334,75.38935849325998L104.44798095052083,71.79878687177386L104.607843828125,72.59528339930944L104.70515166666667,73.72050173623221L105.21949309895834,77.29842779976983L106.01185692708334,73.15157220023019L106.67911067708333,72.39299787793841L106.71386347656251,70.53450115748814L106.9640836328125,68.47371409279961L107.17955098958335,65.95778339930943L107.85375529947918,70.31957007816861L108.03446985677084,71.04021254948208L108.06227209635416,70.5724281855992L108.1734810546875,73.02514073508127L108.4654045703125,72.67114227839879L108.91024040364583,74.27678571428571L108.93109208333334,73.48028436388287L109.04230104166666,73.05042702811105L109.70955479166666,70.07935752868651L110.07793446614583,71.58385579245432L110.73823765624999,63.012000192914684L111.55840372395834,68.32200115748815L111.75301940104167,62.139644786289765L112.16310243489583,63.96021447862897L112.27431139322917,67.77835791451591L112.48977875000001,67.95535714285714L112.9902190625,65.12335502079554L113.12227970052083,64.57971660069057L113.42115377604166,65.23714092799595L113.56016497395832,63.82114227839878L113.96329744791667,61.30521640777589L114.08145696614582,63.03728648594448L114.26912208333333,63.96021447862897L114.41508384114584,66.57728552137102L114.49849055989583,66.94392953600202L114.60274895833334,68.44842779976982L114.63055119791666,67.37378687177385L114.74871071614584,68.3599281855992L114.99893087239583,66.27385482788087L115.27695326822916,68.28406930650983L115.50632174479168,70.28164305005755L116.27088333333333,77.4375L116.6392630078125,76.22378687177385L116.66706524739583,74.87100154331752L116.8060764453125,76.57778532845633L117.14665388020833,73.94807355063303L117.3482201171875,75.42728552137103L117.6401436328125,69.70007277897427L117.9946221875,69.63685945783342L118.15448506510417,69.2070021220616L118.56456809895833,70.82528629302978L118.58541977864583,71.15399845668247L119.037206171875,70.25635675702776L119.23877240885416,68.68864517211914L119.4750914453125,64.49121216365269L119.71836104166665,65.48999903542656L119.87822391927084,65.3382861001151L119.98943287760416,66.0462878363473L120.35781255208333,60.104144014631004L120.49682375,63.12578610011509L120.58718102864583,64.98428764343261L120.62888438802084,65.28771351405551L120.78179670572916,70.97699922834123L121.3517426171875,65.74285714285715L122.3317715625,69.10585694994246L122.790508515625,65.7934297289167L122.83916243489584,66.27385482788087L122.90171747395833,65.4520720073155L123.0198769921875,65.19921389988491L123.10328371093749,65.99571525028773L123.1449870703125,67.98064343588693L123.55507010416666,71.09078513554164L123.90259809895834,70.50921486445834L124.22927441406249,65.43942644936698L124.4794945703125,65.14864131382534L124.6463080078125,58.903071621486134L124.6671596875,59.0674301147461L125.1884516796875,56.36185945783343L125.23015503906251,57.05721081324987L125.4386718359375,58.49850057874407L125.501226875,57.42385482788086L125.52902911458334,58.58700019291469L125.57073247395833,58.95364420754569L126.210183984375,63.201644979204445L126.21713454427083,64.0234277997698L126.2727390234375,63.79585598536899L126.30054126302085,63.65678378513881L126.41870078125,63.226926449366985L126.86353661458334,66.375L126.99559725260416,63.113140542166576L127.2319162890625,58.76399942125593L127.39872972656251,57.600854056222104L127.93392283854166,64.23835887908935L128.37180811197916,60.54664208548408L128.6915338671875,57.09514748709542L128.99735850260416,61.646569306509846L129.129419140625,59.26971563611713L129.59510665364584,64.0234277997698L129.99823912760417,66.24857335771834L130.15810200520835,64.12457297188897L130.72109735677083,59.52257374354771L130.91571303385416,56.51356757027763L131.03387255208332,54.57921197073799L131.047773671875,53.188499614170624L131.27019158854165,55.04700115748814L131.4856589453125,56.38714092799596L131.89574197916667,59.90185849325998L132.88967204427084,64.55443030766078L133.05648548177084,63.06257277897426L133.11904052083335,63.264858300345296L133.16074388020834,61.92471370697022L133.48046963541665,57.272146715436676L133.50132131510418,56.86757567269461L133.633381953125,58.195069885253915L133.7654425911458,59.56050077165875L134.550855859375,54.41485830034529L134.64816369791666,57.34800077165876L135.35712080729166,54.70563861301967L135.50308256510417,54.22521351405551L136.00352287760415,61.166144207545685L136.0730284765625,60.88799980708531L136.42750703125,66.94392953600202L136.92794734375,62.53157027108328L137.08085966145833,61.78564150674002L137.1990191796875,63.5682841709682L137.51874493489584,62.12699922834125L137.75506397135416,54.83207490103584L138.20685036458335,52.429930114746085L138.58218059895833,52.429930114746085L138.76289515625,54.313713128226155L138.79764795572916,54.18728648594447L139.29113770833334,61.44428378513881L139.54135786458332,59.4846418925694L139.88193529947918,58.1192158290318L140.31287001302084,54.17464092799595L140.31982057291665,55.3125L140.556139609375,57.107783399309426L140.65344744791668,56.842284556797566L140.94537096354165,59.231783785138816L142.10611446614584,55.3883540562221L142.32158182291667,57.600854056222104L142.557900859375,55.62857142857143L142.98188501302084,54.38956718444824L143.05139061197917,56.10899652753558L143.308561328125,55.65385289873396L143.36416580729167,56.38714092799596L143.53792980468748,58.106570271083285L143.66303988281248,62.26607142857142L143.67694100260417,61.00178571428572L143.83680388020832,59.396142278398784L143.84375444010416,59.11799787793841L143.850705,59.724859264918734L143.8715566796875,60.2937839780535L144.00361731770832,61.68450115748813L144.2468869140625,55.072282627650665L144.46235427083334,51.53228841509137L144.60831602864582,47.85321235656738L144.73342610677082,47.38543281555175L144.80293170572915,48.13135675702776L145.42153153645833,54.38956718444824L145.518839375,55.42628108433314L145.6578505729167,55.90671582903181L145.72040561197917,55.96992432730538L145.76905953125,56.38714092799596L145.77601009114585,56.53885868617466L145.977576328125,55.36307258605957L146.04708192708333,58.16978359222412L146.18609312499999,54.74357528686524L146.6656817578125,53.453998456682484L147.00625919270834,57.562927028111034L147.01320975260418,57.61349961417062L147.23562766927083,54.92057451520648L147.4997489453125,58.09392471313477L148.27126109375,57.91692548479354L148.44502509114582,55.84349768502372L148.46587677083335,56.29864131382533L148.52843180989584,55.85614324297224L148.72304748697917,57.171001543317516L148.96631708333334,60.837427221025735L149.04972380208335,61.722428185599185L149.32079563802083,59.09271640777588L149.4945596354167,57.31007374354772L149.61271915364583,55.135500771658755L150.08535722656248,53.378144400460386L150.23826954427082,56.23543281555176L150.43288522135416,56.02049691336495L150.80821545572917,54.25050462995257L151.73263992187498,53.3907899584089L151.73959048177082,53.80799691336496L152.39989367187502,53.26435367039272L152.7126688671875,53.1632181440081L153.55368661458334,47.85321235656738L153.60234053385417,47.107288415091375L154.47116052083334,40.95021351405552L154.80478739583333,47.676213128226124L155.08280979166668,53.466644014631L155.2565737890625,53.52985251290458L155.38863442708333,55.717071042742035L155.42338722656248,55.03435559953962L155.58325010416667,54.12406834193638L155.736162421875,53.44135289873397L155.8821241796875,51.835714285714275L156.35476225260416,47.25899652753557L156.72314192708336,51.1782899584089L157.12627440104168,48.232501929146906L157.43209903645834,43.693711199079246L157.45990127604165,44.81892471313478L157.63366527343751,48.0934297289167L158.91951885416668,44.66721660069055L159.0237772526042,44.71778918675014L159.04462893229166,44.49021737234932L159.19754125,44.389072200230174L159.239244609375,45.463713128226146L159.572871484375,43.402930886404846L159.6771298828125,40.457142857142856L159.9551522786458,40.89964092799596L159.99685563802083,43.2765042441232L160.0941634765625,40.01464478628975L160.17061963541667,40.05257181440081L160.23317467447916,42.151281084333164L160.5529004296875,43.402930886404846L160.62935658854167,44.79364324297225L160.6710599479167,41.797282627650674L161.08114298177082,45.32464092799597L161.26880809895835,43.099495370047435L161.4286709765625,45.29935945783345L161.91521016927084,44.85686138698031L162.06812248697918,42.454716600690574L162.29749096354166,41.40535714285713L162.41565048177085,44.23735444205147L162.4643044010417,45.07178764343263L162.742326796875,46.37400038582939L162.83268407552083,48.978425870622914L162.867436875,47.941711970738L162.90914023437497,48.43478262765066L162.9299919140625,48.85199922834124L163.45823446614585,43.18800462995259L163.46518502604167,42.65699729919433L163.47908614583332,42.163926642281666L163.77100966145835,40.280143628801625L163.79186134114582,40.77321428571429L164.00732869791668,43.17535907200403L164.19499381510417,38.94000385829381L164.21584549479167,40.12842587062289L164.25059829427082,39.97671775817872L164.63982964843748,37.561927413940424L164.744088046875,36.27236022949219L164.8066430859375,37.78949922834124L164.82054420572916,37.96649845668247L165.161121640625,36.65164015633721L165.25842947916667,35.34942741394042L165.5573035546875,39.78707297188896L165.87007875,43.55463899884907L166.15505170572916,43.23856757027764L166.245408984375,46.1843555995396L166.25235954427083,47.11992432730537L166.3913707421875,45.67863938467843L166.40527186197917,46.285500771658775L166.44002466145832,45.60278532845635L166.5164808203125,44.806288800920754L167.28799296875,43.984501157488126L167.4339547265625,43.2765042441232L167.90659279947917,43.162713514055525L167.913543359375,42.29035328456334L167.93439503906248,41.13985830034528L167.94134559895832,41.64557451520648L168.21241743489583,44.338499614170615L168.27497247395834,45.046496527535595L168.4417859114583,43.46613938467843L168.67115438802082,44.23735444205147L168.8449183854167,41.92371891566685L169.09513854166667,47.044070271083285L169.35925981770833,50.95071814400811L169.63728221354165,58.39735540662494L169.69288669270836,56.96871119907924L169.915304609375,55.80557065691268L170.00566188802082,56.51356757027763L170.45049772135417,42.922496141706176L170.90228411458332,50.154211970738004L171.0621469921875,54.465430886404846L171.6459940234375,50.35650231497627L171.666845703125,49.97721274239676L171.70159850260416,49.20599768502373L172.167286015625,47.01878880092076L172.29239609375,52.518429728916715L172.81368808593749,56.260714285714286L173.08475992187502,48.49800077165875L173.09171048177083,48.90257181440083L174.18294838541667,49.20599768502373L174.47487190104164,45.81771158490861L174.4818224609375,46.3234277997698L174.93360885416666,41.83520965576173L174.97531221354168,43.225931658063615L175.11432341145832,44.95799691336495L175.15602677083334,46.285500771658775L175.30198852864584,42.631715829031805L175.34369188802083,44.89478841509137L175.76072548177083,44.85686138698031L176.17080851562503,41.41800270080566L176.39322643229167,43.150067956106994L176.4418803515625,42.871933201381154L177.92930016927085,42.73286100115095L178.10306416666666,44.148854827880854L178.1934214453125,42.11335405622211L178.3810865625,47.68885868617468L178.42974048177084,47.30956911359513L178.50619664062498,46.1717100415911L178.54094944010416,45.77978455679758L178.59655391927083,45.716576058524L178.6938617578125,44.88214285714287L178.88847743489583,45.14764169965471L179.36806606770836,44.89478841509137L179.38891774739582,46.108501543317516L179.68084126302082,42.973068727765764L179.924110859375,44.920069885253895L180.18128157552084,43.42821235656737L180.81378252604168,41.569710813249856L180.924991484375,44.56607142857143L181.66870139322918,49.8507861001151L181.71735531250002,48.61178185599189L181.80076203124997,45.19821428571427L182.15524058593752,41.29157605852399L182.23169674479166,40.17899845668248L182.2386473046875,39.38250192914691L182.8641976953125,39.42042895725797L182.885049375,38.58599575587681L183.9067816796875,41.974281855991904L183.93458391927084,43.402930886404846L183.94153447916665,42.783423941476L184.05969399739584,42.44207104274204L184.16395239583335,40.67206911359514L184.23345799479165,41.01343165806361L184.30991415364585,42.100718144008084L184.34466695312503,41.58235637119839L184.37941975260415,43.76957490103584L184.40722199218752,41.70878301348003L184.4489253515625,44.578716986519936L184.6157387890625,45.12236022949219L184.68524438802083,45.79243011474608L184.8659589453125,47.68885868617468L184.87986006510417,48.90257181440083L185.17873414062498,42.79606949942453L185.33859701822917,46.702717372349326L185.69307557291668,52.06328610011509L185.85988901041668,50.55878301348005L185.99194964843753,48.14400231497629L186.0892574869792,47.979638998849055L186.31862596354168,46.0073563711984L187.10403923177083,51.266789572579526L187.4446166666667,41.58235637119839L187.8686008203125,40.621496527535584L188.00761201822917,42.29035328456334L188.0840681770833,44.4143536703927L188.223079375,41.93635482788085L188.64011296875,38.977930886404835L188.73047024739583,39.812354442051486L188.98764096354168,34.99542895725796L189.1266521614583,35.31150038582939L189.2031083203125,34.67935752868652L189.80085647135417,40.49506988525391L189.8703620703125,39.36985637119838L190.850391015625,36.12064247131349L191.10756173177083,42.50528918675013L191.12146285156248,42.1892177581787L191.32302908854166,43.137432043893L191.59410092447916,45.99471081324987L191.9277277994792,41.78464671543668L192.26135467447915,39.54685559953961L192.27525579427083,40.684714671543674L192.3308602734375,39.71121891566685L192.5393770703125,41.506502314976274L192.69923994791665,43.036286871773854L192.79654778645832,44.50285328456334L193.19272970052083,46.19700115748816L193.85998345052082,46.12114710126605L194.17275864583334,40.88699537004743L194.20056088541665,40.60886061532156L194.61759447916668,44.275281470162525L194.937320234375,48.7382181440081L195.14583703124998,48.927853284563355L195.29874934895832,49.02899845668247L195.354353828125,46.1843555995396L195.7922391015625,40.697360229492176L196.20232213541667,39.926145172119135L196.41083893229168,33.275999614170615L196.56375125000002,30.49457490103586L196.7931197265625,28.95214478628975L196.99468596354166,33.52885289873396L197.30746115885415,35.32414594377789L197.57853299479166,31.291071428571428L198.17628114583334,35.65285328456332L198.68367201822917,40.74793281555176L198.857436015625,42.404144014631015L198.9477932942708,41.01343165806361L199.01034833333335,40.46978841509136L199.55944256510418,37.865353284563355L199.96952559895834,35.930997685023726L200.76188942708333,36.575786100115096L200.86614782552084,37.170001929146906L201.22757694010417,33.048427799769826L201.41524205729166,32.90935559953962L201.84617677083335,38.80093165806363L202.01994076822916,38.977930886404835L202.63854059895831,46.867071042742054L202.89571131510417,46.816498456682496L203.13898091145836,39.43307451520647L203.36834938802082,32.858783013480064L203.65332234375,28.825718144008107L204.4039828125,39.281356757027766L204.51519177083333,41.96164594377788L204.66115352864583,39.445710427420494L204.72370856770831,40.83643242972238L204.8349175260417,40.58356949942453L205.27280279947917,41.32950308663504L205.27975335937498,41.00078610011508L205.37706119791665,45.64071235656738L206.14162278645836,40.09049884251186L206.23198006510418,39.508928571428555L206.30843622395832,39.67328224182128L206.93398661458335,38.674495370047424L207.00349221354168,40.89964092799596L207.4691797265625,32.41628494262696L207.7611032421875,37.738926642281655L208.85929170572916,35.34942741394042L209.12341298177085,32.74500192914692L209.44313873697917,32.78292895725795L209.45703985677082,31.986432429722385L209.73506225260417,32.70707490103584L209.7420128125,32.58063861301969L209.74896337239582,33.84492432730539L209.86017233072917,33.60471660069055L209.950529609375,36.94243011474609L209.96443072916665,36.90450308663506L210.65253615885416,24.41335405622212L211.69512014322916,35.29885482788086L212.1399559765625,30.48192934308733L212.1816593359375,31.1267177581787L212.22336269531252,30.330211584908625L212.25116493489583,31.18992625645228L212.25811549479167,29.95093165806361L212.77940748697918,28.87628108433313L213.0574298828125,35.223000771658775L213.43971067708333,38.83885868617466L214.19732170572917,37.625145557948514L214.27377786458334,40.874359457833435L214.32938234375,43.402930886404846L214.66300921875,37.87799884251186L214.82982265625,34.71728455679758L215.10784505208335,30.94971852983747L215.12869673177084,31.1267177581787L215.34416408854165,27.59935945783343L215.4136696875,26.031638227190285L215.46232360677084,27.649932043893017L215.58743368489584,29.53371505737306L215.98361559895832,34.37593165806362L216.122626796875,37.524000385829396L216.14347847656248,38.54806872776578L216.289440234375,41.92371891566685L216.88718838541666,40.039926256452304L217.5196893359375,32.77028339930945L217.53359045572915,33.31392664228167L217.75600837239585,31.99906834193638L217.88111845052083,30.229076058523987L219.84812690104167,35.53907220023018L220.02884145833332,31.77149652753556L220.33466609375,26.221283013480047L220.71694688802083,34.89428378513881L221.14788160156252,37.42285521371025L221.2382388802083,39.521574129377086L221.877690390625,30.06471274239678L222.07925662760417,34.05986022949219L222.35032846354167,34.72993011474608L222.80211485677083,35.9183617728097L224.296485234375,29.29349768502371L224.84557946614584,33.50357142857143L225.0262940234375,36.67693127223424L225.17920634114586,35.210355213710244L225.31126697916667,35.60229034423827L225.45027817708333,31.518643242972217L225.4850309765625,30.861218915666853L225.59623993489583,36.37349575587683L225.67964665364585,32.47950308663505L225.79085561197917,32.87142857142857L225.9785207291667,32.757647487095426L226.45115880208334,30.924427413940435L226.79173623697918,30.393429728916715L226.882093515625,32.18871312822614L226.93769799479168,31.151999228341225L227.20181927083334,32.53007567269461L227.59800118489582,28.977426256452304L228.09844149739584,26.19600154331752L228.32780997395835,31.038218144008084L228.3764638932292,29.90035907200405L228.43901893229167,30.41871119907924L228.78654692708335,34.19893242972236L228.80739860677082,34.034569113595154L228.95336036458332,35.00807451520646L229.03676708333333,33.57942548479352L229.16882772135418,34.02193320138113L229.300888359375,33.41507181440082L230.24616450520833,28.206211199079235L230.80915985677086,26.815498842511857L230.81611041666667,26.58792702811104L231.052429453125,25.791430500575473L231.18449009114585,31.000281470162548L231.50421584635416,22.491644014630992L232.00465615885415,24.046710041591098L232.03940895833333,26.12014748709541L232.220123515625,28.610782241821283L232.53984927083332,31.18992625645228L232.64410766927082,31.493361772809692L232.95688286458335,28.459074129377086L233.21405358072917,32.80821042742048L233.51292765625,34.89428378513881L233.65193885416664,31.050854056222107L233.69364221354166,32.82085598536901L233.7839994921875,31.202571814400812L233.97861516927082,23.553639384678434L234.27748924479167,22.264072200230174L234.555511640625,29.204998070853094L234.930841875,28.143002700805653L235.02119915364582,27.447641699654724L235.19496315104166,26.094856371198375L235.2436170703125,23.793856757027783L235.27141930989583,24.843216214861172L235.95952473958334,24.375427028111034L235.98037641927084,24.463926642281677L236.13328873697915,20.266498456682484L236.2583988151042,24.77999807085311L236.48081673177083,24.48921775817871L236.9117514453125,32.2266401563372L237.00905928385419,29.54636061532156L237.12721880208332,29.11649845668248L237.13416936197916,28.11771158490862L237.42609287760416,27.30856949942452L238.11419830729167,27.95335791451592L238.30186342447917,30.153212356567394L239.31664516927083,17.194283785138794L239.68502484375003,24.23635482788086L240.43568531249997,25.37421389988492L240.51214147135417,24.805289186750144L241.36706033854165,31.2531444004604L241.7771433723958,31.000281470162548L242.0343140885417,28.850999614170604L242.1802758463542,25.879930114746088L242.4374465625,26.42357335771831L242.68766671875,25.146642085484103L242.69461727864584,26.271855599539634L242.86838127604165,29.30614324297224L243.29931598958333,31.139353670392723L243.34101934895833,31.94849575587682L243.44527774739583,32.54271158490863L243.7928057421875,37.106783785138816L243.9735202994792,33.162218529837475L244.09167981770833,29.685432815551763L244.2515426953125,26.05692934308732L244.57126845052085,22.11235444205147L245.02305484375,24.678852898733936L245.07170876302084,25.879930114746088L245.1273132421875,24.0593555995396L245.46094011718748,24.41335405622212L245.52349515625002,24.28692741394042L245.93357819010419,31.82206911359515L246.02393546875,33.30128108433314L247.03176665364583,31.796787643432623L247.11517337239584,33.162218529837475L247.34454184895833,33.4909258706229L247.35844296874998,33.326572200230174L247.63646536458333,31.493361772809692L248.0882517578125,25.867284556797557L248.60259319010416,28.71192741394043L248.92926950520834,25.058142471313488L249.17948966145835,23.806502314976285L249.3810558984375,22.744497299194336L249.58262213541667,28.71192741394043L249.6729794140625,32.87142857142857L249.69383109375,33.50357142857143L250.152568046875,30.747428185599205L250.1734197265625,29.875067956107017L250.47229380208333,28.446428571428555L250.74336563802083,31.114072200230197L250.81287123697916,28.737218529837463L250.83372291666666,29.84978648594449L251.20210259114586,31.06349961417061L251.98751585937498,28.269429343087353L252.11957649739583,29.41992432730538L252.16823041666666,26.60057258605957L252.1751809765625,26.43621891566687L252.22383489583333,25.18456911359513L252.6756212890625,26.233928571428578L252.70342352864586,26.12014748709541L252.87023696614582,22.82036100115093L252.95364368489584,22.264072200230174L253.04400096354166,20.721642085484092L253.0926548828125,20.99978648594447L253.655650234375,24.60299884251185L253.8850187109375,24.48921775817871L253.91282095052082,25.740857914515914L254.10048606770835,27.460287257603227L254.1143871875,27.561432429722373L254.58007470052084,33.23807258605956L254.62177805989583,33.65528918675014L254.73993757812502,30.01414015633719L255.22647677083333,26.60057258605957L255.2959823697917,23.186995370047413L255.41414188802082,26.992498070853088L255.46279580729166,24.375427028111034L255.48364748697915,24.88114324297223L255.58095532552082,26.486781855991893L255.657411484375,25.46271351405551L256.6026876302083,35.13450115748816L256.8598583463542,32.391003472464405L257.242139140625,32.58063861301969L257.2907930598958,33.0231463296073L257.742579453125,43.17535907200403L257.91634345052086,42.88456911359515L257.97889848958334,43.225931658063615L258.0623052083333,41.696147101266064L258.1943658463542,39.29400231497627L258.31252536458334,39.82499999999999L258.4167837630208,38.14349768502373L258.6878555989583,35.95628880092076L258.77126231770836,34.8184297289167L258.94502631510414,32.922001157488126L259.15354311197916,33.60471660069055L259.20219703124997,34.19893242972236L259.6053295052084,34.515003858293824L259.6817856640625,32.922001157488126L259.9250552604167,32.84614710126604L260.05711589843753,31.24049884251184L260.10576981770834,32.036995370047435L260.42549557291665,33.17485444205147L260.59230901041667,34.4391401563372L260.7869246875,34.67935752868652L260.8077763671875,34.32535907200406L261.0510459635417,35.450572586059565L261.52368403645835,27.611995370047424L261.69744803385413,30.519856371198387L261.9337670703125,24.65357142857141L261.95461875,24.792643628801613L262.3160478645833,26.866071428571445L262.3229984244792,26.385646329607283L262.37860290364586,27.738431658063632L262.46896018229165,27.06836177280971L262.8512409765625,24.021428571428572L263.03890609375,22.66864324297225L263.4559396875,38.54806872776578L263.4628902473958,38.39636061532158L263.63665424479166,37.170001929146906" style="fill: none;" fill="none"></path></g></g></g></g></g></g><g transform="translate(42, 177)" clip-path="url(#clip_1)"><clipPath id="clip_1"><rect width="287" height="23"></rect></clipPath><g><g><line x1="0" y1="0" x2="0" y2="5" style="visibility: inherit;" fill="rgb(0, 0, 0)" stroke="rgb(204, 204, 204)" stroke-width="1px"></line><line x1="23.967447916666664" y1="0" x2="23.967447916666664" y2="5" style="visibility: inherit;" fill="rgb(0, 0, 0)" stroke="rgb(204, 204, 204)" stroke-width="1px"></line><line x1="47.93489583333333" y1="0" x2="47.93489583333333" y2="5" style="visibility: inherit;" fill="rgb(0, 0, 0)" stroke="rgb(204, 204, 204)" stroke-width="1px"></line><line x1="71.90234375" y1="0" x2="71.90234375" y2="5" style="visibility: inherit;" fill="rgb(0, 0, 0)" stroke="rgb(204, 204, 204)" stroke-width="1px"></line><line x1="95.86979166666666" y1="0" x2="95.86979166666666" y2="5" style="visibility: inherit;" fill="rgb(0, 0, 0)" stroke="rgb(204, 204, 204)" stroke-width="1px"></line><line x1="119.83723958333334" y1="0" x2="119.83723958333334" y2="5" style="visibility: inherit;" fill="rgb(0, 0, 0)" stroke="rgb(204, 204, 204)" stroke-width="1px"></line><line x1="143.8046875" y1="0" x2="143.8046875" y2="5" style="visibility: inherit;" fill="rgb(0, 0, 0)" stroke="rgb(204, 204, 204)" stroke-width="1px"></line><line x1="167.77213541666669" y1="0" x2="167.77213541666669" y2="5" style="visibility: inherit;" fill="rgb(0, 0, 0)" stroke="rgb(204, 204, 204)" stroke-width="1px"></line><line x1="191.73958333333331" y1="0" x2="191.73958333333331" y2="5" style="visibility: inherit;" fill="rgb(0, 0, 0)" stroke="rgb(204, 204, 204)" stroke-width="1px"></line><line x1="215.70703125" y1="0" x2="215.70703125" y2="5" style="visibility: inherit;" fill="rgb(0, 0, 0)" stroke="rgb(204, 204, 204)" stroke-width="1px"></line><line x1="239.67447916666669" y1="0" x2="239.67447916666669" y2="5" style="visibility: inherit;" fill="rgb(0, 0, 0)" stroke="rgb(204, 204, 204)" stroke-width="1px"></line><line x1="263.6419270833333" y1="0" x2="263.6419270833333" y2="5" style="visibility: inherit;" fill="rgb(0, 0, 0)" stroke="rgb(204, 204, 204)" stroke-width="1px"></line><line x1="287.609375" y1="0" x2="287.609375" y2="5" style="visibility: inherit;" fill="rgb(0, 0, 0)" stroke="rgb(204, 204, 204)" stroke-width="1px"></line></g><g transform="translate(0, 8)"><text x="0" y="0" dx="0em" dy="0.95em" style="text-anchor: middle; visibility: hidden; font-family: &quot;Helvetica Neue&quot;, sans-serif; font-size: 12px; font-weight: 200;" fill="rgb(50, 49, 63)" stroke="none" stroke-width="1px">-500k</text><text x="23.967447916666664" y="0" dx="0em" dy="0.95em" style="text-anchor: middle; visibility: inherit; font-family: &quot;Helvetica Neue&quot;, sans-serif; font-size: 12px; font-weight: 200;" fill="rgb(50, 49, 63)" stroke="none" stroke-width="1px">0</text><text x="47.93489583333333" y="0" dx="0em" dy="0.95em" style="text-anchor: middle; visibility: hidden; font-family: &quot;Helvetica Neue&quot;, sans-serif; font-size: 12px; font-weight: 200;" fill="rgb(50, 49, 63)" stroke="none" stroke-width="1px">500k</text><text x="71.90234375" y="0" dx="0em" dy="0.95em" style="text-anchor: middle; visibility: inherit; font-family: &quot;Helvetica Neue&quot;, sans-serif; font-size: 12px; font-weight: 200;" fill="rgb(50, 49, 63)" stroke="none" stroke-width="1px">1M</text><text x="95.86979166666666" y="0" dx="0em" dy="0.95em" style="text-anchor: middle; visibility: hidden; font-family: &quot;Helvetica Neue&quot;, sans-serif; font-size: 12px; font-weight: 200;" fill="rgb(50, 49, 63)" stroke="none" stroke-width="1px">1.5M</text><text x="119.83723958333334" y="0" dx="0em" dy="0.95em" style="text-anchor: middle; visibility: inherit; font-family: &quot;Helvetica Neue&quot;, sans-serif; font-size: 12px; font-weight: 200;" fill="rgb(50, 49, 63)" stroke="none" stroke-width="1px">2M</text><text x="143.8046875" y="0" dx="0em" dy="0.95em" style="text-anchor: middle; visibility: hidden; font-family: &quot;Helvetica Neue&quot;, sans-serif; font-size: 12px; font-weight: 200;" fill="rgb(50, 49, 63)" stroke="none" stroke-width="1px">2.5M</text><text x="167.77213541666669" y="0" dx="0em" dy="0.95em" style="text-anchor: middle; visibility: inherit; font-family: &quot;Helvetica Neue&quot;, sans-serif; font-size: 12px; font-weight: 200;" fill="rgb(50, 49, 63)" stroke="none" stroke-width="1px">3M</text><text x="191.73958333333331" y="0" dx="0em" dy="0.95em" style="text-anchor: middle; visibility: hidden; font-family: &quot;Helvetica Neue&quot;, sans-serif; font-size: 12px; font-weight: 200;" fill="rgb(50, 49, 63)" stroke="none" stroke-width="1px">3.5M</text><text x="215.70703125" y="0" dx="0em" dy="0.95em" style="text-anchor: middle; visibility: inherit; font-family: &quot;Helvetica Neue&quot;, sans-serif; font-size: 12px; font-weight: 200;" fill="rgb(50, 49, 63)" stroke="none" stroke-width="1px">4M</text><text x="239.67447916666669" y="0" dx="0em" dy="0.95em" style="text-anchor: middle; visibility: hidden; font-family: &quot;Helvetica Neue&quot;, sans-serif; font-size: 12px; font-weight: 200;" fill="rgb(50, 49, 63)" stroke="none" stroke-width="1px">4.5M</text><text x="263.6419270833333" y="0" dx="0em" dy="0.95em" style="text-anchor: middle; visibility: inherit; font-family: &quot;Helvetica Neue&quot;, sans-serif; font-size: 12px; font-weight: 200;" fill="rgb(50, 49, 63)" stroke="none" stroke-width="1px">5M</text><text x="287.609375" y="0" dx="0em" dy="0.95em" style="text-anchor: middle; visibility: hidden; font-family: &quot;Helvetica Neue&quot;, sans-serif; font-size: 12px; font-weight: 200;" fill="rgb(50, 49, 63)" stroke="none" stroke-width="1px">5.5M</text></g><line x1="0" y1="0" x2="287.609375" y2="0" fill="rgb(0, 0, 0)" stroke="rgb(204, 204, 204)" stroke-width="1px"></line></g></g></g></g></svg>