<svg viewBox="0 0 330 200" xmlns="http://www.w3.org/2000/svg"><g><g><g><g><g><line x1="42.390625" y1="177" x2="37.390625" y2="177" style="visibility: inherit;" fill="rgb(0, 0, 0)" stroke="rgb(204, 204, 204)" stroke-width="1px"></line><line x1="42.390625" y1="163.3846153846154" x2="37.390625" y2="163.3846153846154" style="visibility: inherit;" fill="rgb(0, 0, 0)" stroke="rgb(204, 204, 204)" stroke-width="1px"></line><line x1="42.390625" y1="149.76923076923077" x2="37.390625" y2="149.76923076923077" style="visibility: inherit;" fill="rgb(0, 0, 0)" stroke="rgb(204, 204, 204)" stroke-width="1px"></line><line x1="42.390625" y1="136.15384615384616" x2="37.390625" y2="136.15384615384616" style="visibility: inherit;" fill="rgb(0, 0, 0)" stroke="rgb(204, 204, 204)" stroke-width="1px"></line><line x1="42.390625" y1="122.53846153846153" x2="37.390625" y2="122.53846153846153" style="visibility: inherit;" fill="rgb(0, 0, 0)" stroke="rgb(204, 204, 204)" stroke-width="1px"></line><line x1="42.390625" y1="108.92307692307692" x2="37.390625" y2="108.92307692307692" style="visibility: inherit;" fill="rgb(0, 0, 0)" stroke="rgb(204, 204, 204)" stroke-width="1px"></line><line x1="42.390625" y1="95.3076923076923" x2="37.390625" y2="95.3076923076923" style="visibility: inherit;" fill="rgb(0, 0, 0)" stroke="rgb(204, 204, 204)" stroke-width="1px"></line><line x1="42.390625" y1="81.6923076923077" x2="37.390625" y2="81.6923076923077" style="visibility: inherit;" fill="rgb(0, 0, 0)" stroke="rgb(204, 204, 204)" stroke-width="1px"></line><line x1="42.390625" y1="68.07692307692307" x2="37.390625" y2="68.07692307692307" style="visibility: inherit;" fill="rgb(0, 0, 0)" stroke="rgb(204, 204, 204)" stroke-width="1px"></line><line x1="42.390625" y1="54.46153846153847" x2="37.390625" y2="54.46153846153847" style="visibility: inherit;" fill="rgb(0, 0, 0)" stroke="rgb(204, 204, 204)" stroke-width="1px"></line><line x1="42.390625" y1="40.84615384615384" x2="37.390625" y2="40.84615384615384" style="visibility: inherit;" fill="rgb(0, 0, 0)" stroke="rgb(204, 204, 204)" stroke-width="1px"></line><line x1="42.390625" y1="27.230769230769226" x2="37.390625" y2="27.230769230769226" style="visibility: inherit;" fill="rgb(0, 0, 0)" stroke="rgb(204, 204, 204)" stroke-width="1px"></line><line x1="42.390625" y1="13.615384615384613" x2="37.390625" y2="13.615384615384613" style="visibility: inherit;" fill="rgb(0, 0, 0)" stroke="rgb(204, 204, 204)" stroke-width="1px"></line><line x1="42.390625" y1="0" x2="37.390625" y2="0" style="visibility: inherit;" fill="rgb(0, 0, 0)" stroke="rgb(204, 204, 204)" stroke-width="1px"></line></g><g transform="translate(32.390625, 0)"><text x="0" y="177" dx="0em" dy="0.3em" style="text-anchor: end; visibility: hidden; font-family: &quot;Helvetica Neue&quot;, sans-serif; font-size: 12px; font-weight: 200;" fill="rgb(50, 49, 63)" stroke="none" stroke-width="1px">-30</text><text x="0" y="163.3846153846154" dx="0em" dy="0.3em" style="text-anchor: end; visibility: inherit; font-family: &quot;Helvetica Neue&quot;, sans-serif; font-size: 12px; font-weight: 200;" fill="rgb(50, 49, 63)" stroke="none" stroke-width="1px">-20</text><text x="0" y="149.76923076923077" dx="0em" dy="0.3em" style="text-anchor: end; visibility: hidden; font-family: &quot;Helvetica Neue&quot;, sans-serif; font-size: 12px; font-weight: 200;" fill="rgb(50, 49, 63)" stroke="none" stroke-width="1px">-10</text><text x="0" y="136.15384615384616" dx="0em" dy="0.3em" style="text-anchor: end; visibility: inherit; font-family: &quot;Helvetica Neue&quot;, sans-serif; font-size: 12px; font-weight: 200;" fill="rgb(50, 49, 63)" stroke="none" stroke-width="1px">0</text><text x="0" y="122.53846153846153" dx="0em" dy="0.3em" style="text-anchor: end; visibility: hidden; font-family: &quot;Helvetica Neue&quot;, sans-serif; font-size: 12px; font-weight: 200;" fill="rgb(50, 49, 63)" stroke="none" stroke-width="1px">10</text><text x="0" y="108.92307692307692" dx="0em" dy="0.3em" style="text-anchor: end; visibility: inherit; font-family: &quot;Helvetica Neue&quot;, sans-serif; font-size: 12px; font-weight: 200;" fill="rgb(50, 49, 63)" stroke="none" stroke-width="1px">20</text><text x="0" y="95.3076923076923" dx="0em" dy="0.3em" style="text-anchor: end; visibility: hidden; font-family: &quot;Helvetica Neue&quot;, sans-serif; font-size: 12px; font-weight: 200;" fill="rgb(50, 49, 63)" stroke="none" stroke-width="1px">30</text><text x="0" y="81.6923076923077" dx="0em" dy="0.3em" style="text-anchor: end; visibility: inherit; font-family: &quot;Helvetica Neue&quot;, sans-serif; font-size: 12px; font-weight: 200;" fill="rgb(50, 49, 63)" stroke="none" stroke-width="1px">40</text><text x="0" y="68.07692307692307" dx="0em" dy="0.3em" style="text-anchor: end; visibility: hidden; font-family: &quot;Helvetica Neue&quot;, sans-serif; font-size: 12px; font-weight: 200;" fill="rgb(50, 49, 63)" stroke="none" stroke-width="1px">50</text><text x="0" y="54.46153846153847" dx="0em" dy="0.3em" style="text-anchor: end; visibility: inherit; font-family: &quot;Helvetica Neue&quot;, sans-serif; font-size: 12px; font-weight: 200;" fill="rgb(50, 49, 63)" stroke="none" stroke-width="1px">60</text><text x="0" y="40.84615384615384" dx="0em" dy="0.3em" style="text-anchor: end; visibility: hidden; font-family: &quot;Helvetica Neue&quot;, sans-serif; font-size: 12px; font-weight: 200;" fill="rgb(50, 49, 63)" stroke="none" stroke-width="1px">70</text><text x="0" y="27.230769230769226" dx="0em" dy="0.3em" style="text-anchor: end; visibility: inherit; font-family: &quot;Helvetica Neue&quot;, sans-serif; font-size: 12px; font-weight: 200;" fill="rgb(50, 49, 63)" stroke="none" stroke-width="1px">80</text><text x="0" y="13.615384615384613" dx="0em" dy="0.3em" style="text-anchor: end; visibility: hidden; font-family: &quot;Helvetica Neue&quot;, sans-serif; font-size: 12px; font-weight: 200;" fill="rgb(50, 49, 63)" stroke="none" stroke-width="1px">90</text><text x="0" y="0" dx="0em" dy="0.3em" style="text-anchor: end; visibility: hidden; font-family: &quot;Helvetica Neue&quot;, sans-serif; font-size: 12px; font-weight: 200;" fill="rgb(50, 49, 63)" stroke="none" stroke-width="1px">100</text></g><line x1="42.390625" y1="0" x2="42.390625" y2="177" fill="rgb(0, 0, 0)" stroke="rgb(204, 204, 204)" stroke-width="1px"></line></g></g><g transform="translate(42, 0)" clip-path="url(#clip_0)"><clipPath id="clip_0"><rect width="287" height="177"></rect></clipPath><g><g><g><line x1="0" y1="0" x2="0" y2="177" fill="rgb(0, 0, 0)" stroke="rgb(60, 60, 60)" stroke-width="1px" opacity="0.25"></line><line x1="23.967447916666664" y1="0" x2="23.967447916666664" y2="177" fill="rgb(0, 0, 0)" stroke="rgb(60, 60, 60)" stroke-width="1px" opacity="0.25"></line><line x1="47.93489583333333" y1="0" x2="47.93489583333333" y2="177" fill="rgb(0, 0, 0)" stroke="rgb(60, 60, 60)" stroke-width="1px" opacity="0.25"></line><line x1="71.90234375" y1="0" x2="71.90234375" y2="177" fill="rgb(0, 0, 0)" stroke="rgb(60, 60, 60)" stroke-width="1px" opacity="0.25"></line><line x1="95.86979166666666" y1="0" x2="95.86979166666666" y2="177" fill="rgb(0, 0, 0)" stroke="rgb(60, 60, 60)" stroke-width="1px" opacity="0.25"></line><line x1="119.83723958333334" y1="0" x2="119.83723958333334" y2="177" fill="rgb(0, 0, 0)" stroke="rgb(60, 60, 60)" stroke-width="1px" opacity="0.25"></line><line x1="143.8046875" y1="0" x2="143.8046875" y2="177" fill="rgb(0, 0, 0)" stroke="rgb(60, 60, 60)" stroke-width="1px" opacity="0.25"></line><line x1="167.77213541666669" y1="0" x2="167.77213541666669" y2="177" fill="rgb(0, 0, 0)" stroke="rgb(60, 60, 60)" stroke-width="1px" opacity="0.25"></line><line x1="191.73958333333331" y1="0" x2="191.73958333333331" y2="177" fill="rgb(0, 0, 0)" stroke="rgb(60, 60, 60)" stroke-width="1px" opacity="0.25"></line><line x1="215.70703125" y1="0" x2="215.70703125" y2="177" fill="rgb(0, 0, 0)" stroke="rgb(60, 60, 60)" stroke-width="1px" opacity="0.25"></line><line x1="239.67447916666669" y1="0" x2="239.67447916666669" y2="177" fill="rgb(0, 0, 0)" stroke="rgb(60, 60, 60)" stroke-width="1px" opacity="0.25"></line><line x1="263.6419270833333" y1="0" x2="263.6419270833333" y2="177" fill="rgb(0, 0, 0)" stroke="rgb(60, 60, 60)" stroke-width="1px" opacity="0.25"></line><line x1="287.609375" y1="0" x2="287.609375" y2="177" fill="rgb(0, 0, 0)" stroke="rgb(60, 60, 60)" stroke-width="1px" opacity="0.25"></line></g><g><line x1="0" y1="177" x2="287.609375" y2="177" fill="rgb(0, 0, 0)" stroke="rgb(60, 60, 60)" stroke-width="1px" opacity="0.25"></line><line x1="0" y1="163.3846153846154" x2="287.609375" y2="163.3846153846154" fill="rgb(0, 0, 0)" stroke="rgb(60, 60, 60)" stroke-width="1px" opacity="0.25"></line><line x1="0" y1="149.76923076923077" x2="287.609375" y2="149.76923076923077" fill="rgb(0, 0, 0)" stroke="rgb(60, 60, 60)" stroke-width="1px" opacity="0.25"></line><line x1="0" y1="136.15384615384616" x2="287.609375" y2="136.15384615384616" fill="rgb(0, 0, 0)" stroke="rgb(60, 60, 60)" stroke-width="1px" opacity="0.25"></line><line x1="0" y1="122.53846153846153" x2="287.609375" y2="122.53846153846153" fill="rgb(0, 0, 0)" stroke="rgb(60, 60, 60)" stroke-width="1px" opacity="0.25"></line><line x1="0" y1="108.92307692307692" x2="287.609375" y2="108.92307692307692" fill="rgb(0, 0, 0)" stroke="rgb(60, 60, 60)" stroke-width="1px" opacity="0.25"></line><line x1="0" y1="95.3076923076923" x2="287.609375" y2="95.3076923076923" fill="rgb(0, 0, 0)" stroke="rgb(60, 60, 60)" stroke-width="1px" opacity="0.25"></line><line x1="0" y1="81.6923076923077" x2="287.609375" y2="81.6923076923077" fill="rgb(0, 0, 0)" stroke="rgb(60, 60, 60)" stroke-width="1px" opacity="0.25"></line><line x1="0" y1="68.07692307692307" x2="287.609375" y2="68.07692307692307" fill="rgb(0, 0, 0)" stroke="rgb(60, 60, 60)" stroke-width="1px" opacity="0.25"></line><line x1="0" y1="54.46153846153847" x2="287.609375" y2="54.46153846153847" fill="rgb(0, 0, 0)" stroke="rgb(60, 60, 60)" stroke-width="1px" opacity="0.25"></line><line x1="0" y1="40.84615384615384" x2="287.609375" y2="40.84615384615384" fill="rgb(0, 0, 0)" stroke="rgb(60, 60, 60)" stroke-width="1px" opacity="0.25"></line><line x1="0" y1="27.230769230769226" x2="287.609375" y2="27.230769230769226" fill="rgb(0, 0, 0)" stroke="rgb(60, 60, 60)" stroke-width="1px" opacity="0.25"></line><line x1="0" y1="13.615384615384613" x2="287.609375" y2="13.615384615384613" fill="rgb(0, 0, 0)" stroke="rgb(60, 60, 60)" stroke-width="1px" opacity="0.25"></line><line x1="0" y1="0" x2="287.609375" y2="0" fill="rgb(0, 0, 0)" stroke="rgb(60, 60, 60)" stroke-width="1px" opacity="0.25"></line></g></g></g><g><g><line x1="0" y1="136.15384615384616" x2="287.609375" y2="136.15384615384616" fill="rgb(0, 0, 0)" stroke="rgb(153, 153, 153)" stroke-width="1.5px"></line></g></g><g><g><line x1="23.967447916666664" y1="0" x2="23.967447916666664" y2="177" fill="rgb(0, 0, 0)" stroke="rgb(153, 153, 153)" stroke-width="1.5px"></line></g></g><g><g><g><g><g><path stroke="rgb(255, 112, 67)" stroke-width="2px" d="M24.21766807291667,140.50320509213668L24.238519752604166,140.6213941496152L24.419234309895835,140.46876882619722L24.579097187499997,140.4482528314736L25.023933020833333,141.08952455582482L25.086488059895835,141.36083445465783L25.5174227734375,140.71405661260786L25.552175572916667,140.13836451990176L25.698137330729168,139.63965439094312L25.823247408854165,139.44777087060857L26.066517005208333,139.80892658928303L26.080418124999998,140.12848231567347L26.136022604166666,140.78329840849415L26.8519302734375,140.52703980500246L27.123002109375,140.25354146280927L27.220309947916665,140.38370005839437L27.651244661458332,140.75046671618279L27.838909778645835,141.51515780596847L27.950118736979164,141.74517031079262L27.99877265625,142.01388118980174L28.33239953125,142.68160501443202L28.422756809895834,143.47980440857899L28.5200646484375,143.6700687734949L28.589570247395834,143.70253368406952L28.888444322916666,143.04124136574083L28.944048802083334,142.4375130463328L29.284626236979168,141.00238329242285L29.38193407552083,140.18487559610998L29.500093593749998,139.55277125263987L29.541796953125,139.20073960982046L29.736412630208335,139.37619760415652L30.494023658854168,139.9062724040899L30.674738216145833,140.6109943492137L30.91105725260417,141.22444283288897L30.97361229166667,141.2929733412806L31.335041406250003,140.37556856394576L31.599162682291666,139.59094111533315L32.127405234375,140.47625703211813L32.6904005859375,140.11972343885807L33.07268138020834,139.30672634654803L33.09353305989583,138.89517423797406L33.1908408984375,138.8769814762403L33.21864313802083,138.96409662482174L33.55227001302083,138.607904110499L33.60092393229167,138.65560399697512L33.906748567708334,138.99465472667396L34.11526536458333,139.7318082518105L34.51144727864583,139.77653112570889L34.713013515625,140.22816483447141L34.824222473958336,140.8422526845154L34.935431432291665,140.67698243707162L35.32466278645833,141.2694816868353L35.67914134114583,141.88095061289008L35.804251419270834,141.98641657351888L35.86680645833333,142.43637309374867L35.964114296874996,142.73357761930146L35.978015416666665,142.89556201852258L35.99886709635417,142.85115253340265L36.30469173177084,142.24176841714916L36.74257700520834,141.83256875817875L36.805132044270835,141.51080275181792L36.89548932291667,141.35042016976163L36.91634100260417,141.450252101857L36.97194548177083,141.58639734224636L37.24996787760416,141.42845381593247L37.36812739583333,141.1703031107288L37.458484674479166,141.42932024487405L37.833814908854166,141.41589978729354L38.07708450520833,141.70738607816085L38.3620574609375,142.02387771764094L38.49411809895833,142.07761885517516L39.12661904947917,140.67207899502506L39.21002576822917,140.04660128471974L39.293432486979164,140.0743300483458L39.43244368489583,140.25979804458905L39.474147044270836,140.43643262616257L39.6131582421875,140.7602595808914L39.64791104166667,141.1887404054703L39.96068623697917,141.36413654058677L40.04409295572917,141.52928198667834L40.28736255208333,141.04018455065312L40.530632148437505,141.11706458693342L40.53758270833333,141.1904233519631L40.85730846354167,141.44683866811334L40.975467981770834,141.5026570522157L40.989369101562495,141.39999423652327L41.02412190104167,141.4309812040433L41.1978858984375,141.32431183570606L41.20483645833333,141.265756363356L41.28824317708333,141.05634606337964L41.3229959765625,140.84356150495705L41.524562213541664,140.61785996431573L41.62882061197917,140.16656215840487L41.670523971354164,139.83587570983667L42.58799787760417,138.90223312340356L42.970278671875,139.006478356356L43.06758651041667,139.18339474767217L43.310856106770835,139.1370522903511L44.054566015625,138.38490829858605L44.54805576822917,136.9642065020316L44.85388040364583,135.77957003169274L45.04154552083333,134.57863431632023L45.062397200520834,133.71102674363829L45.46552967447917,134.35593911531527L45.89646438802083,135.48900961784148L46.139733984375006,135.78217500187986L46.37605302083334,135.22828963728796L46.473360859375,134.7489122750744L46.48726197916666,134.25977816284163L46.4942125390625,133.90094384675118L46.89734501302083,134.93281245897532L47.613252682291666,135.47568747619673L47.89822563802083,135.80141248652959L48.11369299479167,135.9423859534562L48.94776018229167,136.93103155389522L49.072870260416664,137.0994189297402L49.08677138020833,137.00438980899486L49.434299375,136.53346465754925L49.82353072916666,136.1147557124126L49.92778912760417,136.15762265862259L50.289218242187495,135.98183513753048L50.435179999999995,136.15411646583522L50.48383391927083,135.94705449748267L51.227543828125,133.85130962156651L51.42215950520833,132.59386269601683L51.61677518229167,131.97554838684087L51.978204296875,131.321359811723L52.409139010416666,131.40810813759367L52.48559516927084,131.42748024120232L53.09029388020833,131.50445741704146L53.131997239583335,131.62688980367713L53.30576123697917,132.00533381987998L53.34051403645833,132.21061563499254L53.55598139322917,131.78372319079236L53.84095434895833,131.89248007351543L53.93131162760417,131.96862650045387L53.945212747395836,132.02520665392151L54.508208098958335,131.67792395080204L55.147659609375,131.01207732275174L55.26581912760417,130.6071233271157L55.41178088541666,130.09184323742636L56.09293575520833,128.0399057970278L56.34315591145833,127.01569724126881L56.37095815104166,126.5209876378568L56.42656263020833,126.41477720848641L56.940904062499996,126.5198816889318L57.20502533854167,125.6734366433405L57.302333177083334,124.96950826450302L57.566454453125,123.77924362799456L57.649861171875,123.06508484608948L57.9417846875,122.62025074145026L58.41442276041666,121.60722726406993L58.476977799479165,121.24993627534025L58.49782947916667,120.87217696284068L59.026072031249996,121.07032174929864L59.03997315104167,121.28179327810889L59.41530338541667,118.66926043682196L59.6099190625,117.74983333059808L60.3397278515625,117.9769767136815L60.9652782421875,115.76052444819649L61.07648720052083,114.63760647799992L61.173795039062504,113.56084043591918L61.59777919270834,114.68478133005641L62.2580823828125,113.30594613661935L62.271983502604165,112.71827504187245L62.49440141927084,111.85917991112858L62.7585226953125,111.52889214655319L63.29371580729167,110.07810451870115L63.39797420572916,109.61609348045147L63.70379884114583,111.47922548524353L64.29459643229167,111.18655075886322L64.41275595052083,110.81488405216663L64.43360763020833,110.319576335841L64.66992666666667,110.71949977231102L64.68382778645834,111.1555157050614L64.73248170572917,111.0304478014736L64.98270186197917,112.0282989930555L65.12866361979167,112.5398713295679L65.29547705729166,112.49826121772834L65.55959833333333,111.91234093051307L65.69860953125,110.70574277054116L66.4701216796875,107.9558150177465L66.53962727864584,106.06078102748421L66.8871552734375,105.0381304042572L67.01921591145833,104.353739448609L67.10957319010416,103.24055156922738L67.15127654947916,102.93208491234284L67.241633828125,102.94306678908052L67.6378157421875,102.95510115485042L67.79767861979167,103.21284539139658L67.83243141927083,103.2966913516123L67.99924485677083,103.5920762663272L68.242514453125,103.99259943974674L68.40932789062501,104.76119093168909L69.076581640625,106.14274507893909L69.243395078125,106.18743216135834L69.6187253125,106.02907509693895L69.82029154947917,105.93950609801463L70.19562178385416,106.56108868970195L70.46669361979167,106.68351462763015L70.48754529947917,106.30493946270714L70.57095201822916,106.29564030984523L70.78641937500001,105.52215320892208L71.50927760416667,104.72039999161865L71.56488208333333,104.53888610726649L71.66914048177082,103.87446983504236L72.34334479166667,103.0564670150203L72.52405934895833,102.20621821349123L72.67697166666666,101.89213080344216L73.31642317708334,100.09161731756147L73.37202765625,98.58106257357662L73.65700061197917,97.39152947788058L74.080984765625,94.97316392367621L74.29645212239583,93.83802043390826L74.74128795572916,94.66552024350864L74.86639803385417,96.37651218765605L74.9359036328125,97.0600001188962L74.94285419270832,97.48643067436505L75.07491483072917,98.41216568141817L75.23477770833334,98.93493005342911L75.36683834635416,98.68763445652411L75.70741578125,98.05454973848028L75.77692138020834,97.30436027991207L75.79777305989585,96.86513916176862L75.90203145833334,97.14077559699919L76.13139993489584,96.67440369508542L76.8125548046875,95.61578038773371L77.05582440104166,95.74306773402995L77.3546984765625,95.83033269880514L77.39640183593751,95.57770735314163L77.86208934895834,94.81071721818756L78.05670502604167,94.87879968633435L78.126210625,95.38801873039849L78.36948022135417,96.8971496582267L78.83516773437499,95.0523198993531L79.05758565104166,94.89850000587727L79.46766868489584,95.01316145888617L79.71093828125001,92.02122045086506L79.78739444010417,89.61063987972501L79.87080115885416,88.86684588180512L79.98896067708334,88.26263052290443L80.78132450520835,88.22686970731613L81.0245941015625,86.35372215679652L81.0662974609375,85.30063420819674L81.54588609375,83.13841146035224L81.85171072916665,83.78535456851905L82.05327696614584,82.87733523632251L82.088029765625,81.9349546555405L82.1505848046875,81.15168139975081L82.77613519531249,81.90710206166165L82.796986875,82.56730680913114L82.99160255208334,81.6509066637915L83.06110815104167,80.77974341656291L83.464240625,81.79830800390783L83.70751022135417,83.01397016564472L83.93687869791667,82.52342808702957L83.9438292578125,82.00036537554257L84.3608628515625,81.348864714358L85.22273227864584,81.69864157313103L85.24358395833335,81.80503151323335L85.6328153125,81.52031196354771L85.81352986979167,80.98458684572178L85.83438154947916,81.14241389519974L85.98034330729166,80.27858588453945L86.0289972265625,79.50432126010317L86.43212970052083,78.99619225745165L86.47383305989584,78.51159285925989L86.86306441406249,78.17726299235507L86.91866889322917,77.40481933387458L88.05161015624999,76.06996935441879L88.10026407552083,75.44333612361883L88.28792919270833,74.76781606156614L88.677160546875,75.25567500023972L88.89957846354166,75.77168258803445L89.344414296875,75.02473196493004L89.3652659765625,74.66369996950414L89.50427717447916,74.98080359986655L89.55293109374999,75.03491193193015L89.73364565104167,75.64466998677602L90.22018484375,74.83960298928618L90.2827398828125,74.01345451677257L90.33139380208334,73.63757940515069L90.42175108072917,72.95457940954175L90.5746633984375,72.860655254931L90.83878467447917,71.75864022092361L91.04730147135416,71.45142995399348L91.20716434895834,73.32574928286785L91.33227442708333,75.22914104639588L91.81881361979167,77.39505360930161L92.34010561197917,76.30373994099038L92.6181280078125,74.82113610608309L92.7849414453125,72.62994336831483L93.23672783854167,69.64870390081536L93.77887151041666,69.36854508500544L93.81362430989583,68.93358942048192L93.83447598958332,68.81421510764899L94.01519054687499,67.43551276585517L94.599037578125,66.28696820075409L94.71719709635416,66.39842674189177L95.21068684895833,65.61570319620175L95.349698046875,66.52939056677829L95.39835196614584,67.16474136756098L96.18376523437499,72.78515334386141L96.2046169140625,76.12472285864933L96.350578671875,77.92695745692637L96.76066170572918,75.65346752976356L96.83016730468749,73.64127993614615L96.85796954427083,72.27603049736977L97.05953578124999,70.56915717546889L97.2889042578125,70.54712557312236L97.65033337239583,71.69938320238455L97.768492890625,71.63372272773331L97.86580072916666,70.93534232616823L97.9770096875,69.41619075900098L98.09516920572916,67.85660618138088L98.3731916015625,67.02977892724051L98.69291735677083,68.77205213793232L98.69986791666666,69.66492442146884L98.85278023437499,70.22787814531294L98.90143415364582,71.05580297924756L99.09604983072916,71.07329783697763L99.1655554296875,71.12736290206264L99.27676438802082,71.2251552055555L99.33931942708334,71.78487782181962L99.436627265625,71.66867962512677L99.70074854166666,71.14148370093243L99.72160022135417,71.26086011614238L99.9579192578125,71.51765527913932L99.98572149739583,71.41031724162721L100.145584375,70.77951392050967L100.187287734375,70.12872423553146L100.20118885416667,69.94520277486757L100.47921125,69.59545987715387L100.520914609375,69.06973829577099L100.61127188802084,69.15731956813266L100.64602468749999,68.72516097164883L101.09086052083333,68.86888211249277L101.22292115885418,68.98779039044864L101.28547619791667,68.68879672948027L101.59825139322918,67.83952385912747L101.75811427083333,68.04885227840467L101.77201539062499,67.96749697964796L101.77896595052084,68.0058221788307L102.18904898437499,69.50472449203775L103.29418800781251,70.86154288614061L103.66256768229167,70.221509765357L103.80157888020834,69.34188997598854L104.01704623697917,69.6201486222931L104.07960127604167,69.19892027501346L104.19776079427083,68.34165985731579L104.31592031250001,68.29567316987324L104.53138766927083,68.066574046812L104.88586622395833,66.15366725570513L105.0457291015625,64.13998463640084L105.14303694010417,62.62134446179094L105.65737837239583,63.403914535585685L106.44974220052083,63.5412408628403L107.11699595052083,63.58006850874608L107.15174875,64.09896501318785L107.40196890624999,65.10740994334691L107.61743626302083,66.59475324280726L108.29164057291666,65.77706724719805L108.47235513020833,66.75147028653248L108.50015736979167,67.1073746458152L108.611366328125,66.75451676277459L108.90328984375,65.50258673143652L109.34812567708333,66.9189976940978L109.36897735677083,67.84509009313386L109.48018631510418,68.24825388967689L110.14744006510418,67.09049079534459L110.51581973958334,66.39038769901791L111.17612292968751,64.48897133025434L111.99628899739584,63.702120262470515L112.19090467447916,64.56431772961648L112.60098770833334,63.31708352717419L112.71219666666666,62.45981951327717L112.9276640234375,62.01081436938081L113.4281043359375,61.62704255088404L113.56016497395832,60.612534053855256L113.85903904947916,60.35238246938498L113.99805024739584,60.96964436763608L114.40118272135416,61.084033688546654L114.51934223958334,60.58626678248271L114.70700735677083,61.52388381122641L114.85296911458333,64.00350043162392L114.93637583333334,65.2135153942846L115.04063423177084,66.38066358133487L115.06843647135416,66.7215064228206L115.18659598958334,67.31268855217868L115.43681614583333,65.84293712234913L115.71483854166667,64.50905449800007L115.94420701822916,64.7707253388992L116.70876860677083,62.72203595125494L117.07714828124999,61.90128385712991L117.10495052083334,61.39794004365747L117.24396171875,61.84205625078508L117.58453915364584,63.61166352248125L117.786105390625,63.0777067199153L118.07802890625001,63.073208481130365L118.4325074609375,63.72404841490645L118.59237033854166,64.2398136643285L119.00245337239583,64.88148853100394L119.02330505208334,65.10310925113315L119.4750914453125,65.36134297236708L119.67665768229168,65.47271297711767L119.91297671875,65.98611942914921L120.15624631510417,66.14711689721683L120.31610919270832,65.62830148927286L120.42731815104167,66.03590438599537L120.79569782552083,66.75428092693224L120.93470902343749,67.17986161176708L121.02506630208333,67.74019330842518L121.06676966145834,67.73873136967049L121.21968197916667,68.37505320919712L121.78962789062501,67.3299545869328L122.7696568359375,66.51228085997595L123.2283937890625,65.743921614224L123.27704770833333,64.88533708530873L123.33960274739584,63.6022787587536L123.45776226562499,62.02096800316758L123.541168984375,59.917595438600515L123.58287234375001,57.78418811549278L123.99295537760416,59.41783519830332L124.34048337239584,60.850055214440985L124.6671596875,60.788987972038996L124.91737984375,59.19474729419095L125.08419328125001,59.35466401043507L125.1050449609375,59.36892090147214L125.62633695312499,59.45916817480379L125.6680403125,59.23011628949766L125.87655710937501,58.70056141657719L125.9391121484375,57.865445539474564L125.96691438802083,57.021267739193306L126.00861774739583,55.839437067982615L126.6480692578125,52.46172244962371L126.65501981770834,50.783647192355346L126.710624296875,49.292094678093505L126.73842653645833,48.35904025881675L126.8565860546875,47.66850107836697L127.30142188802084,47.59728376657398L127.43348252604167,47.048060905602426L127.6698015625,45.54760743616495L127.836615,45.159270990582684L128.37180811197916,47.15919344668208L128.80969338541667,48.35914692034174L129.129419140625,49.01921097982297L129.43524377604166,48.62010937504073L129.5673044140625,49.48077381594241L130.03299192708334,49.3436336034364L130.43612440104167,48.98359654389776L130.59598727864582,48.68588116946515L131.15898263020833,50.05395972021502L131.35359830729166,49.76379096743926L131.47175782552083,49.91101287579859L131.4856589453125,49.68347017805954L131.70807686197918,49.70488144202203L131.92354421875,48.895357806206306L132.33362725260417,47.78878241866218L133.32755731770834,49.962284918914406L133.49437075520834,50.49847880985976L133.55692579427082,51.37025576876967L133.59862915364585,51.35959911649768L133.91835490885418,53.23212861756612L133.93920658854165,53.985307690465305L134.0712672265625,54.453552930929575L134.20332786458334,54.77262506347061L134.9887411328125,56.00972888423621L135.08604897135416,57.2584836505913L135.79500608072917,55.70401368278644L135.94096783854167,55.228808708282116L136.44140815104166,51.81759457931122L136.51091375000001,49.7708661019287L136.8653923046875,49.40876548259651L137.3658326171875,49.92673712675365L137.51874493489584,49.731027639352206L137.636904453125,49.84233941122929L137.95663020833334,50.38838859452903L138.19294924479166,51.876049455451664L138.64473563802082,49.68067566091371L139.02006587239583,49.74677495972429L139.20078042968748,50.83754239752176L139.23553322916666,50.9310476013173L139.72902298177084,48.258628560790385L139.97924313802085,47.86967127240419L140.31982057291665,47.89770995713994L140.75075528645834,45.34394788778306L140.75770584635416,43.90427841941863L140.99402488281248,44.02622925492642L141.09133272135415,43.77807451866346L141.38325623697918,44.59860055179303L142.54399973958334,43.685807482142536L142.75946709635417,41.716685154099224L142.9957861328125,39.554902402931305L143.41977028645834,39.90257354061694L143.48927588541665,40.99889780432059L143.7464466015625,41.17198500264195L143.80205108072917,40.99263914987242L143.975815078125,43.00358515195771L144.10092515624999,45.451875165318256L144.11482627604167,47.06789349894305L144.27468915364585,49.42627539192142L144.28163971354167,50.830411970711L144.2885902734375,51.27532493652065L144.30944195312497,51.471472134294444L144.44150259114582,50.77768261576297L144.6847721875,48.77658029605783L144.90023954427082,44.81471907043817L145.04620130208332,42.69356807556369L145.17131138020835,40.930726956553656L145.24081697916665,39.67696041427925L145.85941680989583,43.05288194643413L145.95672464843747,45.51412883545362L146.09573584635416,46.49527912950987L146.15829088541668,47.149320492842634L146.2069448046875,47.11149865838587L146.21389536458335,47.13237578570161L146.4154616015625,46.99785773648259L146.48496720052083,46.90625227241088L146.62397839843752,47.67365938816107L147.10356703124998,50.26354972835563L147.44414446614581,56.09816118795614L147.45109502604166,59.767757503319785L147.67351294270833,62.263608098840606L147.93763421875,61.713365524118075L148.70914636718751,60.47915852392471L148.88291036458332,59.80398758825058L148.90376204427085,59.20827047324781L148.96631708333334,59.749454342335866L149.16093276041667,58.380410485228L149.40420235677084,56.95446076163333L149.48760907552082,55.728554377277476L149.75868091145833,54.76971624453056L149.93244490885417,52.9962611807628L150.05060442708336,52.04655687466112L150.5232425,50.757842149511205L150.67615481770832,49.40732233635636L150.87077049479166,48.10685577129249L151.24610072916667,47.44639188168324L152.1705251953125,43.722513215510844L152.17747575520832,42.08726210786722L152.83777894531252,40.64318919737508L153.15055414062502,41.89529896482682L153.99157188802084,39.16102553274226L154.04022580729168,37.52046147349151L154.90904579427084,37.37483122885902L155.24267266927083,37.32557599279917L155.52069506510415,38.374358985853775L155.69445906250002,39.297721587989116L155.82651970052086,40.53250838003956L155.86127249999998,40.783229933184515L156.02113537760417,42.68732091326106L156.17404769531248,43.49755978428476L156.32000945312498,43.10142884307686L156.79264752604166,40.77787235805465L157.16102720052083,39.73773929805847L157.56415967447916,41.34658170796669L157.8699843098958,44.03831692592183L157.89778654947918,45.266681632228284L158.07155054687502,43.71631750266181L159.35740412760416,41.31563499340896L159.46166252604166,40.28368702631883L159.48251420572916,40.051198825617035L159.6354265234375,39.47601193546939L159.6771298828125,39.77354612143037L160.0107567578125,39.363881020401806L160.11501515625002,39.559219091695695L160.39303755208334,40.5804854673747L160.43474091145833,41.62893926250865L160.53204875,41.332162892691514L160.60850490885414,41.26302264077566L160.6710599479167,41.73347412570638L160.990785703125,39.40703682574684L161.06724186197917,38.06563930830117L161.10894522135416,36.85778242155672L161.51902825520835,36.43260841308276L161.70669337239582,38.75897976765134L161.86655625,40.81378669716685L162.3530954427083,41.28420848539747L162.50600776041665,41.83876925064354L162.73537623697916,40.71738363008865L162.85353575520833,39.65787583328907L162.90218967447916,39.41974221421623L163.1802120703125,38.59064549473314L163.27056934895833,39.09527777629452L163.30532214843748,39.40350446250147L163.3470255078125,39.23988696047863L163.3678771875,39.71900743732985L163.89611973958333,41.01946467123204L163.90307029947914,41.58189618179571L163.91697141927085,41.89212265686888L164.20889493489585,41.53364315729743L164.22974661458332,41.02990996852208L164.44521397135415,40.3137611995252L164.63287908854167,39.46471992021091L164.65373076822914,38.74289548502918L164.68848356770832,37.748843487494355L165.07771492187499,35.730965802720476L165.1819733203125,36.29023919185616L165.24452835937498,37.02337428434444L165.25842947916667,37.23451787551954L165.59900691406253,36.31554348898359L165.69631475260417,36.2379715824226L165.99518882812498,37.75992340543314L166.3079640234375,41.31992144579141L166.59293697916667,44.14213681804577L166.6832942578125,44.89872691504621L166.69024481770833,45.352680973246464L166.829256015625,44.06200991357528L166.84315713541665,43.40197600993153L166.87790993489583,42.02019899613319L166.95436609375,40.40688945946627L167.7258782421875,36.59601076496011L167.87184,34.33126866225129L168.34447807291667,35.45586822484478L168.3514286328125,35.994474116247005L168.3722803125,36.595392660666164L168.37923087239582,37.28271218706976L168.65030270833333,37.66787147164692L168.71285774739584,37.790045627504384L168.8796711848958,38.17922804131635L169.10903966145833,38.9845811503983L169.28280365885416,39.40788914621854L169.53302381510414,39.91783968420799L169.79714509114584,39.60294880094696L170.07516748697915,41.096877970096415L170.13077196614583,42.44526723803742L170.3531898828125,42.74780832490629L170.44354716145835,41.94357630541552L170.88838299479167,37.80666836156209L171.34016938802085,35.51513814884831L171.500032265625,35.32748172588501L172.083879296875,35.03516795304904L172.1047309765625,35.19743856855416L172.1394837760417,35.534433036715456L172.6051712890625,37.39226098545325L172.73028136718747,39.149604074745525L173.251573359375,39.59948651899094L173.5226451953125,41.39433656940989L173.52959575520833,42.94506348010748L174.6208336588542,45.73263800496275L174.91275717447917,48.85930687712127L174.91970773437498,50.49567610155822L175.3714941276042,50.371929070264855L175.41319748697916,50.2105424730521L175.55220868489582,49.04626278194574L175.59391204427084,48.718033595023826L175.73987380208334,49.223650427634794L175.78157716145833,48.982405142585975L176.19861075520834,48.30938038366608L176.6086937890625,44.4799342604731L176.83111170572917,42.220389497276955L176.879765625,40.723065631020916L178.36718544270835,42.96710025226042L178.54094944010416,42.35835378867594L178.63130671875,41.96587347926027L178.8189718359375,41.77395552160061L178.86762575520834,42.89507984184411L178.9440819140625,43.050371480639825L178.97883471354166,43.88967103667116L179.03443919270833,45.07946316324367L179.13174703125,44.89472222355468L179.32636270833333,44.849233001725935L179.80595134114583,42.17510836699111L179.82680302083332,40.913743937712695L180.11872653645835,40.84858499036949L180.36199613281252,40.29210666861323L180.61916684895834,39.48985011238338L181.25166779947915,40.636895015221484L181.3628767578125,41.96232095970382L182.1065866666667,44.06465428048725L182.15524058593752,45.57657685127012L182.2386473046875,47.08280856334247L182.593125859375,43.59149952540031L182.66958201822916,40.5000669515683L182.676532578125,38.470930650395616L183.30208296875,35.91369552214843L183.3229346484375,34.989325171800175L184.34466695312503,32.376057472558784L184.37246919270834,31.025943837877207L184.37941975260415,29.763843890616982L184.49757927083334,28.609012863253866L184.60183766927085,28.15574634569421L184.67134326822918,28.575446145382273L184.74779942708335,28.598528560877213L184.7825522265625,28.258377179157037L184.81730502604168,27.809211089082254L184.84510726562502,27.58328166302718L184.88681062499998,28.629538394788995L185.0536240625,30.041539917319596L185.12312966145834,31.76557193247558L185.30384421875002,32.789096507028944L185.31774533854167,33.664628464614L185.6166194140625,33.74336318998385L185.77648229166667,34.26441675056634L186.13096084635416,34.82757146522863L186.29777428385418,34.81691078027902L186.429834921875,34.56543910826656L186.52714276041667,34.13135377821115L186.75651123697918,32.525706070449814L187.54192450520836,34.143793205445974L187.88250194010416,34.096213221382044L188.30648609375,32.31400302766849L188.44549729166667,31.032277243847176L188.5219534505208,30.268689090824523L188.6609646484375,29.74518085702627L189.07799824218748,31.42437021888071L189.16835552083333,34.185546039268644L189.42552623697915,34.66588030629106L189.56453743489584,33.156852590325116L189.64099359375,33.09558731384803L190.23874174479167,34.39313833332085L190.30824734375,33.28185289557544L191.2882762890625,31.84172878399491L191.54544700520833,32.39365348602945L191.55934812499999,32.24554410953385L191.76091436197916,34.258894200658716L192.03198619791667,34.90050375672337L192.36561307291666,35.928115810411725L192.69923994791665,34.153821836570046L192.71314106770834,33.38878557583777L192.76874554687498,31.464747105155595L192.97726234375,31.366879198527528L193.13712522135418,32.39194190651136L193.23443305989585,32.34254809725718L193.63061497395833,31.991590729222708L194.29786872395832,34.841756265771295L194.6106439192708,35.23933051633628L194.63844615885418,35.2110146916377L195.05547975260416,34.562269356223624L195.3752055078125,35.300375834925575L195.5837223046875,35.498164461104096L195.73663462239583,34.75089701462818L195.7922391015625,33.42570544510505L196.230124375,30.735331291777555L196.64020740885417,30.204890251741716L196.84872420572916,31.182812902359643L197.0016365234375,31.55171950786709L197.231005,33.14004509489453L197.43257123697916,33.41227121634179L197.74534643229165,32.83493378881198L198.0164182682292,31.442866635967476L198.61416641927084,30.226397237064248L199.12155729166668,30.89072965271029L199.29532128906249,32.54739346601772L199.38567856770834,34.4291133350944L199.44823360677083,35.242267336242946L199.99732783854165,33.18135957072863L200.40741087239584,31.47100218605948L201.19977470052083,32.96635549019638L201.30403309895834,32.207936204837495L201.66546221354167,32.00340721193493L201.85312733072917,33.45462794532503L202.28406204427083,33.56289801588039L202.45782604166666,34.37398463096753L203.07642587239582,40.07805298185576L203.33359658854167,42.449386133877596L203.57686618489583,44.18806394538814L203.68807514322916,44.60496210896966L203.80623466145835,46.16217876121263L204.0912076171875,46.36672197652925L204.8418680859375,47.965357176959486L204.95307704427083,50.988629025977374L205.09903880208333,52.98776144925904L205.16159384114584,54.41598044508878L205.27280279947917,55.25657196831904L205.71068807291667,52.68929852297609L205.71763863281248,50.76225803130367L205.81494647135418,48.887137439725706L206.57950805989586,45.5727130668628L206.66986533854165,43.965287550341515L206.74632149739583,42.2329267087656L207.37187188802082,36.836587126897L207.44137748697918,33.39183102745281L207.907065,30.51894477031783L208.198988515625,29.82453576055306L209.29717697916666,29.90349234913532L209.56129825520833,30.484587052359814L209.88102401041667,30.054443708091043L209.89492513020832,30.139468053092315L210.17294752604164,30.381097213691334L210.1798980859375,30.575088100225003L210.18684864583335,30.92022009646314L210.29805760416667,31.895208980954806L210.3884148828125,33.06294060698485L210.40231600260415,34.12302773089013L211.09042143229166,33.0217555986828L212.13300541666666,32.23028579047471L212.57784125,31.178108772399327L212.619544609375,31.456313411726853L212.66124796875,31.20932733959171L212.68905020833333,31.447812120777257L212.69600076822917,31.481981574599757L213.21729276041668,33.66460283354442L213.49531515625,31.995132925336975L213.87759595052083,30.710248653564577L214.63520697916667,29.116947696307932L214.71166313802084,27.992137682350574L214.7672676171875,27.20833025908732L215.10089449218748,26.689028259869474L215.2677079296875,26.568061613937004L215.54573032552082,26.729666407965567L215.56658200520835,26.913769740362284L215.78204936197918,28.304077062629347L215.85155496093748,29.17093704943909L215.9002088802083,30.32825619939001L216.02531895833334,30.216615091892095L216.42150087239582,32.295416372405384L216.5605120703125,33.3847581805646L216.58136375,33.70070023116779L216.7273255078125,33.568944379047736L217.32507365885417,32.509581513433744L217.957574609375,30.55054824324654L217.97147572916666,29.46226873711379L218.19389364583333,29.9965627380991L218.31900372395833,30.033936811842352L220.28601217447917,35.714914769835275L220.46672673177082,37.598580960759335L220.7725513671875,36.25077901327953L221.15483216145833,36.58034615928233L221.585766875,35.895808027976244L221.67612415364582,33.80766876735666L222.3155756640625,32.66371078095935L222.51714190104167,31.10594804966786L222.78821373697917,31.609074693870724L223.24000013020833,32.128797665255746L224.7343705078125,33.85118745488509L225.28346473958334,32.123421494866136L225.464179296875,29.638083001336753L225.61709161458333,28.419187597526815L225.74915225260418,30.05692644730064L225.88816345052084,32.4936959919531L225.92291625,34.50037310335995L226.03412520833334,36.05837604613555L226.11753192708332,36.91148882817714L226.22874088541667,37.93529213348231L226.41640600260416,37.264281476566254L226.88904407552084,37.00872356311072L227.22962151041668,34.75317309801517L227.31997878906247,33.753843649974954L227.37558326822918,31.879843820506295L227.63970454427084,30.869812654984088L228.03588645833335,29.35428726058359L228.53632677083334,28.815310651685195L228.76569524739585,27.778479862127398L228.81434916666666,27.59207120303367L228.87690420572918,27.398537023953594L229.22443220052085,28.104782755613144L229.24528388020832,29.013237554509715L229.39124563802082,29.934096378859664L229.47465235677083,30.415813169300492L229.60671299479165,29.55570444961964L229.7387736328125,28.903485371657325L230.68404977864583,28.887935714806304L231.24704513020833,30.637715441241028L231.25399569010415,31.355367560079657L231.4903147265625,30.04863442483233L231.62237536458335,31.121734999663516L231.94210111979166,30.9595627470938L232.44254143229165,29.27743078696571L232.47729423177083,28.246366496893984L232.6580087890625,27.78021956572954L232.97773454427085,27.685702798444623L233.08199294270833,29.556927543136766L233.39476813802082,29.530527751092393L233.65193885416664,31.633241389612806L233.9508129296875,30.47677593540527L234.08982412760415,28.818925105263588L234.13152748697917,28.254461259635036L234.221884765625,28.12273945766654L234.41650044270833,26.682167914946973L234.71537451822917,23.677486361573358L234.9933969140625,23.862524414412462L235.3687271484375,26.72929976264234L235.45908442708335,28.683549753168364L235.63284842447916,30.994343906888986L235.68150234375,31.841652331776146L235.70930458333333,32.567884371571694L236.39741001302085,32.366424592669574L236.41826169270834,32.50696178309573L236.57117401041666,34.43208675660625L236.6962840885417,34.11669770919963L236.91870200520833,35.83361812690947L237.34963671875002,35.573030420166134L237.4469445572917,35.69988012296807L237.56510407552082,36.95235701477392L237.57205463541666,37.53501371025408L237.86397815104166,37.99353329751662L238.55208358072917,34.080551412554456L238.73974869791664,31.672854256862593L239.75453044270833,31.627897335705597L240.1229101171875,28.823385552490038L240.8735705859375,28.68738418042733L240.95002674479167,28.83996813877772L241.80494561197918,27.439273523365785L242.2150286458333,27.86236428022289L242.47219936197916,29.3034804390021L242.61816111979167,31.513350799083355L242.8753318359375,30.704381704660364L243.12555199218752,29.549121496691953L243.13250255208334,29.460488781240826L243.30626654947918,29.102325866212936L243.73720126302084,28.075948202457653L243.77890462239586,27.98295187482495L243.88316302083334,28.624265260824956L244.230691015625,29.978468012226642L244.41140557291666,32.16886592133088L244.52956509114586,32.78599763929944L244.68942796875,31.097631181048115L245.00915372395832,31.598641410514375L245.46094011718748,32.32404688338045L245.5095940364583,33.407383804419794L245.56519851562499,34.22621539664675L245.898825390625,32.26129780394359L245.9613804296875,31.948287870504686L246.3714634635417,32.936848980566054L246.46182074218748,34.2706629020866L247.46965192708333,30.882857617679264L247.55305864583332,28.80660837413069L247.78242712239583,25.997811178324582L247.79632824218749,24.247177518856233L248.07435063802083,23.937474578658993L248.52613703125002,26.54008507960225L249.04047846354166,28.934912253816037L249.36715477864584,29.66925421358019L249.61737493489585,28.726535813905315L249.818941171875,26.232965813951665L250.02050740885417,25.55919420817267L250.1108646875,26.609053324407796L250.1317163671875,26.60721710863956L250.5904533203125,28.36522074463835L250.61130500000002,28.848179265442866L250.91017907552083,28.811185978173484L251.18125091145833,27.318525974298893L251.2507565104167,26.12339400348708L251.27160819010416,25.591482057328108L251.63998786458333,23.71473455722588L252.4254011328125,23.204104101034744L252.43930225260416,22.892278510049948L252.55746177083336,23.146320287370088L252.6061156901042,23.07000788944427L252.61306625,22.773697872376005L252.66172016927084,22.928127579157263L253.1135065625,27.040045445856748L253.14130880208333,29.681472922749947L253.30812223958333,29.360175562731996L253.3915289583333,27.538998310145217L253.48188623697916,26.032383102861445L253.53054015625,25.193769320475894L254.09353550781248,29.466876145883788L254.322903984375,29.966647434825973L254.35070622395835,30.92549432496557L254.53837134114582,30.956187074433956L254.5522724609375,30.762203056521884L255.01795997395834,30.640369483590092L255.05966333333333,30.81234460087373L255.1778228515625,30.93186746796863L255.66436204427083,28.340412289863224L255.73386764322916,26.14289286295039L255.85202716145835,25.407119502137704L255.90068108072919,24.197749953986943L255.92153276041665,23.630067185245224L256.0188405989583,23.26222509273518L256.0952967578125,23.292042415541943L257.04057290364585,23.162888483617536L257.2977436197917,24.51773309017051L257.68002441406253,24.85682297365608L257.72867833333333,25.14741735972703L258.1804647265625,25.425252244073903L258.35422872395833,25.66275167885118L258.4167837630208,26.328081610338074L258.5001904817708,26.53666501563191L258.63225111979165,27.375259883026985L258.7504106380208,26.195557259443603L258.85466903645835,25.188195561720846L259.12574087239585,22.78654611182219L259.20914759114584,23.08288084843346L259.3829115885417,22.57446514236088L259.59142838541663,25.014277755789124L259.6400823046875,25.4869654900495L260.04321477864585,27.6331659038554L260.1196709375,27.60291376350466L260.36294053385416,27.454055950410492L260.495001171875,26.705757145779643L260.5436550911458,25.287363143199457L260.8633808463542,22.622756513661557L261.03019428385414,20.751684843631125L261.2248099609375,21.181194856749585L261.245661640625,21.51514668605995L261.48893123697917,20.844133999278682L261.9615693098958,20.283587427061207L262.13533330729166,20.86766081335813L262.37165234375,22.37268680126607L262.39250402343754,23.836659730436622L262.75393313802084,25.608212386301318L262.76088369791665,26.31714314880304L262.81648817708333,26.758839403028816L262.9068454557292,28.733949130849766L263.28912625,29.243693054043234L263.4767913671875,28.3568303860242L263.63665424479166,28.777789708289674" style="fill: none;" fill="none"></path></g></g></g></g><g opacity="0.2"><g><g><g><path stroke="rgb(255, 112, 67)" stroke-width="2px" d="M24.21766807291667,140.50320509213668L24.238519752604166,140.69230758410234L24.419234309895835,140.32224851571596L24.579097187499997,140.42412602167863L25.023933020833333,141.9267689191378L25.086488059895835,141.73615371630743L25.5174227734375,139.789153950031L25.552175572916667,139.29899992209215L25.698137330729168,138.90415382018455L25.823247408854165,139.16284620578472L26.066517005208333,140.34738451150747L26.080418124999998,140.60607689710764L26.136022604166666,141.7633844595689L26.8519302734375,140.14315393704635L27.123002109375,139.84361543655396L27.220309947916665,140.57884615384614L27.651244661458332,141.3004614995076L27.838909778645835,142.66200028566215L27.950118736979164,142.09015402793884L27.99877265625,142.41692294707664L28.33239953125,143.68315413181597L28.422756809895834,144.67707723470835L28.5200646484375,143.95546156443083L28.589570247395834,143.75123066535363L28.888444322916666,142.04930758843057L28.944048802083334,141.53192314184628L29.284626236979168,138.8496923336616L29.38193407552083,138.95861530670754L29.500093593749998,138.6046153196922L29.541796953125,138.6726923401539L29.736412630208335,139.63938453747676L30.494023658854168,140.70138449852283L30.674738216145833,141.66807718276976L30.91105725260417,142.1446155144618L30.97361229166667,141.3957691009228L31.335041406250003,138.99946142159976L31.599162682291666,138.41399995455376L32.127405234375,141.8042308990772L32.6904005859375,139.5849230509538L33.07268138020834,138.08723071079987L33.09353305989583,138.2778460759383L33.1908408984375,138.8496923336616L33.21864313802083,139.09476934763103L33.55227001302083,138.07361533916912L33.60092393229167,138.7271538266769L33.906748567708334,139.50323082116932L34.11526536458333,140.8375385394463L34.51144727864583,139.84361543655396L34.713013515625,140.90561539760003L34.824222473958336,141.7633844595689L34.935431432291665,140.429077065908L35.32466278645833,142.1582305614765L35.67914134114583,142.79815400196955L35.804251419270834,142.1446155144618L35.86680645833333,143.1113078740927L35.964114296874996,143.17938440763032L35.978015416666665,143.1385386173542L35.99886709635417,142.78453830572275L36.30469173177084,141.3276922427691L36.74257700520834,141.21876926972317L36.805132044270835,141.02815374227671L36.89548932291667,141.10984629667723L36.91634100260417,141.6L36.97194548177083,141.7906152028304L37.24996787760416,141.19153852646167L37.36812739583333,140.78307705292335L37.458484674479166,141.81784594609186L37.833814908854166,141.3957691009228L38.07708450520833,142.1446155144618L38.3620574609375,142.4986151768611L38.49411809895833,142.1582305614765L39.12661904947917,138.56376920479994L39.21002576822917,139.10838471926175L39.293432486979164,140.11592319378485L39.43244368489583,140.53800003895392L39.474147044270836,140.70138449852283L39.6131582421875,141.24600001298464L39.64791104166667,141.8314616423387L39.96068623697917,141.6272307432615L40.04409295572917,141.7770001558157L40.28736255208333,140.30653839661525L40.530632148437505,141.2323846413539L40.53758270833333,141.3004614995076L40.85730846354167,141.8314616423387L40.975467981770834,141.58638462836927L40.989369101562495,141.24600001298464L41.02412190104167,141.4774616553233L41.1978858984375,141.1643077832002L41.20483645833333,141.17792315483092L41.28824317708333,140.74223061341505L41.3229959765625,140.52438466732318L41.524562213541664,140.27930765335375L41.62882061197917,139.4896154495386L41.670523971354164,139.33984603698437L42.58799787760417,137.50176924375387L42.970278671875,139.16284620578472L43.06758651041667,139.44876933464639L43.310856106770835,139.06753860436953L44.054566015625,137.25669231093846L44.54805576822917,134.83315380719992L44.85388040364583,134.0026153261845L45.04154552083333,132.7772307432615L45.062397200520834,132.4096153846154L45.46552967447917,135.32330767283074L45.89646438802083,137.18861537163073L46.139733984375006,136.2219230779375L46.37605302083334,134.3974615904001L46.473360859375,134.02984623175402L46.48726197916666,133.52607699449246L46.4942125390625,133.36269237261553L46.89734501302083,136.48061537731152L47.613252682291666,136.29000000202885L47.89822563802083,136.29000000202885L48.11369299479167,136.15384615384616L48.94776018229167,138.41399995455376L49.072870260416664,137.3519999935077L49.08677138020833,136.86184612787687L49.434299375,135.82707693038077L49.82353072916666,135.48669229470767L49.92778912760417,136.2219230779375L50.289218242187495,135.71815385589233L50.435179999999995,136.4125384582923L50.48383391927083,135.63646154495387L51.227543828125,130.7076923076923L51.42215950520833,130.7076923076923L51.61677518229167,131.0480769230769L51.978204296875,130.3400769490462L52.409139010416666,131.5382306263997L52.48559516927084,131.45653839661526L53.09029388020833,131.6199231808002L53.131997239583335,131.81053838363061L53.30576123697917,132.5729998441843L53.34051403645833,132.51853835766133L53.55598139322917,131.14338452449212L53.84095434895833,132.05561539760004L53.93131162760417,132.0828461408615L53.945212747395836,132.110076884123L54.508208098958335,131.15699989612287L55.147659609375,130.01330738067628L55.26581912760417,129.99969233366159L55.41178088541666,129.31892310289237L56.09293575520833,124.96199963643001L56.34315591145833,125.47938440763033L56.37095815104166,125.77892323273878L56.42656263020833,126.25546156443082L56.940904062499996,126.67753840959989L57.20502533854167,124.40376907495352L57.302333177083334,123.91361569624681L57.566454453125,121.99384667323186L57.649861171875,121.99384667323186L57.9417846875,121.95299958449144L58.41442276041666,120.08769204799945L58.476977799479165,120.71399979224572L58.49782947916667,120.30553799409132L59.026072031249996,121.3675389289856L59.03997315104167,121.59900057132428L59.41530338541667,114.75046117489154L59.6099190625,116.3706926712623L60.3397278515625,118.3176917883066L60.9652782421875,112.43584604996902L61.07648720052083,112.95322952270507L61.173795039062504,111.94569137279804L61.59777919270834,116.3706926712623L62.2580823828125,111.23769334646371L62.271983502604165,111.8367683997521L62.49440141927084,110.57053721501276L62.7585226953125,111.03346049969012L63.29371580729167,107.90192307692308L63.39797420572916,108.92307692307692L63.70379884114583,114.27392349243163L64.29459643229167,110.74753866929274L64.41275595052083,110.25738399212177L64.43360763020833,109.57661476135254L64.66992666666667,111.31938492701605L64.68382778645834,111.80953960418701L64.73248170572917,110.84284594609187L64.98270186197917,113.52507578042838L65.12866361979167,113.30722983433651L65.29547705729166,112.43584604996902L65.55959833333333,111.03346049969012L65.69860953125,108.89584553058332L66.4701216796875,103.8309233885545L66.53962727864584,103.21823004209078L66.8871552734375,103.50415446941669L67.01921591145833,103.32715301513672L67.10957319010416,101.57076975015494L67.15127654947916,102.46938492701604L67.241633828125,102.95953960418701L67.6378157421875,102.97315270350529L67.79767861979167,103.59946174621582L67.83243141927083,103.42246029193585L67.99924485677083,104.03515363839956L68.242514453125,104.59338419987606L68.40932789062501,105.91407816960262L69.076581640625,108.21507629981407L69.243395078125,106.25446278498723L69.6187253125,105.79153950030987L69.82029154947917,105.80515259962816L70.19562178385416,107.49346257723295L70.46669361979167,106.86715353452242L70.48754529947917,105.73707671532264L70.57095201822916,106.28169158055232L70.78641937500001,104.36192255753737L71.50927760416667,103.5177701656635L71.56488208333333,104.26661528073824L71.66914048177082,102.87784542670617L72.34334479166667,101.82946278498723L72.52405934895833,100.9308450111976L72.67697166666666,101.42099968836857L73.31642317708334,97.39084708874041L73.37202765625,96.31523045759934L73.65700061197917,95.6072298343365L74.080984765625,91.34561559236967L74.29645212239583,92.13530519925631L74.74128795572916,95.90676995790922L74.86639803385417,98.94300010387714L74.9359036328125,98.08523201575646L74.94285419270832,98.12607650756836L75.07491483072917,99.80076819199782L75.23477770833334,99.7190766114455L75.36683834635416,98.31669106116662L75.70741578125,97.1049226614145L75.77692138020834,96.1790760920598L75.79777305989585,96.2063074845534L75.90203145833334,97.55423024984506L76.13139993489584,95.97484584221473L76.8125548046875,94.02784542670616L77.05582440104166,95.93399875347431L77.3546984765625,95.96123014596793L77.39640183593751,95.19876933464637L77.86208934895834,93.66023201575646L78.05670502604167,94.9809233885545L78.126210625,96.15184729649471L78.36948022135417,99.16084604996901L78.83516773437499,92.28507526104266L79.05758565104166,94.6677701656635L79.46766868489584,95.18515363839956L79.71093828125001,87.53330893883339L79.78739444010417,85.99476902301495L79.87080115885416,87.75115488492526L79.98896067708334,87.3563074845534L80.78132450520835,88.17322848393367L81.0245941015625,83.54400083101713L81.0662974609375,83.72100228529709L81.54588609375,79.89507733858548L81.85171072916665,84.75576923076922L82.05327696614584,81.5153062380277L82.088029765625,80.5213837843675L82.1505848046875,79.97677151606634L82.77613519531249,83.04023305452786L82.796986875,83.55761393033542L82.99160255208334,80.27630644578201L83.06110815104167,79.47299854572003L83.464240625,83.32615488492524L83.70751022135417,84.83746340825009L83.93687869791667,81.78761496910683L83.9438292578125,81.21577130831204L84.3608628515625,80.37161372258113L85.22273227864584,82.22330686129057L85.24358395833335,81.96461642338679L85.6328153125,81.0932326390193L85.81352986979167,80.18099916898288L85.83438154947916,81.37915446941669L85.98034330729166,78.98284386854905L86.0289972265625,78.34292432344877L86.43212970052083,78.2339987534743L86.47383305989584,77.78469376197228L86.86306441406249,77.67576819199783L86.91866889322917,76.24615384615385L88.05161015624999,74.06769438523513L88.10026407552083,74.50338627741887L88.28792919270833,73.75453596848709L88.677160546875,75.98746340825008L88.89957846354166,76.54569396972657L89.344414296875,73.90430603027345L89.3652659765625,74.1221519763653L89.50427717447916,75.45645904541016L89.55293109374999,75.11607443002555L89.73364565104167,76.55930706904483L90.22018484375,73.63200249305139L90.2827398828125,72.77423180800218L90.33139380208334,73.07376673771786L90.42175108072917,71.93007941612831L90.5746633984375,72.71976902301496L90.83878467447917,70.10561766991249L91.04730147135416,70.99061455359826L91.20716434895834,76.13722827617939L91.33227442708333,78.08422869168794L91.81881361979167,80.64392245366022L92.34010561197917,74.66676943852352L92.6181280078125,72.5972303537222L92.7849414453125,69.3431542616624L93.23672783854167,65.17684469956617L93.77887151041666,68.94830686129058L93.81362430989583,68.28115592369666L93.83447598958332,68.63515363839957L94.01519054687499,65.36745925316444L94.599037578125,64.56415135310246L94.71719709635416,66.56561455359825L95.21068684895833,64.44161787766676L95.349698046875,67.8999216226431L95.39835196614584,68.11776756873499L96.18376523437499,81.21577130831204L96.2046169140625,81.1340771308312L96.350578671875,80.63030935434195L96.76066170572918,72.2432326390193L96.83016730468749,70.62299854572002L96.85796954427083,70.22815633920523L97.05953578124999,68.00884719261757L97.2889042578125,70.51407816960263L97.65033337239583,73.4277696462778L97.768492890625,71.53523201575646L97.86580072916666,69.8877717238206L97.9770096875,67.13746340825007L98.09516920572916,65.51722931495081L98.3731916015625,65.7895380460299L98.69291735677083,71.38546195397011L98.69986791666666,71.00423284677359L98.85278023437499,71.0723087310791L98.90143415364582,72.29769023014948L99.09604983072916,71.09954012357272L99.1655554296875,71.20846049969013L99.27676438802082,71.37184366079477L99.33931942708334,72.62446174621583L99.436627265625,71.49438233008752L99.70074854166666,70.35068981464093L99.72160022135417,71.43992473895734L99.9579192578125,71.90284802363469L99.98572149739583,71.24931018535908L100.145584375,69.83330893883337L100.187287734375,69.15253970806414L100.20118885416667,69.6699205838717L100.47921125,69.07084553058331L100.520914609375,68.28115592369666L100.61127188802084,69.28869147667518L100.64602468749999,68.07692307692307L101.09086052083333,69.08446382375864L101.22292115885418,69.16615280738243L101.28547619791667,68.24030623802771L101.59825139322918,66.56561455359825L101.75811427083333,68.36284490732046L101.77201539062499,67.84546403151292L101.77896595052084,68.06330997760479L102.18904898437499,71.75307796184832L103.29418800781251,72.89677047729492L103.66256768229167,69.26146008418156L103.80157888020834,68.02246029193584L104.01704623697917,70.03753659174991L104.07960127604167,68.56707775409404L104.19776079427083,67.05576923076923L104.31592031250001,68.22669313870944L104.53138766927083,67.72292536222017L104.88586622395833,63.28430706904484L105.0457291015625,61.119460707444404L105.14303694010417,60.343384199876056L105.65737837239583,64.5777696462778L106.44974220052083,63.747230353722216L107.11699595052083,63.638309977604806L107.15174875,64.8773097698505L107.40196890624999,66.62007733858549L107.61743626302083,68.82576819199782L108.29164057291666,64.55053825378418L108.47235513020833,68.21307484553411L108.50015736979167,67.64123118473933L108.611366328125,66.22522993821364L108.90328984375,63.624691684429465L109.34812567708333,69.0436141380897L109.36897735677083,69.23422869168796L109.48018631510418,68.85299958449144L110.14744006510418,65.35384615384616L110.51581973958334,65.34023305452787L111.17612292968751,61.636846777109014L111.99628899739584,62.52184366079477L112.19090467447916,65.85761393033542L112.60098770833334,61.446232223510734L112.71219666666666,61.17392349243164L112.9276640234375,61.33730665353629L113.4281043359375,61.0513848231389L113.56016497395832,59.09077130831204L113.85903904947916,59.96215509267954L113.99805024739584,61.895537215012766L114.40118272135416,61.25561766991248L114.51934223958334,59.839616423386786L114.70700735677083,62.930309354341944L114.85296911458333,67.72292536222017L114.93637583333334,67.02853783827562L115.04063423177084,68.1313858619103L115.06843647135416,67.23277068504919L115.18659598958334,68.19946174621582L115.43681614583333,63.638309977604806L115.71483854166667,62.508230561476495L115.94420701822916,65.1632316002479L116.70876860677083,59.649001869788535L117.07714828124999,60.670155715942386L117.10495052083334,60.64292432344877L117.24396171875,62.508230561476495L117.58453915364584,66.26607443002554L117.786105390625,62.27677151606632L118.07802890625001,63.06646112295297L118.4325074609375,64.70030831557054L118.59237033854166,65.01346153846154L119.00245337239583,65.84400083101713L119.02330505208334,65.43554033132699L119.4750914453125,65.74869355421801L119.67665768229168,65.63976798424353L119.91297671875,66.7562291071965L120.15624631510417,66.38861309931829L120.31610919270832,64.8500783773569L120.42731815104167,66.6473087310791L120.79569782552083,67.83184573833758L120.93470902343749,67.8182326390193L121.02506630208333,68.58069085341234L121.06676966145834,67.73653846153846L121.21968197916667,69.32953596848708L121.78962789062501,65.76230665353629L122.7696568359375,65.28577026954063L123.2283937890625,64.59138274559606L123.27704770833333,63.59746029193586L123.33960274739584,61.677691268920896L123.45776226562499,59.649001869788535L123.541168984375,56.76253659174992L123.58287234375001,54.584077130831204L123.99295537760416,61.86830582251916L124.34048337239584,62.99838523864746L124.6671596875,60.697387108436004L124.91737984375,56.803386277418866L125.08419328125001,59.5945390848013L125.1050449609375,59.390306238027705L125.62633695312499,59.5945390848013L125.6680403125,58.886538461538464L125.87655710937501,57.90622910719652L125.9391121484375,56.612771723820615L125.96691438802083,55.7550010387714L126.00861774739583,54.06669106116662L126.6480692578125,47.395150522085345L126.65501981770834,48.266534306452826L126.710624296875,47.05476590670071L126.73842653645833,46.959458629901604L126.8565860546875,46.63269230769231L127.30142188802084,47.49045779888445L127.43348252604167,46.224226614145124L127.6698015625,43.2969272320087L127.836615,44.57676632220927L128.37180811197916,50.15907713083121L128.80969338541667,50.15907713083121L129.129419140625,50.00930706904485L129.43524377604166,48.02145696786732L129.5673044140625,50.77177047729492L130.03299192708334,49.137923284677356L130.43612440104167,48.44354095458985L130.59598727864582,48.23930810781627L131.15898263020833,52.106077546339776L131.35359830729166,49.32853783827562L131.47175782552083,50.13184573833759L131.4856589453125,49.34215613145095L131.70807686197918,49.736998337965744L131.92354421875,47.681072352482715L132.33362725260417,46.12891933734602L133.32755731770834,53.222538669292746L133.49437075520834,51.302769646277795L133.55692579427082,52.67792120713453L133.59862915364585,51.34361413808969L133.91835490885418,56.040922869168796L133.93920658854165,55.11507629981409L134.0712672265625,55.155920791625974L134.20332786458334,55.251233262282156L134.9887411328125,57.86538461538461L135.08604897135416,59.13161580012395L135.79500608072917,53.3723087310791L135.94096783854167,54.516001246525704L136.44140815104166,46.70077338585486L136.51091375000001,46.70077338585486L136.8653923046875,48.86561455359825L137.3658326171875,50.70369459298941L137.51874493489584,49.43746340825007L137.636904453125,50.00930706904485L137.95663020833334,51.20746236947866L138.19294924479166,54.10754074683557L138.64473563802082,46.38761496910681L139.02006587239583,49.845923907940204L139.20078042968748,52.47369355421799L139.23553322916666,51.071305407010584L139.72902298177084,44.25L139.97924313802085,47.28623533982497L140.31982057291665,47.93976798424353L140.75075528645834,41.51330478374774L140.75770584635416,41.744774216872L140.99402488281248,44.209155508188104L141.09133272135415,43.405842414269074L141.38325623697918,45.82938960148738L142.54399973958334,42.31661787766677L142.75946709635417,38.76300166203427L142.9957861328125,36.31222827617938L143.41977028645834,40.42408024714544L143.48927588541665,42.64338419987607L143.7464466015625,41.43161580012395L143.80205108072917,40.72362037071815L143.975815078125,46.020004155085644L144.10092515624999,49.12431018535908L144.11482627604167,49.491920999380255L144.27468915364585,52.963848231388965L144.28163971354167,52.93661683889536L144.2885902734375,51.94269438523513L144.30944195312497,51.765692930955154L144.44150259114582,49.736998337965744L144.6847721875,45.77492681650017L144.90023954427082,38.871927232008716L145.04620130208332,39.511841583251964L145.17131138020835,38.286465278038605L145.24081697916665,37.79631060086763L145.85941680989583,48.116764244666456L145.95672464843747,49.20599916898287L146.09573584635416,47.96700457059421L146.15829088541668,48.1303825378418L146.2069448046875,47.05476590670071L146.21389536458335,47.16369147667518L146.4154616015625,46.79608066265399L146.48496720052083,46.76884407630334L146.62397839843752,48.82477006178635L147.10356703124998,54.148385238647464L147.44414446614581,64.8500783773569L147.45109502604166,65.27215197636532L147.67351294270833,66.00738399212177L147.93763421875,60.888001662034256L148.70914636718751,58.6278480236347L148.88291036458332,58.791231184739345L148.90376204427085,58.31469480074368L148.96631708333334,60.561230145967926L149.16093276041667,56.32684469956618L149.40420235677084,54.815536176241366L149.48760907552082,53.88969480074368L149.75868091145833,53.331459045410156L149.93244490885417,50.33607858511118L150.05060442708336,50.622000415508566L150.5232425,48.82477006178635L150.67615481770832,47.3815426166241L150.87077049479166,46.15615592369667L151.24610072916667,46.455696047269385L152.1705251953125,38.136695216252235L152.17747575520832,39.63438544640175L152.83777894531252,38.47707983163687L153.15055414062502,43.77346361600436L153.99157188802084,35.05961538461537L154.04022580729168,35.05961538461537L154.90904579427084,37.15638586191031L155.24267266927083,37.25169313870944L155.52069506510415,39.947533475435705L155.69445906250002,40.68276549119216L155.82651970052086,42.38468856811522L155.86127249999998,41.15931226290189L156.02113537760417,45.54345738337591L156.17404769531248,44.712918090820324L156.32000945312498,42.50723243126501L156.79264752604166,37.29253763052134L157.16102720052083,38.17753970806416L157.56415967447916,43.75984532282902L157.8699843098958,48.07591975285456L157.89778654947918,47.109228691687946L158.07155054687502,41.390771308312054L159.35740412760416,37.71461122952974L159.46166252604166,38.73576507568359L159.48251420572916,39.7024665245643L159.6354265234375,38.6132316002479L159.6771298828125,40.21984740037183L160.0107567578125,38.74938336885893L160.11501515625002,39.85222619863657L160.39303755208334,42.11238503089319L160.43474091145833,43.201619955209594L160.53204875,40.886998337965764L160.60850490885414,41.15931226290189L160.6710599479167,42.43915135310246L160.990785703125,35.91738087580754L161.06724186197917,36.053543032132666L161.10894522135416,35.04599709144006L161.51902825520835,35.79484740037185L161.70669337239582,42.24853679950422L161.86655625,43.89599709144005L162.3530954427083,41.98984116774338L162.50600776041665,42.67061039851262L162.73537623697916,39.0353051992563L162.85353575520833,38.068614138089686L162.90218967447916,39.06254178560698L163.1802120703125,37.347000415508575L163.27056934895833,39.85222619863657L163.30532214843748,39.865844491811885L163.3470255078125,38.994460707444404L163.3678771875,40.43768815260668L163.89611973958333,42.97015052208533L163.90307029947914,42.42554344764122L163.91697141927085,42.35746236947867L164.20889493489585,40.99592390794021L164.22974661458332,40.27431018535907L164.44521397135415,39.23953804602991L164.63287908854167,38.19115800123947L164.65373076822914,37.6601588322566L164.68848356770832,36.257765491192146L165.07771492187499,32.704149275559644L165.1819733203125,37.12914927555963L165.24452835937498,38.12307692307692L165.25842947916667,37.55123326228215L165.59900691406253,34.93708190917968L165.69631475260417,36.121613722581145L165.99518882812498,40.04285113994894L166.3079640234375,46.659918506328864L166.59293697916667,48.37545987642727L166.6832942578125,46.033612060546886L166.69024481770833,46.033612060546886L166.829256015625,42.126003324068506L166.84315713541665,42.41192515446588L166.87790993489583,39.947533475435705L166.95436609375,37.986925154465894L167.7258782421875,30.87969272320089L167.87184,30.9341555081881L168.34447807291667,37.14276756873497L168.3514286328125,36.80238295335036L168.3722803125,37.496770477294916L168.37923087239582,38.31369147667519L168.65030270833333,38.24561039851264L168.71285774739584,37.97330686129055L168.8796711848958,38.76300166203427L169.10903966145833,40.19261081402118L169.28280365885416,40.04285113994894L169.53302381510414,40.68276549119216L169.79714509114584,39.13061247605543L170.07516748697915,43.337771723820595L170.13077196614583,44.46785113994892L170.3531898828125,43.201619955209594L170.44354716145835,40.737228276179394L170.88838299479167,31.601306445782L171.34016938802085,32.07784282977764L171.500032265625,35.04599709144006L172.083879296875,34.596697293795074L172.1047309765625,35.4408444918119L172.1394837760417,36.039924738957325L172.6051712890625,40.17900290855994L172.73028136718747,41.7856187086839L173.251573359375,40.27431018535907L173.5226451953125,44.08661164503832L173.52959575520833,45.27115384615385L174.6208336588542,49.91399979224573L174.91275717447917,53.54931018535906L174.91970773437498,52.95022993821365L175.3714941276042,50.186308523324826L175.41319748697916,49.96846257723294L175.55220868489582,47.29984324528621L175.59391204427084,48.22568981464093L175.73987380208334,49.98207567655123L175.78157716145833,48.620537215012774L176.19861075520834,47.29984324528621L176.6086937890625,38.73576507568359L176.83111170572917,38.83107235248272L176.879765625,38.47707983163687L178.36718544270835,46.3331521841196L178.54094944010416,41.44523409329929L178.63130671875,41.37715301513671L178.8189718359375,41.48607858511116L178.86762575520834,44.57676632220927L178.9440819140625,43.283308938833386L178.97883471354166,45.148620370718135L179.03443919270833,46.86415135310247L179.13174703125,44.61761081402119L179.32636270833333,44.78099916898287L179.80595134114583,38.16392141488882L179.82680302083332,39.02169729379506L180.11872653645835,40.75084656935471L180.36199613281252,39.4573891859788L180.61916684895834,38.286465278038605L181.25166779947915,42.35746236947867L181.3628767578125,43.95045987642729L182.1065866666667,47.21815426166239L182.15524058593752,47.844460707444426L182.2386473046875,49.34215613145095L182.593125859375,38.354535968487085L182.66958201822916,35.8629180908203L182.676532578125,35.42722619863656L183.30208296875,32.07784282977764L183.3229346484375,33.60276964627781L184.34466695312503,28.456155923696656L184.37246919270834,29.00077338585487L184.37941975260415,27.870693969726574L184.49757927083334,26.876766322209278L184.60183766927085,27.47584656935473L184.67134326822918,29.20499584491438L184.74779942708335,28.63315218411958L184.7825522265625,27.748150106576787L184.81730502604168,27.135461953970093L184.84510726562502,27.244387523944567L184.88681062499998,30.198923492431646L185.0536240625,32.15954220111553L185.12312966145834,34.3516199552096L185.30384421875002,34.32438336885892L185.31774533854167,34.97792640099158L185.6166194140625,33.86146527803862L185.77648229166667,35.04599709144006L186.13096084635416,35.672303537222064L186.29777428385418,34.80091975285458L186.429834921875,34.18823160024789L186.52714276041667,33.48022578312802L186.75651123697918,30.117234508807854L187.54192450520836,36.5709239079402L187.88250194010416,34.024843245286206L188.30648609375,29.64068773709812L188.44549729166667,29.109688568115246L188.5219534505208,29.12330686129056L188.6609646484375,28.959918506328876L189.07799824218748,33.943154261662414L189.16835552083333,38.32730976985053L189.42552623697915,35.386381706824665L189.56453743489584,30.893311016376202L189.64099359375,33.003689399132355L190.23874174479167,36.339464862530036L190.30824734375,31.614924738957313L191.2882762890625,29.681542616624114L191.54544700520833,33.221540539081275L191.55934812499999,32.0233800447904L191.76091436197916,37.278919337346L192.03198619791667,35.8629180908203L192.36561307291666,37.46953389094426L192.69923994791665,31.492380875807527L192.71314106770834,32.24123118473935L192.76874554687498,28.578689399132372L192.97726234375,31.220077338585497L193.13712522135418,33.92953596848707L193.23443305989585,32.2684573833759L193.63061497395833,31.465154677170972L194.29786872395832,39.11700457059419L194.6106439192708,35.835691892183746L194.63844615885418,35.168540954589844L195.05547975260416,33.589151353102466L195.3752055078125,36.407535552978516L195.5837223046875,35.79484740037185L195.73663462239583,33.62999584491436L195.7922391015625,31.437918090820318L196.230124375,26.699770061786353L196.64020740885417,29.409228691687957L196.84872420572916,32.649696878286505L197.0016365234375,32.10507941612829L197.231005,35.522533475435694L197.43257123697916,33.82061039851263L197.74534643229165,31.968927647517262L198.0164182682292,29.35476590670072L198.61416641927084,28.401693138709447L199.12155729166668,31.88722827617937L199.29532128906249,35.032389185978815L199.38567856770834,37.25169313870944L199.44823360677083,36.46199833796575L199.99732783854165,30.0899979224572L200.40741087239584,28.905466109055737L201.19977470052083,35.20938544640174L201.30403309895834,31.070307276799127L201.66546221354167,31.696613722581134L201.85312733072917,35.63145904541017L202.28406204427083,33.725303121713495L202.45782604166666,35.59061455359827L203.07642587239582,48.634155508188115L203.33359658854167,46.0063858619103L203.57686618489583,46.79608066265399L203.68807514322916,45.230309354341955L203.80623466145835,48.49800373957706L204.0912076171875,46.673536799504205L204.8418680859375,50.363309977604786L204.95307704427083,55.5235367995042L205.09903880208333,55.98646008418157L205.16159384114584,56.55830893883338L205.27280279947917,56.51745925316443L205.71068807291667,48.838388354961694L205.71763863281248,47.87169729379508L205.81494647135418,46.07445655235878L206.57950805989586,40.601076507568365L206.66986533854165,41.55414927555964L206.74632149739583,39.63438544640175L207.37187188802082,28.742077754094055L207.44137748697918,28.224696878286494L207.907065,26.209615384615404L208.198988515625,28.78292224590595L209.29717697916666,30.02192723200872L209.56129825520833,31.356229107196526L209.88102401041667,29.409228691687957L209.89492513020832,30.267004570594196L210.17294752604164,30.743540954589832L210.1798980859375,30.86607443002555L210.18684864583335,31.437918090820318L210.29805760416667,33.357692307692304L210.3884148828125,34.814538046029895L210.40231600260415,35.71315841674806L211.09042143229166,31.36984740037184L212.13300541666666,31.043081078162572L212.57784125,29.599843245286223L212.619544609375,31.873620370718157L212.66124796875,30.838848231388965L212.68905020833333,31.805539292555608L212.69600076822917,31.53323575533352L213.21729276041668,36.93853472196139L213.49531515625,29.490928063025848L213.87759595052083,28.78292224590595L214.63520697916667,26.726996260422908L214.71166313802084,26.30492266141451L214.7672676171875,26.03261912419245L215.10089449218748,25.910075261042664L215.2677079296875,26.3866116450383L215.54573032552082,26.97207359900841L215.56658200520835,27.18992473895733L215.78204936197918,30.389538046029912L215.85155496093748,30.471227029653704L215.9002088802083,32.064234924316395L216.02531895833334,30.049153430645276L216.42150087239582,35.41361829317532L216.5605120703125,35.018770892803474L216.58136375,34.17461330707255L216.7273255078125,33.371310600867645L217.32507365885417,30.920537215012786L217.957574609375,27.61199833796573L217.97147572916666,27.829849477914678L218.19389364583333,30.79800373957707L218.31900372395833,30.0899979224572L220.28601217447917,44.23638170682466L220.46672673177082,40.42408024714544L220.7725513671875,34.229076092059785L221.15483216145833,37.07469687828652L221.585766875,34.86900083101713L221.67612415364582,30.675459876427283L222.3155756640625,30.94777380136344L222.51714190104167,28.76930395273064L222.78821373697917,32.363764660175036L223.24000013020833,32.90838212233322L224.7343705078125,36.43477213932917L225.28346473958334,29.531772554837744L225.464179296875,25.910075261042664L225.61709161458333,26.590844491811907L225.74915225260418,32.51353472196138L225.88816345052084,36.1488503089318L225.92291625,37.51038877047026L226.03412520833334,38.39538046029898L226.11753192708332,38.19115800123947L226.22874088541667,39.47099709144007L226.41640600260416,36.257765491192146L226.88904407552084,36.625386692927435L227.22962151041668,31.36984740037184L227.31997878906247,32.25484947791466L227.37558326822918,29.06884407630335L227.63970454427084,29.35476590670072L228.03588645833335,27.080999168982885L228.53632677083334,28.006845738337574L228.76569524739585,26.223233677790716L228.81434916666666,27.31245821439302L228.87690420572918,27.10823575533354L229.22443220052085,29.164151353102483L229.24528388020832,30.37591975285457L229.39124563802082,31.31538461538463L229.47465235677083,31.138388354961677L229.60671299479165,28.26554137009842L229.7387736328125,27.92515675471381L230.68404977864583,28.864611229529743L231.24704513020833,33.26238503089317L231.25399569010415,32.431845738337586L231.4903147265625,28.088534721961395L231.62237536458335,32.731385861910326L231.94210111979166,30.71630436823918L232.44254143229165,26.75423284677359L232.47729423177083,26.699770061786353L232.6580087890625,27.080999168982885L232.97773454427085,27.54392764751728L233.08199294270833,32.363764660175036L233.39476813802082,29.490928063025848L233.65193885416664,34.78731184739334L233.9508129296875,28.742077754094055L234.08982412760415,26.332148860051063L234.13152748697917,27.40776549119215L234.221884765625,27.92515675471381L234.41650044270833,24.52131060086765L234.71537451822917,19.17046403151292L234.9933969140625,24.14008149367112L235.3687271484375,31.02946278498723L235.45908442708335,31.614924738957313L235.63284842447916,34.46053513746995L235.68150234375,33.11261496910683L235.70930458333333,33.657232431265015L236.39741001302085,32.064234924316395L236.41826169270834,32.717767568734985L236.57117401041666,37.31977421687199L236.6962840885417,33.643614138089674L236.91870200520833,38.40899875347429L237.34963671875002,35.182148860051086L237.4469445572917,35.890154677170955L237.56510407552082,38.83107235248272L237.57205463541666,38.40899875347429L237.86397815104166,38.68131267841045L238.55208358072917,28.21107858511118L238.73974869791664,28.06130852332481L239.75453044270833,31.560461953970105L240.1229101171875,24.616617877666755L240.8735705859375,28.48338212233324L240.95002674479167,29.06884407630335L241.80494561197918,25.338231600247894L242.2150286458333,28.497000415508552L242.47219936197916,31.465154677170972L242.61816111979167,34.828156339205236L242.8753318359375,29.490928063025848L243.12555199218752,27.816231184739337L243.13250255208334,29.327539708064137L243.30626654947918,28.56508149367113L243.73720126302084,26.53638170682467L243.77890462239586,27.84345738337592L243.88316302083334,29.58623533982498L244.230691015625,32.00977213932916L244.41140557291666,35.454462784987214L244.52956509114586,33.71169521625225L244.68942796875,28.56508149367113L245.00915372395832,32.350156754713794L245.46094011718748,33.41215509267954L245.5095940364583,35.032389185978815L245.56519851562499,35.454462784987214L245.898825390625,29.313921414888824L245.9613804296875,31.478772970346313L246.3714634635417,34.41969064565805L246.46182074218748,36.27138378436749L247.46965192708333,25.80114969106819L247.55305864583332,25.692234508807843L247.78242712239583,21.784615384615392L247.79632824218749,21.62122702965368L248.07435063802083,23.472920168363146L248.52613703125002,30.44400083101712L249.04047846354166,32.52715301513672L249.36715477864584,30.770767153226416L249.61737493489585,27.31245821439302L249.818941171875,22.49261081402119L250.02050740885417,24.548536799504205L250.1108646875,28.183841998760528L250.1317163671875,26.60446278498725L250.5904533203125,31.00222619863655L250.61130500000002,29.57261704664964L250.91017907552083,28.755696047269396L251.18125091145833,25.07953596848708L251.2507565104167,24.330696047269385L251.27160819010416,24.79361413808971L251.63998786458333,20.89961330707257L252.4254011328125,22.438158416748053L252.43930225260416,22.42454012357271L252.55746177083336,23.527382953350354L252.6061156901042,22.955539292555585L252.61306625,22.329232846773607L252.66172016927084,23.159772139329192L253.1135065625,33.207922245905934L253.14130880208333,33.643614138089674L253.30812223958333,28.878229522705084L253.3915289583333,24.80723243126502L253.48188623697916,23.77246029193583L253.53054015625,23.93584864689754L254.09353550781248,35.87653638399564L254.322903984375,30.71630436823918L254.35070622395835,32.363764660175036L254.53837134114582,31.00222619863655L254.5522724609375,30.471227029653704L255.01795997395834,30.457619124192462L255.05966333333333,31.070307276799127L255.1778228515625,31.111151768611023L255.66436204427083,24.453229522705072L255.73386764322916,22.84661372258111L255.85202716145835,24.30345946091873L255.90068108072919,22.383695631760816L255.92153276041665,22.77854303213266L256.0188405989583,22.71046195397011L256.0952967578125,23.33676839975209L257.04057290364585,22.969157585730926L257.2977436197917,26.55000000000001L257.68002441406253,25.36545779888445L257.72867833333333,25.58330893883337L258.1804647265625,25.842004570594213L258.35422872395833,26.019000831017138L258.4167837630208,27.32607650756836L258.5001904817708,26.849540123572723L258.63225111979165,28.63315218411958L258.7504106380208,24.426003324068517L258.85466903645835,23.677153015136724L259.12574087239585,19.184071936974163L259.20914759114584,23.527382953350354L259.3829115885417,21.811841583251947L259.59142838541663,28.673996675931505L259.6400823046875,26.195997091440063L260.04321477864585,30.852466524564306L260.1196709375,27.55753555297852L260.36294053385416,27.230769230769226L260.495001171875,25.58330893883337L260.5436550911458,23.159772139329192L260.8633808463542,18.625846569354707L261.03019428385414,17.94507733858549L261.2248099609375,21.82545987642729L261.245661640625,22.016074430025526L261.48893123697917,19.837614969106824L261.9615693098958,19.44276756873498L262.13533330729166,21.743770892803497L262.37165234375,24.630225783127997L262.39250402343754,26.03261912419245L262.75393313802084,28.26554137009842L262.76088369791665,27.380539292555596L262.81648817708333,27.421383784367492L262.9068454557292,31.696613722581134L263.28912625,30.00830893883338L263.4767913671875,27.026536383995648L263.63665424479166,29.409228691687957" style="fill: none;" fill="none"></path></g></g></g></g></g></g><g transform="translate(42, 177)" clip-path="url(#clip_1)"><clipPath id="clip_1"><rect width="287" height="23"></rect></clipPath><g><g><line x1="0" y1="0" x2="0" y2="5" style="visibility: inherit;" fill="rgb(0, 0, 0)" stroke="rgb(204, 204, 204)" stroke-width="1px"></line><line x1="23.967447916666664" y1="0" x2="23.967447916666664" y2="5" style="visibility: inherit;" fill="rgb(0, 0, 0)" stroke="rgb(204, 204, 204)" stroke-width="1px"></line><line x1="47.93489583333333" y1="0" x2="47.93489583333333" y2="5" style="visibility: inherit;" fill="rgb(0, 0, 0)" stroke="rgb(204, 204, 204)" stroke-width="1px"></line><line x1="71.90234375" y1="0" x2="71.90234375" y2="5" style="visibility: inherit;" fill="rgb(0, 0, 0)" stroke="rgb(204, 204, 204)" stroke-width="1px"></line><line x1="95.86979166666666" y1="0" x2="95.86979166666666" y2="5" style="visibility: inherit;" fill="rgb(0, 0, 0)" stroke="rgb(204, 204, 204)" stroke-width="1px"></line><line x1="119.83723958333334" y1="0" x2="119.83723958333334" y2="5" style="visibility: inherit;" fill="rgb(0, 0, 0)" stroke="rgb(204, 204, 204)" stroke-width="1px"></line><line x1="143.8046875" y1="0" x2="143.8046875" y2="5" style="visibility: inherit;" fill="rgb(0, 0, 0)" stroke="rgb(204, 204, 204)" stroke-width="1px"></line><line x1="167.77213541666669" y1="0" x2="167.77213541666669" y2="5" style="visibility: inherit;" fill="rgb(0, 0, 0)" stroke="rgb(204, 204, 204)" stroke-width="1px"></line><line x1="191.73958333333331" y1="0" x2="191.73958333333331" y2="5" style="visibility: inherit;" fill="rgb(0, 0, 0)" stroke="rgb(204, 204, 204)" stroke-width="1px"></line><line x1="215.70703125" y1="0" x2="215.70703125" y2="5" style="visibility: inherit;" fill="rgb(0, 0, 0)" stroke="rgb(204, 204, 204)" stroke-width="1px"></line><line x1="239.67447916666669" y1="0" x2="239.67447916666669" y2="5" style="visibility: inherit;" fill="rgb(0, 0, 0)" stroke="rgb(204, 204, 204)" stroke-width="1px"></line><line x1="263.6419270833333" y1="0" x2="263.6419270833333" y2="5" style="visibility: inherit;" fill="rgb(0, 0, 0)" stroke="rgb(204, 204, 204)" stroke-width="1px"></line><line x1="287.609375" y1="0" x2="287.609375" y2="5" style="visibility: inherit;" fill="rgb(0, 0, 0)" stroke="rgb(204, 204, 204)" stroke-width="1px"></line></g><g transform="translate(0, 8)"><text x="0" y="0" dx="0em" dy="0.95em" style="text-anchor: middle; visibility: hidden; font-family: &quot;Helvetica Neue&quot;, sans-serif; font-size: 12px; font-weight: 200;" fill="rgb(50, 49, 63)" stroke="none" stroke-width="1px">-500k</text><text x="23.967447916666664" y="0" dx="0em" dy="0.95em" style="text-anchor: middle; visibility: inherit; font-family: &quot;Helvetica Neue&quot;, sans-serif; font-size: 12px; font-weight: 200;" fill="rgb(50, 49, 63)" stroke="none" stroke-width="1px">0</text><text x="47.93489583333333" y="0" dx="0em" dy="0.95em" style="text-anchor: middle; visibility: hidden; font-family: &quot;Helvetica Neue&quot;, sans-serif; font-size: 12px; font-weight: 200;" fill="rgb(50, 49, 63)" stroke="none" stroke-width="1px">500k</text><text x="71.90234375" y="0" dx="0em" dy="0.95em" style="text-anchor: middle; visibility: inherit; font-family: &quot;Helvetica Neue&quot;, sans-serif; font-size: 12px; font-weight: 200;" fill="rgb(50, 49, 63)" stroke="none" stroke-width="1px">1M</text><text x="95.86979166666666" y="0" dx="0em" dy="0.95em" style="text-anchor: middle; visibility: hidden; font-family: &quot;Helvetica Neue&quot;, sans-serif; font-size: 12px; font-weight: 200;" fill="rgb(50, 49, 63)" stroke="none" stroke-width="1px">1.5M</text><text x="119.83723958333334" y="0" dx="0em" dy="0.95em" style="text-anchor: middle; visibility: inherit; font-family: &quot;Helvetica Neue&quot;, sans-serif; font-size: 12px; font-weight: 200;" fill="rgb(50, 49, 63)" stroke="none" stroke-width="1px">2M</text><text x="143.8046875" y="0" dx="0em" dy="0.95em" style="text-anchor: middle; visibility: hidden; font-family: &quot;Helvetica Neue&quot;, sans-serif; font-size: 12px; font-weight: 200;" fill="rgb(50, 49, 63)" stroke="none" stroke-width="1px">2.5M</text><text x="167.77213541666669" y="0" dx="0em" dy="0.95em" style="text-anchor: middle; visibility: inherit; font-family: &quot;Helvetica Neue&quot;, sans-serif; font-size: 12px; font-weight: 200;" fill="rgb(50, 49, 63)" stroke="none" stroke-width="1px">3M</text><text x="191.73958333333331" y="0" dx="0em" dy="0.95em" style="text-anchor: middle; visibility: hidden; font-family: &quot;Helvetica Neue&quot;, sans-serif; font-size: 12px; font-weight: 200;" fill="rgb(50, 49, 63)" stroke="none" stroke-width="1px">3.5M</text><text x="215.70703125" y="0" dx="0em" dy="0.95em" style="text-anchor: middle; visibility: inherit; font-family: &quot;Helvetica Neue&quot;, sans-serif; font-size: 12px; font-weight: 200;" fill="rgb(50, 49, 63)" stroke="none" stroke-width="1px">4M</text><text x="239.67447916666669" y="0" dx="0em" dy="0.95em" style="text-anchor: middle; visibility: hidden; font-family: &quot;Helvetica Neue&quot;, sans-serif; font-size: 12px; font-weight: 200;" fill="rgb(50, 49, 63)" stroke="none" stroke-width="1px">4.5M</text><text x="263.6419270833333" y="0" dx="0em" dy="0.95em" style="text-anchor: middle; visibility: inherit; font-family: &quot;Helvetica Neue&quot;, sans-serif; font-size: 12px; font-weight: 200;" fill="rgb(50, 49, 63)" stroke="none" stroke-width="1px">5M</text><text x="287.609375" y="0" dx="0em" dy="0.95em" style="text-anchor: middle; visibility: hidden; font-family: &quot;Helvetica Neue&quot;, sans-serif; font-size: 12px; font-weight: 200;" fill="rgb(50, 49, 63)" stroke="none" stroke-width="1px">5.5M</text></g><line x1="0" y1="0" x2="287.609375" y2="0" fill="rgb(0, 0, 0)" stroke="rgb(204, 204, 204)" stroke-width="1px"></line></g></g></g></g></svg>