<svg viewBox="0 0 330 200" xmlns="http://www.w3.org/2000/svg"><g><g><g><g><g><line x1="31.59375" y1="177" x2="26.59375" y2="177" style="visibility: inherit;" fill="rgb(0, 0, 0)" stroke="rgb(204, 204, 204)" stroke-width="1px"></line><line x1="31.59375" y1="154.875" x2="26.59375" y2="154.875" style="visibility: inherit;" fill="rgb(0, 0, 0)" stroke="rgb(204, 204, 204)" stroke-width="1px"></line><line x1="31.59375" y1="132.75" x2="26.59375" y2="132.75" style="visibility: inherit;" fill="rgb(0, 0, 0)" stroke="rgb(204, 204, 204)" stroke-width="1px"></line><line x1="31.59375" y1="110.625" x2="26.59375" y2="110.625" style="visibility: inherit;" fill="rgb(0, 0, 0)" stroke="rgb(204, 204, 204)" stroke-width="1px"></line><line x1="31.59375" y1="88.5" x2="26.59375" y2="88.5" style="visibility: inherit;" fill="rgb(0, 0, 0)" stroke="rgb(204, 204, 204)" stroke-width="1px"></line><line x1="31.59375" y1="66.375" x2="26.59375" y2="66.375" style="visibility: inherit;" fill="rgb(0, 0, 0)" stroke="rgb(204, 204, 204)" stroke-width="1px"></line><line x1="31.59375" y1="44.25" x2="26.59375" y2="44.25" style="visibility: inherit;" fill="rgb(0, 0, 0)" stroke="rgb(204, 204, 204)" stroke-width="1px"></line><line x1="31.59375" y1="22.125" x2="26.59375" y2="22.125" style="visibility: inherit;" fill="rgb(0, 0, 0)" stroke="rgb(204, 204, 204)" stroke-width="1px"></line><line x1="31.59375" y1="0" x2="26.59375" y2="0" style="visibility: inherit;" fill="rgb(0, 0, 0)" stroke="rgb(204, 204, 204)" stroke-width="1px"></line></g><g transform="translate(21.59375, 0)"><text x="0" y="177" dx="0em" dy="0.3em" style="text-anchor: end; visibility: hidden; font-family: &quot;Helvetica Neue&quot;, sans-serif; font-size: 12px; font-weight: 200;" fill="rgb(50, 49, 63)" stroke="none" stroke-width="1px">-5</text><text x="0" y="154.875" dx="0em" dy="0.3em" style="text-anchor: end; visibility: inherit; font-family: &quot;Helvetica Neue&quot;, sans-serif; font-size: 12px; font-weight: 200;" fill="rgb(50, 49, 63)" stroke="none" stroke-width="1px">0</text><text x="0" y="132.75" dx="0em" dy="0.3em" style="text-anchor: end; visibility: hidden; font-family: &quot;Helvetica Neue&quot;, sans-serif; font-size: 12px; font-weight: 200;" fill="rgb(50, 49, 63)" stroke="none" stroke-width="1px">5</text><text x="0" y="110.625" dx="0em" dy="0.3em" style="text-anchor: end; visibility: inherit; font-family: &quot;Helvetica Neue&quot;, sans-serif; font-size: 12px; font-weight: 200;" fill="rgb(50, 49, 63)" stroke="none" stroke-width="1px">10</text><text x="0" y="88.5" dx="0em" dy="0.3em" style="text-anchor: end; visibility: hidden; font-family: &quot;Helvetica Neue&quot;, sans-serif; font-size: 12px; font-weight: 200;" fill="rgb(50, 49, 63)" stroke="none" stroke-width="1px">15</text><text x="0" y="66.375" dx="0em" dy="0.3em" style="text-anchor: end; visibility: inherit; font-family: &quot;Helvetica Neue&quot;, sans-serif; font-size: 12px; font-weight: 200;" fill="rgb(50, 49, 63)" stroke="none" stroke-width="1px">20</text><text x="0" y="44.25" dx="0em" dy="0.3em" style="text-anchor: end; visibility: hidden; font-family: &quot;Helvetica Neue&quot;, sans-serif; font-size: 12px; font-weight: 200;" fill="rgb(50, 49, 63)" stroke="none" stroke-width="1px">25</text><text x="0" y="22.125" dx="0em" dy="0.3em" style="text-anchor: end; visibility: inherit; font-family: &quot;Helvetica Neue&quot;, sans-serif; font-size: 12px; font-weight: 200;" fill="rgb(50, 49, 63)" stroke="none" stroke-width="1px">30</text><text x="0" y="0" dx="0em" dy="0.3em" style="text-anchor: end; visibility: hidden; font-family: &quot;Helvetica Neue&quot;, sans-serif; font-size: 12px; font-weight: 200;" fill="rgb(50, 49, 63)" stroke="none" stroke-width="1px">35</text></g><line x1="31.59375" y1="0" x2="31.59375" y2="177" fill="rgb(0, 0, 0)" stroke="rgb(204, 204, 204)" stroke-width="1px"></line></g></g><g transform="translate(31, 0)" clip-path="url(#clip_0)"><clipPath id="clip_0"><rect width="298" height="177"></rect></clipPath><g><g><g><line x1="0" y1="0" x2="0" y2="177" fill="rgb(0, 0, 0)" stroke="rgb(60, 60, 60)" stroke-width="1px" opacity="0.25"></line><line x1="24.8671875" y1="0" x2="24.8671875" y2="177" fill="rgb(0, 0, 0)" stroke="rgb(60, 60, 60)" stroke-width="1px" opacity="0.25"></line><line x1="49.734375" y1="0" x2="49.734375" y2="177" fill="rgb(0, 0, 0)" stroke="rgb(60, 60, 60)" stroke-width="1px" opacity="0.25"></line><line x1="74.6015625" y1="0" x2="74.6015625" y2="177" fill="rgb(0, 0, 0)" stroke="rgb(60, 60, 60)" stroke-width="1px" opacity="0.25"></line><line x1="99.46875" y1="0" x2="99.46875" y2="177" fill="rgb(0, 0, 0)" stroke="rgb(60, 60, 60)" stroke-width="1px" opacity="0.25"></line><line x1="124.3359375" y1="0" x2="124.3359375" y2="177" fill="rgb(0, 0, 0)" stroke="rgb(60, 60, 60)" stroke-width="1px" opacity="0.25"></line><line x1="149.203125" y1="0" x2="149.203125" y2="177" fill="rgb(0, 0, 0)" stroke="rgb(60, 60, 60)" stroke-width="1px" opacity="0.25"></line><line x1="174.0703125" y1="0" x2="174.0703125" y2="177" fill="rgb(0, 0, 0)" stroke="rgb(60, 60, 60)" stroke-width="1px" opacity="0.25"></line><line x1="198.9375" y1="0" x2="198.9375" y2="177" fill="rgb(0, 0, 0)" stroke="rgb(60, 60, 60)" stroke-width="1px" opacity="0.25"></line><line x1="223.8046875" y1="0" x2="223.8046875" y2="177" fill="rgb(0, 0, 0)" stroke="rgb(60, 60, 60)" stroke-width="1px" opacity="0.25"></line><line x1="248.671875" y1="0" x2="248.671875" y2="177" fill="rgb(0, 0, 0)" stroke="rgb(60, 60, 60)" stroke-width="1px" opacity="0.25"></line><line x1="273.5390625" y1="0" x2="273.5390625" y2="177" fill="rgb(0, 0, 0)" stroke="rgb(60, 60, 60)" stroke-width="1px" opacity="0.25"></line><line x1="298.40625" y1="0" x2="298.40625" y2="177" fill="rgb(0, 0, 0)" stroke="rgb(60, 60, 60)" stroke-width="1px" opacity="0.25"></line></g><g><line x1="0" y1="177" x2="298.40625" y2="177" fill="rgb(0, 0, 0)" stroke="rgb(60, 60, 60)" stroke-width="1px" opacity="0.25"></line><line x1="0" y1="154.875" x2="298.40625" y2="154.875" fill="rgb(0, 0, 0)" stroke="rgb(60, 60, 60)" stroke-width="1px" opacity="0.25"></line><line x1="0" y1="132.75" x2="298.40625" y2="132.75" fill="rgb(0, 0, 0)" stroke="rgb(60, 60, 60)" stroke-width="1px" opacity="0.25"></line><line x1="0" y1="110.625" x2="298.40625" y2="110.625" fill="rgb(0, 0, 0)" stroke="rgb(60, 60, 60)" stroke-width="1px" opacity="0.25"></line><line x1="0" y1="88.5" x2="298.40625" y2="88.5" fill="rgb(0, 0, 0)" stroke="rgb(60, 60, 60)" stroke-width="1px" opacity="0.25"></line><line x1="0" y1="66.375" x2="298.40625" y2="66.375" fill="rgb(0, 0, 0)" stroke="rgb(60, 60, 60)" stroke-width="1px" opacity="0.25"></line><line x1="0" y1="44.25" x2="298.40625" y2="44.25" fill="rgb(0, 0, 0)" stroke="rgb(60, 60, 60)" stroke-width="1px" opacity="0.25"></line><line x1="0" y1="22.125" x2="298.40625" y2="22.125" fill="rgb(0, 0, 0)" stroke="rgb(60, 60, 60)" stroke-width="1px" opacity="0.25"></line><line x1="0" y1="0" x2="298.40625" y2="0" fill="rgb(0, 0, 0)" stroke="rgb(60, 60, 60)" stroke-width="1px" opacity="0.25"></line></g></g></g><g><g><line x1="0" y1="154.875" x2="298.40625" y2="154.875" fill="rgb(0, 0, 0)" stroke="rgb(153, 153, 153)" stroke-width="1.5px"></line></g></g><g><g><line x1="24.8671875" y1="0" x2="24.8671875" y2="177" fill="rgb(0, 0, 0)" stroke="rgb(153, 153, 153)" stroke-width="1.5px"></line></g></g><g><g><g><g><g><path stroke="rgb(255, 112, 67)" stroke-width="2px" d="M25.1307796875,154.27286263033747L25.1457,154.08060747538693L25.275009375,153.7471049892431L25.3893984375,152.59145966485443L25.752459375,152.45815200376234L26.0608125,151.19134432920615L26.0856796875,149.51079523247606L26.190121875000003,149.90487054925134L26.27964375,144.54023144096726L26.4537140625,144.87873983548735L26.463660937500002,145.67991760018708L26.5034484375,144.87980580709294L27.279304687499998,142.91610330698805L27.5876578125,143.31514115310148L27.801515624999997,144.9177402730347L27.836329687499997,147.39767687423952L28.0750546875,147.09035196079466L28.139709375,148.6080841971159L28.259071875000004,147.6149784126834L28.4729296875,146.22823601776085L28.512717187499998,139.2967547173706L28.82604375,140.6834359341084L28.9105921875,137.53042689896165L28.940432812500003,138.16766145538045L29.079689062499998,139.8401758364944L29.751103125,142.54883144561992L29.9649609375,140.3866290318124L30.2235796875,139.47274767944953L30.4125703125,136.2184785033548L30.7905515625,140.9843891931814L31.1934,143.6017059706346L31.4669390625,145.62649205602855L31.481859375,143.39783178700714L31.5514875,142.67165670062946L31.57138125,140.77187316052104L31.81010625,136.01636822344489L31.8449203125,140.34625974546245L32.0637515625,141.65120924510546L32.2129546875,143.34875234384833L32.496440625,144.1230430781433L32.6406703125,145.97196061637808L32.7202453125,144.8464159723278L32.799820312499996,143.36676647120646L33.331978125,142.54395899909744L33.5458359375,141.0764825756098L33.560756250000004,143.85864009604788L34.0929140625,144.20648842184616L34.202329687500004,144.15536472039628L34.2570375,144.1692736270263L34.455974999999995,144.8310118032887L34.5405234375,145.97492348036096L34.605178125,146.78559089232277L35.0478140625,147.87868513184256L35.3462203125,147.64901839445488L35.798803125,147.65309082955395L35.858484375,146.80356218987833L36.017634375,141.18463049515438L36.047475,138.95925454964816L36.1718109375,140.34025540274737L36.395615625,143.89374601317877L36.8034375,141.3495565764512L37.0371890625,141.63777205421957L37.1217375,140.18707192584532L37.131684375,134.52797655012995L37.1565515625,139.61901662437197L37.2808875,142.2585403423791L37.285860937500004,141.1669217265418L37.3455421875,143.02163666229075L37.370409375,142.8299119218625L37.5146390625,141.43839403059707L37.589240625,143.27604486266748L38.275575,143.64409133744226L38.5491140625,144.16808761210433L39.678084375000005,144.54542512089722L40.031198437499995,144.48213330263326L40.046118750000005,146.33980665418164L40.334578125,142.52069513924513L40.64293125,144.93945419745205L40.9860984375,143.5067216131482L41.0557265625,140.44292375405988L41.0656734375,140.42220496034838L41.070646875,141.5569096618665L41.35910625,137.19057193599778L42.2294578125,141.0922720182099L42.9157921875,136.64822363306035L42.9257390625,135.23733163505165L43.1744109375,140.54509550588946L43.527525000000004,143.97076697383892L43.78614375,143.75546601554498L43.890585937500006,144.7091871866032L43.925399999999996,143.73193370869427L44.4575578125,141.6107774851958L44.5968140625,141.13560718764305L44.736070312500004,143.48609402340318L44.9946890625,144.09835649825135L45.3030421875,145.24856339393259L45.7904390625,138.24489800511716L45.944615625,140.7770222328837L45.9694828125,141.48904579059692L46.392225,142.6717520736242L46.402171875,144.1704115761867L46.8050203125,145.71985261640256L47.262576562499994,146.98461189628426L47.347125000000005,146.98574651813973L47.4515671875,147.93004026017468L48.118007812500004,144.03546938658883L48.1379015625,145.91501556373316L48.1776890625,147.00496195278572L48.7347140625,147.5270897467256L48.8043421875,146.17956970210793L48.99333281249999,146.28020878598645L49.0530140625,141.73167412260506L49.2618984375,143.94462425696452L49.644853125,143.01270873062373L50.0377546875,145.32488909550045L50.047701562499995,145.80538514368257L50.3162671875,147.45461980171515L50.4555234375,147.44397650997348L50.977734375000004,146.50000711465185L51.50491875,146.346688805725L51.574546875,145.77278167170633L51.8779265625,146.44278277255506L52.519499999999994,146.7899813431347L53.166046875,146.414708076587L53.384878125,147.59893465439717L53.8076203125,144.19733614921714L53.9070890625,145.8614080882081L54.0861328125,144.6990683040624L54.120946875,145.51395967612297L54.299990625,145.34088377600688L54.4044328125,146.4590266206609L54.7127859375,146.0733301436154L54.8122546875,144.65254032106685L55.36430625,146.0112145477026L55.414040625,143.19303049883183L55.7572078125,145.47273990059458L55.821862499999995,146.55185047116615L55.851703125,146.01412964896403L55.9163578125,143.44258607528235L56.19984375,142.69146103561894L56.3142328125,143.11621756375416L56.6325328125,145.36471190464846L57.3487078125,143.4008202982685L57.617273437499996,145.56400481419212L57.761503125,143.65212530825403L58.030068750000005,141.86538099130314L58.2240328125,140.1274891667385L58.238953124999995,143.24344999151344L58.298634375,144.84267436240265L58.4528109375,146.49043313726276L59.0098359375,147.0440662578612L59.566860937499996,146.2992977616709L59.6961703125,146.88237139091024L60.263142187499994,145.95587157073695L60.302929687500004,145.83228035725998L60.506840625,142.68122813438086L60.964396875000006,142.94130996307558L61.282696875,142.92037231112016L61.521421875,144.78935869088468L61.635810937500004,144.52263156861483L61.9740046875,142.22414210254203L62.0237390625,144.51735878237636L62.038659375,143.29212091117233L62.1132609375,141.97273821919637L62.277384375,142.4511059194176L63.18255,143.77261697705796L63.5157703125,144.2423131338132L63.6550265625,144.31512180753785L63.7047609375,143.29574078433654L63.87883125,141.98579481192195L64.664634375,142.31440330593446L65.0376421875,144.22353821664248L65.60461406249999,144.77331005376098L65.808525,144.52525602603862L66.3705234375,143.89609713807647L66.514753125,143.38202206286758L66.5396203125,142.5103341245232L66.58438124999999,140.98200004718174L67.03199062499999,142.99714277399463L67.0469109375,143.1515114701562L67.18616718749999,138.25891258697348L67.2359015625,139.24752682674313L67.69843125,141.02969636814822L67.86752812499999,141.05596888957638L68.16593437499999,138.02654447614083L68.782640625,140.89175093685944L69.0760734375,143.09499148556804L69.20538281249999,142.19842251318227L69.220303125,139.7425124274345L69.3247453125,140.86106376806805L69.359559375,140.71671710824913L69.64801875,139.65375393876997L69.677859375,139.4988817778204L69.956371875,132.30456641238771L70.9759265625,135.88119188858178L71.2544390625,138.94112782903377L71.41358906250001,141.42271867530266L71.846278125,140.0013280435605L72.01040156250001,141.49747719074506L72.40330312500001,139.10411090913544L72.4381171875,139.78567638911682L72.502771875,137.23176518748926L72.80117812499999,133.46483347219663L72.95038125,129.32855641247295L73.0647703125,131.7940171158401L73.1542921875,124.22928285098598L73.875440625,123.46901542840317L74.193740625,130.63382466136167L74.9447296875,134.68847507893295L75.07403906249999,134.12874100362808L76.02893906249999,135.5727698931429L76.063753125,122.34955207641917L76.62575156249999,123.66959439358709L76.64067187500001,128.48645238066672L76.7451140625,129.95987222185707L77.038546875,133.2859786819874L77.2524046875,134.7030704826986L77.675146875,135.15961730545015L77.8293234375,136.23966963568478L77.9088984375,136.31689208673924L77.993446875,137.73923244909935L78.192384375,137.0366497733384L78.4211625,135.82270404208836L78.42613593749999,135.82875318353854L78.5355515625,131.63877503767898L78.709621875,128.80091428694303L78.83893125,127.09367145500883L78.88369218749999,125.71683685661735L79.1423109375,128.83179561067453L79.15723125,127.30288556914823L79.32632812499999,126.56452784360229L79.34622187500001,128.96615702999102L79.4606109375,131.4037065118102L79.49045156250001,132.98935242709803L79.50039843750001,135.30771014104658L79.7291765625,130.71486995822414L80.1369984375,128.3847630250825L80.23149375,130.68801545550664L80.2762546875,131.1662866225853L80.6144484375,133.95230944579924L80.6243953125,132.71409326330473L80.9228015625,132.20706036052496L81.713578125,134.4856535694682L81.9771703125,127.19773634562989L82.0766390625,129.9609492366916L82.230815625,134.1294872585181L82.2755765625,134.92025947470927L82.36012500000001,134.13005536019483L82.4446734375,127.01945244562434L82.8524953125,125.95994041020755L82.966884375,130.28068759951046L83.0365125,132.01000821896224L83.40454687500001,135.060173873352L83.97151875,133.73847061410368L84.44896874999999,132.1567577005316L84.47383593750001,133.84227472549014L84.6528796875,127.62049399140676L84.80705625,126.89856138183595L85.2894796875,127.87134080859376L85.4187890625,129.29310813029022L85.4386828125,131.1749062447513L85.51825781250001,127.56646898202686L85.72714218750001,117.88241851575725L86.0454421875,123.44726685194703L86.0603625,120.06931099121888L86.1399375,119.24699552074146L86.6173875,121.85200003632946L86.8809796875,127.15319630532886L87.94032187500001,129.23542719500915L88.07957812500001,127.3542551315883L88.6067625,127.17492306453343L88.96485,127.91038200034116L89.27320312500001,128.66970930083642L89.66113125,127.69562998285323L89.7456796875,123.25154626173037L89.8799625,122.24505592228329L89.98440468749999,114.54404283071372L90.0440859375,122.53073420348652L90.1186875,126.23306002988153L90.4021734375,127.79969330056747L90.76523437499999,120.51445232525015L91.3123125,120.1884698074731L91.5759046875,113.96612529764609L91.5957984375,111.59704914099001L92.0831953125,114.10481655124438L92.2920796875,112.93967658235795L92.54572499999999,121.30296792241435L92.6601140625,125.85466719658673L92.953546875,122.93460454578103L92.9684671875,121.9118874528104L93.43597031249999,115.78111215460859L93.6050671875,120.01840369241575L93.7791375,110.77916463099204L93.9731015625,115.0224775068896L94.4306578125,117.34533648448807L94.54007343750001,120.90741564248574L94.9478953125,120.63684931167705L95.64915,116.98866488676515L95.977396875,117.4933470567539L96.0122109375,116.24678854945151L96.056971875,123.9725349998644L96.14152031249999,123.8445238123042L96.23104218750001,123.31407036839143L96.52447500000001,125.71150397335418L96.773146875,121.04118904516059L97.0068984375,124.56339821961495L97.320225,117.93603123752459L97.69323281250001,119.57753327803722L97.7230734375,121.16075579712934L97.8722765625,105.92778080219117L97.9170375,110.6143551535254L97.96677187499999,107.82211450736793L98.42432812499999,105.79134747028988L98.4690890625,113.51229319954302L98.4889828125,114.1675233959221L98.57353124999999,109.97972205871719L98.89183125,108.92356380697714L98.9863265625,119.4362584118642L99.657740625,116.44843382862791L99.97106718750001,114.59351420418969L100.1998453125,110.30815389643045L100.41867656250001,103.72743640714842L100.84639218749999,114.0207474850056L101.13485156249999,107.88226047411187L101.87589374999999,107.06892451795711L101.885840625,112.23357247086034L102.044990625,112.0912104533414L102.1991671875,110.80827457942365L102.4926,119.3865821316111L103.2038015625,116.65068803514647L103.3231640625,117.56335582188134L103.367925,111.36585808426955L103.64146406249999,113.62656169313681L104.392453125,108.83765505062635L104.46208125000001,118.81371726457533L104.96937187500001,117.67731233277473L105.0738140625,113.28346012496087L105.73528125,110.50533287085969L106.09336875,118.42359134410549L106.202784375,112.55966529878812L106.28733281250001,115.90712734241984L106.5161109375,112.60743436443627L106.6852078125,110.25748160140408L107.00848124999999,105.301281210522L107.40635625,104.92178778454075L107.7843375,109.42675231817013L107.96338125,105.26089184118894L108.5154328125,108.92781791110984L108.52040625000001,113.88801463735194L108.689503125,107.8896542280441L108.75913125,106.55314508733305L108.96801562499999,105.00174071107598L109.7985796875,109.0790729243415L109.95275625,99.8610639499937L110.121853125,101.7749112181255L110.658984375,105.73963322951725L110.8231078125,116.10060895630318L110.91262968749999,110.41459275453448L110.9225765625,104.886510178859L111.04193906249999,108.24206348265109L111.04691249999999,103.66529629233418L111.06183281249999,104.46255459310376L111.156328125,114.20590355588057L111.3303984375,110.78776801701223L111.48457499999999,108.71187216923137L111.67853906250001,110.22965047172009L111.72827343750001,109.96944223768294L112.17090937500001,110.74753104047048L112.2405375,119.53696930406134L112.3847671875,113.90990208147551L112.42455468749999,111.33197432612529L112.56878437499999,109.70194508227796L113.06115468750001,115.3537378358429L114.21001874999999,113.91207201287659L114.34927499999999,120.47274441603132L114.3940359375,126.45479461600368L114.5332921875,125.32224754959336L114.7073625,124.01976751130815L114.76704375,117.9397629764199L115.08534374999999,115.68911659398792L115.75675781250001,109.77967596339653L116.02532343749999,118.88546898536367L116.686790625,117.91452934844781L116.6917640625,119.25653098644906L117.3880453125,117.41649031771477L117.98983125,107.36873951991353L118.0246453125,110.91333610200854L118.646325,109.11192582120879L119.20832343750001,112.05223662179937L119.30281875,109.60871979786295L119.442075,99.89403354879222L119.551490625,98.3126438269377L119.65593281250001,101.18491659935475L119.9941265625,114.53926018700696L120.25771875000001,111.4819787921053L120.546178125,108.74417695650708L120.765009375,107.68621690541059L121.829325,114.3719746271941L121.918846875,111.82698550225335L122.0282625,113.78785634995126L122.058103125,117.97938274956121L122.6002078125,115.50800196418984L122.66983593750001,111.95601706558361L122.72454375,114.68101143869097L122.9980828125,111.1327585603734L123.052790625,115.89517750179411L123.08263124999999,111.03114700934672L123.37606406249999,119.52758341682782L123.510346875,109.35124560864466L123.6247359375,106.83837871475039L123.97287656249999,108.80077354385269L124.0822921875,107.2448853890527L124.246415625,118.3556831312435L124.365778125,115.60904717160804L124.56471562499999,108.56706716366733L124.65423750000001,106.98198421566562L124.684078125,112.16533765178248L124.6989984375,109.46613701451615L125.0769796875,109.460930377655L125.08195312500001,108.63428517247007L125.3157046875,112.87447306194763L125.46988125,105.9617147629193L125.6041640625,112.20023668913434L125.619084375,115.24612251465553L125.64395156249999,120.4095752259793L125.997065625,108.04342695359598L126.0517734375,108.68224663427002L126.295471875,100.94086343580798L126.57895781250001,103.05640498241374L126.8027625,105.39748387003296L127.0066734375,110.62258117475722L127.07132812500001,107.9858287970937L127.0763015625,109.13550725941161L127.1857171875,106.06201341250122L127.2652921875,109.57808456956494L127.81734375,108.7062707551667L127.9217859375,113.2005273847788L128.264953125,112.24768944913204L128.27987343750002,108.204389655197L128.284846875,113.78861704564353L128.52357187500002,108.54703062472498L128.64293437499998,100.59473584233376L129.299428125,105.74264844738634L129.697303125,102.91218202878947L129.76195781250001,101.68806743603895L130.0802578125,105.05072256077497L130.40353125,102.78630303948623L130.5179203125,97.47903630977572L130.93568906250002,101.76115312245906L130.950609375,107.4577772406782L130.9754765625,105.67934084582599L131.308696875,103.37315949826403L131.39821875,98.3131612839041L131.7712265625,108.23329511056767L131.965190625,112.07135690909878L132.75099375000002,103.26002251185332L132.959878125,93.96589134143206L132.9648515625,99.12088670495994L133.288125,104.46680654384998L133.317965625,105.79198973952717L133.447275,102.49510899531236L133.5517171875,100.4505474814617L133.5815578125,98.57276279979011L134.3673609375,100.00892530949747L135.5560125,98.42411488456628L135.6206671875,106.92734906055392L135.7897640625,114.88260213004267L135.9091265625,104.53115785280893L135.9787546875,99.59651817893999L136.1180109375,107.75112543354045L136.6849828125,104.94810018688207L136.859053125,100.52453516095738L137.0430703125,107.46774452072299L137.495653125,109.3045983001108L138.1422,110.8076637366125L138.5152078125,100.27644739739353L138.9628171875,104.30437411661299L138.9777375,96.29485387441726L139.7088328125,101.54454505704173L139.7287265625,98.26684234298664L139.942584375,99.55809117887851L139.9972921875,97.74777953108809L140.0470265625,95.53763707328238L140.2161234375,101.49255737214325L140.2658578125,93.22833071082258L140.3951671875,89.38431593137636L140.618971875,88.56053627704176L140.7333609375,91.70728030428047L140.98700625,104.00676797523948L141.10636875,99.41836102661404L141.20086406250002,105.5909478560502L141.434615625,103.16711124750464L141.9966140625,99.20956586463741L142.24031250000002,98.24591756977732L142.6431609375,100.19886626910028L142.69786875,94.84389384097372L142.7973375,95.41182224933216L143.1603984375,99.31424819579071L143.443884375,100.18105543107L143.97604218749998,99.48398456364994L144.677296875,100.62042368763758L144.87126093749998,101.48556214638994L145.01549062499998,93.21289147179391L145.4481796875,90.89814473415058L145.6869046875,102.35559527650263L145.6968515625,107.61755380019417L145.8858421875,105.34645388236564L146.00023125,105.68837366647078L146.3533453125,104.46700049726101L147.0546,96.59065027050933L147.37290000000002,98.25293761141754L147.860296875,96.7226023629168L147.900084375,101.65692723958847L148.656046875,94.99679325323794L148.7654625,100.43019603670535L148.9295859375,99.55993611681996L149.2976203125,106.00390575807415L149.491584375,112.54192788172438L149.9193,107.2663068411867L150.28236093750002,103.41476584184888L150.406696875,97.27716084902717L150.4713515625,98.04811836114665L150.5161125,93.57270352858984L150.9090140625,93.40580061446835L151.20244687500002,97.28007501704222L151.76941875000003,90.98160692657666L151.84402031250002,97.28182477835199L152.236921875,101.6751109593116L152.6696109375,99.02140791851299L153.112246875,96.85016880773317L153.2962640625,94.76061988319643L153.470334375,93.08894591597131L153.83836874999997,94.41178590933927L154.455075,87.02897799778252L154.5595171875,86.83216299991768L154.604278125,96.55591280925847L154.68385312499998,95.4788263205801L154.9971796875,90.50436623836246L155.00215312499998,87.84576183286123L155.07178125000002,90.39101698474177L155.68351406250002,98.57567460582308L155.73822187500002,100.25980989960226L156.235565625,103.40007215039368L156.5687859375,101.04212468443176L157.5634734375,106.9488082312218L158.1951,103.36255636588761L158.2000734375,96.21539677844065L158.34430312499998,88.14302753010759L158.35424999999998,91.77135139584166L158.8466203125,89.61200303721203L159.5926359375,90.18268955998285L159.9109359375,93.43514192850985L159.94077656250002,95.70104620904684L159.9706171875,89.21911687642907L159.9905109375,86.2540399348174L159.99548437500002,90.0424581977984L160.5674296875,93.8747906096733L160.84096875,91.94506936359146L161.43778125,96.32251419238888L161.71629375,102.78445766933348L162.20369062499998,101.54719584564916L162.253425,92.39107288229795L162.2882390625,104.00452499692636L162.3777609375,98.45145189467071L162.66124687500002,94.26879348101019L162.88007812499998,91.2916855963576L163.30779375,91.3395818801229L163.7603765625,89.01200850078492L163.7703234375,82.39939849417823L163.9294734375,81.81720798993956L164.01899531249998,83.84269185176402L165.426478125,87.18539835042303L165.55578749999998,96.77850194589224L165.77461875,93.8345221460815L166.0481578125,91.14375314360593L166.3565109375,88.53297297266562L166.421165625,98.78388342921401L166.878721875,92.09243130722322L167.0229515625,90.72834846519636L167.216915625,86.08980326857095L168.609478125,92.60889229897215L169.0023796875,80.90914881779882L169.1316890625,86.96388438078245L169.2411046875,91.29364667613793L169.3356,85.3994114439457L169.45993593749998,81.21244202856835L169.5395109375,86.9444646048821L169.5991921875,94.7329711918996L169.81305,89.79086431532897L170.15124375000002,93.15240288179993L170.45959687500002,91.28478761912511L171.494071875,83.71385053396897L171.52888593749998,86.52880956888603L171.57364687499998,93.4310488829637L171.82231875,94.25560055551674L171.8372390625,93.370108456479L171.94168125000002,96.64243714992193L172.0958578125,91.8085935269832L172.19035312499997,89.61104542702671L172.866740625,94.37137010747335L173.2695890625,88.55005524548376L173.2745625,93.61097781892113L173.443659375,98.04537891051466L174.1250203125,101.96470810116108L174.1498875,98.52178445542322L174.279196875,91.75230712344924L174.507975,88.36103833824801L174.58257656249998,89.68634939378742L174.9903984375,92.54713245502856L175.20425625,95.39173219365922L175.333565625,94.35690589525132L175.53747656250002,85.58799170838493L175.751334375,83.14248967758833L176.40782812499998,82.48688184137355L176.4426421875,82.84645787069326L176.4625359375,82.36556442731099L176.9698265625,83.28612672897266L177.1687640625,85.64356614358476L177.6362671875,89.46995897058994L177.70589531250002,89.14570933201523L177.7954171875,96.32253934394485L178.00430156250002,93.86349896342257L179.3570765625,86.11888022751035L179.62066875,91.30124894339097L180.2125078125,88.62497389530095L181.1176734375,89.97753128656717L181.30169062500002,90.34384297161682L181.76919375,88.28145088451733L182.5599703125,84.67994135437984L182.68927968749998,90.61693890701876L182.8882171875,106.96943144208878L183.1169953125,92.81968548421078L183.44026875,89.30626140191563L183.4750828125,79.83433539721017L183.5148703125,75.67405945213225L183.7535953125,68.55757499546759L183.79835625,80.17801455027433L184.0917890625,84.15454126457317L184.15644375,91.15717060720887L184.8775921875,78.1112833938358L184.9372734375,83.98415665396202L185.10139687499998,77.37214350562184L185.31028125,83.6605074683481L185.6335546875,82.60701563594658L186.0015890625,82.98794210098934L186.235340625,76.64748365964147L186.5586140625,85.76159759095698L186.70284375,81.80716430027122L186.7674984375,75.87783360289832L187.110665625,82.03830619697153L187.1255859375,76.47380565192927L187.33944375000002,84.35261468998566L187.58314218750002,78.58353286809907L187.86165468750002,73.7267800487708L188.5181484375,76.73410973534772L188.55793593750002,74.3075131701576L188.59275,77.61283592028305L189.0552796875,85.96162089611819L189.1149609375,78.25521354261475L189.2144296875,76.18603757609985L189.7814015625,73.21380508655348L189.8012953125,84.78584494539523L189.93557812499998,84.55976334541097L189.94552499999998,80.5793689783159L190.393134375,84.69160698269268L190.741275,80.65289462098157L190.8755578125,75.46895091824933L190.910371875,80.90046834643606L190.92529218750002,85.4478369694705L191.049628125,78.06979946027727L191.726015625,90.51860160190185L192.183571875,89.6700175628562L192.2183859375,91.76449950370187L192.66599531249997,90.73311843772528L192.71075625,88.66193830430386L192.7704375,78.61677453195976L192.8649328125,88.8891819314714L192.94948125,89.35969939211343L193.218046875,84.15247549998364L193.277728125,89.83359306328059L193.4020640625,74.49433581157065L193.58608125,82.35241059376916L193.874540625,78.6028714317925L194.10331875,84.39627549045368L194.19781406250002,83.50193159218479L194.23262812500002,78.75454978248983L194.46140624999998,86.17946891368335L194.720025,84.27761850107257L194.73494531249997,80.310803831509L194.909015625,80.1331275206156L195.5555625,64.92386290915891L195.81418125,67.89233297758152L195.8191546875,64.39761397035629L195.923596875,65.90553100580998L196.19713593749998,72.2719956092538L196.629825,74.09339296415459L196.63479843750002,75.74787741896516L196.8237890625,72.15843859432344L196.997859375,76.57915071915511L197.0426203125,72.73469206494643L197.236584375,74.22466768266293L197.48028281249998,73.02393518830257L197.753821875,88.03596720543456L197.912971875,87.81843612579672L198.38544843749997,83.15406656973462L199.1414109375,81.63512031980099L199.385109375,83.63407492129647L199.564153125,80.94012659721758L199.87250625,86.66320037086717L200.2554609375,80.18718434834429L200.27038125,81.46327687182396L200.6483625,79.54471979664783L200.75280468749997,75.92645696954143L200.79259218750002,79.80369866941099L200.85724687500002,82.70115099104478L200.86719375,87.55044579596661L200.897034375,84.3738229470929L201.38443124999998,82.17152359232192L201.394378125,78.27958804455332L201.8270671875,79.0342733078416L201.8419875,74.83357605059241L201.9762703125,82.36636830758628L202.826728125,84.1243601500486L202.8615421875,83.51792682763902L203.18978906249998,80.26572397683245L203.21465625000002,74.69910042842736L203.73189374999998,79.93702688074414L203.8164421875,75.9426809683818L204.1496625,80.5642317232715L204.24913125,78.45132370574636L204.7812890625,75.22471493115046L205.03990781250002,66.19524901407968L205.114509375,67.30248975573784L205.1891109375,68.5047840489078L205.26868593749998,65.97014021236468L205.333340625,61.84610134696227L205.5074109375,65.32261634788073L205.60190624999998,69.55175981116984L205.63672031250002,65.118297669844L206.79553124999998,63.599476202461815L207.09393749999998,65.63252738483767L207.243140625,77.78754549126637L207.33763593749998,73.85288183272368L207.780271875,81.86874273526959L207.9742359375,80.81580441420252L207.9941296875,85.9644930721818L208.03889062500002,87.8583685041367L208.06873125,82.32779549365634L208.1930671875,84.60638190511105L208.476553125,81.831088664551L209.20267499999997,82.99340304995742L209.77959374999998,79.20273124495246L209.9437171875,79.21582278322636L210.485821875,78.5636581940142L210.51566250000002,80.43370013491436L210.5604234375,82.40919676933363L211.201996875,84.96232790657088L211.37109375,79.33671372239714L212.64429375,70.63271302881792L212.7387890625,75.85166782202097L212.952646875,74.47157778061492L213.2958140625,64.57888060162702L214.36510312500002,70.26541649192711L214.8674203125,65.82109609419192L215.140959375,72.90282220348172L215.2155609375,75.78885240259439L215.55872812500002,72.62008483709498L215.727825,74.56013630569936L216.09585937499997,63.387075969821L216.175434375,64.02053877189503L216.2301421875,65.83658418461529L216.3992390625,69.94714021566419L216.79711406250001,62.467736720340895L217.10049375,64.8135988422021L217.1054671875,71.3663500897756L217.3939265625,71.66179138855163L217.4933953125,61.53476346991076L217.70725312500002,77.3984756985999L217.7321203125,68.09334849594217L218.0902078125,62.57552701519835L218.7914625,66.1181251233036L218.9058515625,70.36871502072898L218.91082500000002,71.13382966322474L219.5872125,70.57718958260283L220.06466250000003,63.447107473621756L220.3580953125,62.92645280814766L220.412803125,67.16485003266692L221.82525937499997,72.46460408469416L222.02917031249999,71.51372279703841L222.3773109375,69.87097755181924L222.51656718750002,61.20293933336815L222.7702125,55.67377608171034L223.2526359375,48.15110683173492L223.4068125,53.031248358074166L223.4316796875,58.205110575666026L223.516228125,55.64120992297531L223.7698734375,59.15408508464455L223.95886406250003,56.81873841574645L224.9734453125,65.79617291623865L225.3315328125,67.40598564824172L225.85374375,60.557125858549526L226.28643281249998,63.08885816817536L226.3461140625,57.440175385982116L226.5052640625,68.33783099872487L226.6445203125,69.00447617186677L227.077209375,66.8074158132885L227.12694375,65.53256466512767L227.156784375,64.09940375879339L227.176678125,64.98855909106094L227.33085468750002,64.94830326316928L227.34080156250002,63.36976183461056L227.4104296875,53.963386164944794L227.4402703125,51.46766373326865L227.80333124999999,55.92735006338647L229.0317703125,62.24129225925381L229.4694328125,63.177080138419726L229.5987421875,66.20603930467048L230.0463515625,63.572824670753945L230.18063437499998,67.11261737935665L230.528775,80.31744963522506L230.86696874999998,77.16752515909523L230.94654375000002,83.02101663278015L231.274790625,69.49072731212657L231.51351562500003,81.09472794458796L231.593090625,66.40448910668808L231.73732031249997,55.99029737636637L231.86165625,62.303006665260725L231.9561515625,66.1922500517077L232.6723265625,60.86632810033004L232.7121140625,50.69783824203395L233.0304140625,53.139655971038266L233.164696875,58.22211456269498L233.8361109375,65.59685234052225L233.87092499999997,55.89052948368956L233.960446875,52.99653936990124L234.47271093749998,53.05717361431134L234.5920734375,45.65426260746011L234.6418078125,52.79871572563938L234.7114359375,62.125533222615076L235.0197890625,63.9875370737668L235.49226562500002,55.98632994155622L235.8205125,48.298552439573655L235.8851671875,41.01671683666899L236.0443171875,45.13698702262516L236.1338390625,55.71488811735318L236.1835734375,52.84257043220998L236.28801562499999,59.75755144130231L236.8301203125,52.043180271214496L237.17826093749997,43.86648216022627L237.6656578125,52.439185064873556L238.24755,54.50621779551592L238.43654062500002,56.55344154233032L238.6006640625,63.707782298292486L238.68521249999998,61.492586191872206L238.8791765625,64.82578494571415L240.0827484375,55.83820557131031L240.1623234375,55.09107407291924L240.8784984375,51.748389007807944L241.13711718750002,38.95884919295381L241.3559484375,38.26888884621664L241.53001875,49.65540778587939L241.679221875,58.605247063342816L241.79858437500002,49.929894358458554L241.91794687499998,49.42888189705755L241.957734375,45.75968780370084L242.01244218750003,44.67596053988652L242.017415625,57.25630943245241L242.315821875,51.206995307603776L242.4501046875,57.08279108715014L242.4699984375,63.87286402530644L242.5446,67.35335510341628L242.67390937500002,63.96370015006245L242.7286171875,62.28826357758631L242.783325,44.034367028692884L242.94744843750001,51.9773381661293L243.370190625,53.94151098912461L243.63378281250002,61.22921683898869L243.6536765625,50.01626059121669L243.71833125,51.576702384393116L244.11620625,61.717164619112424L244.13610000000003,58.820999798383966L244.2703828125,59.01303668094077L244.31514375,56.942918787434095L244.7478328125,59.23768473269607L244.782646875,56.73929329277317L245.00147812499998,52.347418730027925L245.2650703125,41.228938489298486L245.439140625,46.79798263856199L245.459034375,56.33166105835693L245.7624140625,49.16131766849193L246.24483750000002,41.322767850240666L246.433828125,41.3732584884647L246.66260625,44.64873967712424L246.6675796875,44.036095879943986L246.6825,50.86675424961554L246.9610125,52.193332674433634L247.37878124999997,52.4341696371614L247.49814375,46.843055226205536L247.74184218750003,61.08783896076605L247.8114703125,52.84720002715541L248.5475390625,43.22338051739189L248.6967421875,42.93599495853695L248.99017500000002,36.81885066011972L249.24382031250002,45.747174310561576L250.2683484375,46.77277842514309L250.31310937499998,53.2039882907426L250.41257812499998,49.06114530141089L250.5667546875,54.02133115515072L250.5767015625,48.03344503632164L251.248115625,51.82477006668435L251.427159375,52.27361789557092L251.64599062500002,42.992425379829115L251.9394234375,45.558192177818114L251.99910468750002,53.45204367888326L252.56110312500002,53.85240351827355L252.7451203125,51.30013153357156L252.899296875,49.534287771003534L253.0733671875,41.839145069370915L253.8193828125,42.44095114532129L253.86414375,40.70707722939858L253.9984265625,38.776533572899154L254.1476296875,39.11798839630296L254.31672656249998,39.4460180286265L254.54053125,37.355064354163204L254.58031875,42.222155147684674L254.71957500000002,40.906671956713836L255.28157343750001,35.363353016099836L255.3611484375,33.233288527799544L255.4755375,45.21509156302983L255.6695015625,33.328889379956564L255.75405,35.06681305531157L256.181765625,35.15656772591768L256.2265265625,43.670778671134116L256.3956234375,41.06268483115946L256.96756875,42.10533485957214L257.1615328125,42.003067878176125L257.4201515625,38.445994150215L258.85250156250004,30.377789532884123L258.95694375,19.050784056034217L259.6581984375,17.776772942928403L259.87205625,30.51467620777362L260.1356484375,38.98873627810045L260.1704625,48.51617656605461L260.26993125,45.0824191812099L260.399240625,43.3685126926554L260.84685,39.412201747062966L261.10546875,50.18567382381151L261.403875,42.19634491852395L261.4386890625,29.13717828900502L261.58291875000003,33.19092193311977L261.8465109375,49.750214914480026L261.8664046875,47.97233914613673L261.931059375,52.22535346555681L262.0006875,46.04715210084899L262.12005,48.99754169157018L262.17973125000003,54.12550144774238L262.33888125,36.19859779705118L262.3736953125,29.011836996254374L262.4433234375,34.05139777575556L263.005321875,33.32795544096601L263.0600296875,22.868837015800324L263.0898703125,36.41512901840963L263.29378125,37.87328488861536L263.313675,39.75337101480375L263.383303125,41.749961279994295L263.4976921875,49.03154434154395L264.0248765625,38.08456961029745L264.238734375,41.29570499249684L264.457565625,36.626208548476626L264.5470875,45.671668999630384L264.6266625,51.324067550443516L264.775865625,55.00358474108154L265.1190328125,51.744817127302724L265.7407125,44.135102556655085L265.9545703125,34.34927478701428L265.9645171875,31.053549991074533L266.148534375,38.8055008137365L266.1535078125,45.68963666225312L266.2032421875,34.88291407743L266.2430296875,35.397491747849614L266.367365625,38.864054092594046L266.7801609375,33.64718770076516L266.805028125,34.94109219962172L266.87962968749997,25.900803047739316L267.8444765625,19.288052247955108L268.5308109375,34.67288971364127L269.5851796875,29.875767061827304L269.97310781249996,37.0692805610405L270.24167343749997,28.127741336960014L270.36600937500003,31.07627574928901L270.9926625,27.346640464832234L271.3955109375,35.905225280028475L271.639209375,32.11614114946238L271.698890625,42.15235520664521L271.79338593750003,26.541622817895814L272.08681875,37.62473521493794L272.66373749999997,44.75712521709755L273.0566390625,33.22193088434787L273.2655234375,36.37817853869589L273.529115625,49.744929336199704" style="fill: none;" fill="none"></path></g></g></g></g><g opacity="0.2"><g><g><g><path stroke="rgb(255, 112, 67)" stroke-width="2px" d="M25.1307796875,154.27286263033747L25.1457,153.96525438241662L25.275009375,153.426942602545L25.3893984375,151.23242076337337L25.752459375,152.2841055214405L26.0608125,149.43889326453208L26.0856796875,147.10758313536644L26.190121875000003,150.47943614423275L26.27964375,136.62843078374863L26.4537140625,145.38138535022736L26.463660937500002,146.87441762387752L26.5034484375,143.68399229049683L27.279304687499998,139.97696138620375L27.5876578125,143.91291616559027L27.801515624999997,147.31975515782833L27.836329687499997,151.11583273261786L28.0750546875,146.62949464023114L28.139709375,150.8842971995473L28.259071875000004,146.12547102570534L28.4729296875,144.14824917912483L28.512717187499998,128.89991290569304L28.82604375,142.763412129879L28.9105921875,132.80097559690475L28.940432812500003,139.1235057413578L29.079689062499998,142.34893552064895L29.751103125,146.6118033081293L29.9649609375,137.14333094358443L30.2235796875,138.10192705392836L30.4125703125,131.33707773685455L30.7905515625,148.13325259387494L31.1934,147.5276802688837L31.4669390625,148.66367078125478L31.481859375,140.0548416495323L31.5514875,141.5823941230774L31.57138125,137.92219793200493L31.81010625,128.8831109404564L31.8449203125,146.84109696149827L32.0637515625,143.6086334824562L32.2129546875,145.8950669825077L32.496440625,145.28447917699813L32.6406703125,148.74533692002296L32.7202453125,143.1580990076065L32.799820312499996,141.1472922205925L33.331978125,141.30974779129028L33.5458359375,138.87526794075967L33.560756250000004,148.03187637627124L34.0929140625,144.728260910511L34.202329687500004,144.07867916822434L34.2570375,144.1901369869709L34.455974999999995,145.82361906766891L34.5405234375,147.69079099595547L34.605178125,148.00159201025963L35.0478140625,149.51832649111748L35.3462203125,147.30451828837394L35.798803125,147.65919948220252L35.858484375,145.52926923036574L36.017634375,132.7562329530716L36.047475,135.62119063138962L36.1718109375,142.41175668239595L36.395615625,149.22398192882537L36.8034375,137.53327242136L37.0371890625,142.07009527087212L37.1217375,138.011021733284L37.131684375,126.03933348655701L37.1565515625,147.25557673573493L37.2808875,146.21782591938972L37.285860937500004,139.52949380278588L37.3455421875,145.80370906591415L37.370409375,142.54232481122017L37.5146390625,139.35111719369888L37.589240625,146.03252111077308L38.275575,144.19616104960443L38.5491140625,144.95408202409743L39.678084375000005,145.11143138408661L40.031198437499995,144.38719557523729L40.046118750000005,149.12631668150425L40.334578125,136.79202786684036L40.64293125,148.56759278476238L40.9860984375,141.35762273669243L41.0557265625,135.8472269654274L41.0656734375,140.39112676978112L41.070646875,143.25896671414375L41.35910625,130.64106534719468L42.2294578125,146.94482214152814L42.9157921875,129.982151055336L42.9257390625,133.12099363803864L43.1744109375,148.50674131214618L43.527525000000004,149.10927417576312L43.78614375,143.43251457810402L43.890585937500006,146.13976894319057L43.925399999999996,142.26605349183083L44.4575578125,138.42904314994811L44.5968140625,140.42285174131393L44.736070312500004,147.01182427704333L44.9946890625,145.0167502105236L45.3030421875,146.97387373745443L45.7904390625,127.73939992189406L45.944615625,144.57520857453346L45.9694828125,142.55708112716675L46.392225,144.44581149816514L46.402171875,146.41840083003044L46.8050203125,148.04401417672634L47.262576562499994,148.8817508161068L47.347125000000005,146.98744845092295L47.4515671875,149.3464808732271L48.118007812500004,138.19361307621003L48.1379015625,148.73433482944966L48.1776890625,148.63988153636456L48.7347140625,148.3102814376354L48.8043421875,144.15828963518143L48.99333281249999,146.4311674118042L49.0530140625,134.90887212753296L49.2618984375,147.26404945850373L49.644853125,141.61483544111252L50.0377546875,148.7931596428156L50.047701562499995,146.52612921595573L50.3162671875,149.928471788764L50.4555234375,147.428011572361L50.977734375000004,145.08405302166938L51.50491875,146.11671134233475L51.574546875,144.91192097067832L51.8779265625,147.44778442382812L52.519499999999994,147.31077919900417L53.166046875,145.85179817676544L53.384878125,149.37527452111243L53.8076203125,139.09493839144707L53.9070890625,148.35751599669456L54.0861328125,142.95555862784386L54.120946875,146.73629673421382L54.299990625,145.08126992583274L54.4044328125,148.13624088764192L54.7127859375,145.49478542804718L54.8122546875,142.52135558724405L55.36430625,148.0492258876562L55.414040625,138.96575442552566L55.7572078125,148.89230400323868L55.821862499999995,148.1705163270235L55.851703125,145.20754841566085L55.9163578125,139.58527071475982L56.19984375,141.5647734761238L56.3142328125,143.75335235595702L56.6325328125,148.73745341598988L57.3487078125,140.45498288869857L57.617273437499996,148.80878158807755L57.761503125,140.78430604934692L58.030068750000005,139.18526451587678L58.2240328125,137.5206514298916L58.238953124999995,147.91739122867585L58.298634375,147.24151091873645L58.4528109375,148.96207129955292L59.0098359375,147.87451593875886L59.566860937499996,145.1821450173855L59.6961703125,147.75698183476925L60.263142187499994,144.566121840477L60.302929687500004,145.64689353704452L60.506840625,137.95464980006219L60.964396875000006,143.33143270611762L61.282696875,142.88896583318711L61.521421875,147.59283826053144L61.635810937500004,144.12254088521004L61.9740046875,138.77640790343284L62.0237390625,147.95718380212784L62.038659375,141.4542641043663L62.1132609375,139.99366418123245L62.277384375,143.16865746974946L63.18255,145.75488356351852L63.5157703125,144.94685736894607L63.6550265625,144.42433481812478L63.7047609375,141.7666692495346L63.87883125,140.02087585330008L64.664634375,142.8073160469532L65.0376421875,147.08724058270454L65.60461406249999,145.5979678094387L65.808525,144.15317498445512L66.3705234375,142.95235880613328L66.514753125,142.61090945005418L66.5396203125,141.20280221700668L66.58438124999999,138.6894989311695L67.03199062499999,146.01985686421395L67.0469109375,143.38306451439857L67.18616718749999,130.9200142621994L67.2359015625,140.73044818639755L67.69843125,143.7029506802559L67.86752812499999,141.0953776717186L68.16593437499999,133.48240785598756L68.782640625,145.1895606279373L69.0760734375,146.39985230863095L69.20538281249999,140.85356905460358L69.220303125,136.05864729881287L69.3247453125,142.5388907790184L69.359559375,140.50019711852073L69.64801875,138.05930918455124L69.677859375,139.26657353639604L69.956371875,121.51309336423873L70.9759265625,141.24613010287285L71.2544390625,143.53103173971175L71.41358906250001,145.14510494470596L71.846278125,137.86924209594727L72.01040156250001,143.74170091152192L72.40330312500001,135.51406148672103L72.4381171875,140.8080246090889L72.502771875,133.40089838504792L72.80117812499999,127.81443589925766L72.95038125,123.12414082288743L73.0647703125,135.49220817089082L73.1542921875,112.88218145370483L73.875440625,122.32861429452896L74.193740625,141.3810385107994L74.9447296875,140.77045070528985L75.07403906249999,133.28913989067078L76.02893906249999,137.73881322741508L76.063753125,102.51472535133362L76.62575156249999,125.649657869339L76.64067187500001,135.71173936128616L76.7451140625,132.17000198364258L77.038546875,138.27513837218285L77.2524046875,136.8287081837654L77.675146875,135.84443753957748L77.8293234375,137.85974813103675L77.9088984375,136.43272576332092L77.993446875,139.87274299263953L78.192384375,135.98277575969695L78.4211625,134.00178544521333L78.42613593749999,135.83782689571382L78.5355515625,125.3538078188896L78.709621875,124.54412316083909L78.83893125,124.53280720710754L78.88369218749999,123.65158495903015L79.1423109375,133.50423374176026L79.15723125,125.00952050685882L79.32632812499999,125.45699125528336L79.34622187500001,132.56860080957412L79.4606109375,135.06003073453903L79.49045156250001,135.36782130002976L79.50039843750001,138.78524671196936L79.7291765625,123.82560968399048L80.1369984375,124.88960262537003L80.23149375,134.14289410114287L80.2762546875,131.88369337320327L80.6144484375,138.1313436806202L80.6243953125,130.856768989563L80.9228015625,131.44651100635528L81.713578125,137.90354338288307L81.9771703125,116.26586050987243L82.0766390625,134.10576857328414L82.230815625,140.38229429125786L82.2755765625,136.10641779899598L82.36012500000001,132.94474918842315L82.4446734375,116.35354807376862L82.8524953125,124.37067235708236L82.966884375,136.76180838346482L83.0365125,134.60398914813996L83.40454687500001,139.6354223549366L83.97151875,131.75591572523118L84.44896874999999,129.7841883301735L84.47383593750001,136.37055026292802L84.6528796875,118.28782289028169L84.80705625,125.81566246747971L85.2894796875,129.33050994873048L85.4187890625,131.42575911283492L85.4386828125,133.99760341644287L85.51825781250001,122.15381308794022L85.72714218750001,103.35634281635285L86.0454421875,131.7945393562317L86.0603625,115.00237720012666L86.1399375,118.01352231502534L86.6173875,125.75950680971147L86.8809796875,135.10499070882798L87.94032187500001,132.35877352952957L88.07957812500001,124.53249703645707L88.6067625,126.90592496395112L88.96485,129.01357040405273L89.27320312500001,129.8087002515793L89.66113125,126.23451100587846L89.7456796875,116.58542068004607L89.8799625,120.73532041311265L89.98440468749999,102.99252319335938L90.0440859375,134.51077126264573L90.1186875,131.78654876947402L90.4021734375,130.14964320659638L90.76523437499999,109.58659086227416L91.3123125,119.6994960308075L91.5759046875,104.63260853290558L91.5957984375,108.04343490600586L92.0831953125,117.86646766662597L92.2920796875,111.19196662902831L92.54572499999999,133.84790493249892L92.6601140625,132.6822161078453L92.953546875,118.55451056957244L92.9684671875,120.3778118133545L93.43597031249999,106.58494920730591L93.6050671875,126.37434099912645L93.7791375,96.92030603885651L93.9731015625,121.38744682073593L94.4306578125,120.82962495088577L94.54007343750001,126.25053437948227L94.9478953125,120.23099981546403L95.64915,111.51638824939728L95.977396875,118.25037031173707L96.0122109375,114.37695078849794L96.056971875,135.5611546754837L96.14152031249999,123.6525070309639L96.23104218750001,122.51839020252228L96.52447500000001,129.30765438079834L96.773146875,114.03571665287018L97.0068984375,129.84671198129655L97.320225,107.99498076438904L97.69323281250001,122.03978633880615L97.7230734375,123.53558957576752L97.8722765625,83.07831830978394L97.9170375,117.64421668052674L97.96677187499999,103.63375353813171L98.42432812499999,102.74519691467285L98.4690890625,125.0937117934227L98.4889828125,115.15036869049072L98.57353124999999,103.69802005290985L98.89183125,107.33932642936706L98.9863265625,135.2053003191948L99.657740625,111.96669695377349L99.97106718750001,111.81113476753235L100.1998453125,103.88011343479157L100.41867656250001,93.8563601732254L100.84639218749999,129.46071410179138L101.13485156249999,98.6745299577713L101.87589374999999,105.84892058372498L101.885840625,119.98054440021514L102.044990625,111.87766742706299L102.1991671875,108.88387076854706L102.4926,132.25404345989227L103.2038015625,112.54684689044953L103.3231640625,118.93235750198363L103.367925,102.06961147785186L103.64146406249999,117.01761710643768L104.392453125,101.65429508686066L104.46208125000001,133.7778105854988L104.96937187500001,115.97270493507386L105.0738140625,106.69268181324006L105.73528125,106.33814198970795L106.09336875,130.30097905397415L106.202784375,103.76377623081207L106.28733281250001,120.92832040786743L106.5161109375,107.65789489746093L106.6852078125,106.73255245685577L107.00848124999999,97.86698062419892L107.40635625,104.35254764556885L107.7843375,116.1841991186142L107.96338125,99.01210112571717L108.5154328125,114.4282070159912L108.52040625000001,121.32830972671508L108.689503125,98.89211361408233L108.75913125,104.54838137626648L108.96801562499999,102.67463414669037L109.7985796875,115.19507124423981L109.95275625,86.03405048847198L110.121853125,104.64568212032319L110.658984375,111.68671624660492L110.8231078125,131.6420725464821L110.91262968749999,101.88556845188141L110.9225765625,96.59438631534576L111.04193906249999,113.27539343833922L111.04691249999999,96.80014550685883L111.06183281249999,105.65844204425812L111.156328125,128.82092700004577L111.3303984375,105.66056470870971L111.48457499999999,105.59802839756011L111.67853906250001,112.50631792545319L111.72827343750001,109.5791298866272L112.17090937500001,111.91466424465179L112.2405375,132.72112669944764L112.3847671875,105.46930124759675L112.42455468749999,107.46508269309997L112.56878437499999,107.25690121650696L113.06115468750001,123.83142696619035L114.21001874999999,111.74957327842712L114.34927499999999,130.3137530207634L114.3940359375,135.42786991596222L114.5332921875,123.62342694997787L114.7073625,122.06604745388032L114.76704375,108.81975617408753L115.08534374999999,112.31314702033997L115.75675781250001,100.91551501750946L116.02532343749999,132.54415851831436L116.686790625,116.45811989307404L116.6917640625,121.26953344345094L117.3880453125,114.65642931461335L117.98983125,92.29711332321168L118.0246453125,116.23023097515107L118.646325,106.40981040000915L119.20832343750001,116.46270282268523L119.30281875,105.94344456195832L119.442075,85.32200417518617L119.551490625,95.94055924415588L119.65593281250001,105.49332575798034L119.9941265625,134.57077556848526L120.25771875000001,106.8960566997528L120.546178125,104.63747420310975L120.765009375,106.09927682876587L121.829325,124.4006112098694L121.918846875,108.00950181484222L122.0282625,116.72916262149812L122.058103125,124.26667234897613L122.6002078125,111.80093078613281L122.66983593750001,106.62803971767426L122.72454375,118.76850299835206L122.9980828125,105.81037924289703L123.052790625,123.03880591392516L123.08263124999999,103.73510127067566L123.37606406249999,132.27223802804946L123.510346875,94.08673889636994L123.6247359375,103.069078373909L123.97287656249999,111.7443657875061L124.0822921875,104.91105315685272L124.246415625,135.0218797445297L124.365778125,111.48909323215484L124.56471562499999,98.00409715175628L124.65423750000001,104.60435979366302L124.684078125,119.9403678059578L124.6989984375,105.41733605861664L125.0769796875,109.45312042236328L125.08195312500001,107.39431736469268L125.3157046875,119.23475489616393L125.46988125,95.59257731437683L125.6041640625,121.55801957845688L125.619084375,119.8149512529373L125.64395156249999,128.15475429296492L125.997065625,89.49420454502106L126.0517734375,109.64047615528106L126.295471875,89.32878863811493L126.57895781250001,106.22971730232238L126.8027625,108.90910220146179L127.0066734375,118.46022713184357L127.07132812500001,104.03070023059846L127.0763015625,110.8600249528885L127.1857171875,101.45177264213562L127.2652921875,114.85219130516052L127.81734375,107.39855003356934L127.9217859375,119.94191232919692L128.264953125,110.81843254566192L128.27987343750002,102.13943996429444L128.284846875,122.16495813131331L128.52357187500002,100.68465099334716L128.64293437499998,88.66629366874695L129.299428125,113.46451735496521L129.697303125,98.66648240089417L129.76195781250001,99.85189554691314L130.0802578125,110.09470524787903L130.40353125,99.3896737575531L130.5179203125,89.51813621520996L130.93568906250002,108.18432834148408L130.950609375,116.00271341800689L130.9754765625,103.01168625354767L131.308696875,99.91388747692108L131.39821875,90.7231639623642L131.7712265625,123.11349585056306L131.965190625,117.82844960689545L132.75099375000002,90.04302091598511L132.959878125,80.02469458580016L132.9648515625,106.85337975025178L133.288125,112.48568630218506L133.317965625,107.77976453304291L133.447275,97.54978787899017L133.5517171875,97.38370521068573L133.5815578125,95.75608577728272L134.3673609375,102.16316907405853L135.5560125,96.04689924716949L135.6206671875,119.68220032453536L135.7897640625,126.8154817342758L135.9091265625,89.00399143695832L135.9787546875,92.1945586681366L136.1180109375,119.98303631544113L136.6849828125,100.74356231689453L136.859053125,93.88918762207031L137.0430703125,117.8825585603714L137.495653125,112.05987896919251L138.1422,113.06226189136504L138.5152078125,84.47962288856506L138.9628171875,110.3462641954422L138.9777375,84.28057351112365L139.7088328125,109.4190818309784L139.7287265625,93.35028827190399L139.942584375,101.49496443271637L139.9972921875,95.03231205940247L140.0470265625,92.2224233865738L140.2161234375,110.42493782043456L140.2658578125,80.83199071884155L140.3951671875,83.61829376220703L140.618971875,87.32486679553985L140.7333609375,96.42739634513855L140.98700625,122.45599948167802L141.10636875,92.53575060367584L141.20086406250002,114.84982810020446L141.434615625,99.53135633468628L141.9966140625,93.27324779033661L142.24031250000002,96.80044512748718L142.6431609375,103.12828931808471L142.69786875,86.81143519878388L142.7973375,96.26371486186981L143.1603984375,105.16788711547852L143.443884375,101.48126628398896L143.97604218749998,98.43837826251983L144.677296875,102.32508237361908L144.87126093749998,102.78326983451844L145.01549062499998,80.8038854598999L145.4481796875,87.42602462768555L145.6869046875,119.54177109003066L145.6968515625,115.5104915857315L145.8858421875,101.93980400562286L146.00023125,106.20125334262848L146.3533453125,102.63494074344635L147.0546,84.77612493038178L147.37290000000002,100.74636862277984L147.860296875,94.42709949016572L147.900084375,109.05841455459594L148.656046875,85.00659227371216L148.7654625,108.58030021190643L148.9295859375,98.25454623699189L149.2976203125,115.66986021995544L149.491584375,122.3489610671997L149.9193,99.35287528038025L150.28236093750002,97.6374543428421L150.406696875,88.07075335979461L150.4713515625,99.20455462932587L150.5161125,86.85958127975464L150.9090140625,93.15544624328614L151.20244687500002,103.09148662090301L151.76941875000003,81.5339047908783L151.84402031250002,106.73215155601501L152.236921875,108.26504023075104L152.6696109375,95.04085335731506L153.112246875,93.59331014156342L153.2962640625,91.62629649639129L153.470334375,90.58143496513367L153.83836874999997,96.39604589939117L154.455075,75.9547661304474L154.5595171875,86.53694050312042L154.604278125,111.14153752326965L154.68385312499998,93.86319658756256L154.9971796875,83.042676115036L155.00215312499998,83.85785522460937L155.07178125000002,94.20889971256256L155.68351406250002,110.85266103744507L155.73822187500002,102.786012840271L156.235565625,108.11046552658081L156.5687859375,97.50520348548889L157.5634734375,115.80883355140685L158.1951,97.98317856788636L158.2000734375,85.4946573972702L158.34430312499998,76.03447365760803L158.35424999999998,97.21383719444275L158.8466203125,86.37298049926757L159.5926359375,91.0387193441391L159.9109359375,98.31382048130035L159.94077656250002,99.0999026298523L159.9706171875,79.49622287750243L159.9905109375,81.8064245223999L159.99548437500002,95.72508559226989L160.5674296875,99.62328922748566L160.84096875,89.05048749446868L161.43778125,102.88868143558503L161.71629375,112.47737288475037L162.20369062499998,99.69130311012267L162.253425,78.65688843727112L162.2882390625,121.42470316886903L162.3777609375,90.12184224128723L162.66124687500002,87.9948058605194L162.88007812499998,86.82602376937866L163.30779375,91.41142630577087L163.7603765625,85.52064843177796L163.7703234375,72.48048348426819L163.9294734375,80.94392223358155L164.01899531249998,86.88091764450074L165.426478125,92.19945809841155L165.55578749999998,111.16815733909607L165.77461875,89.41855244636535L166.0481578125,87.10759963989257L166.3565109375,84.61680271625518L166.421165625,114.16024911403656L166.878721875,82.05525312423707L167.0229515625,88.68222420215606L167.216915625,79.13198547363281L168.609478125,102.38752584457397L169.0023796875,63.359533596038816L169.1316890625,96.04598772525787L169.2411046875,97.78829011917114L169.3356,76.55805859565736L169.45993593749998,74.93198790550231L169.5395109375,95.54249846935272L169.5991921875,106.41573107242584L169.81305,82.37770400047303L170.15124375000002,98.19471073150635L170.45959687500002,88.4833647251129L171.494071875,72.35744490623473L171.52888593749998,90.7512481212616L171.57364687499998,103.7844078540802L171.82231875,95.49242806434631L171.8372390625,92.04187030792237L171.94168125000002,101.55093019008636L172.0958578125,84.55782809257506L172.19035312499997,86.31472327709197L172.866740625,101.5118571281433L173.2695890625,79.81808295249938L173.2745625,101.20236167907714L173.443659375,104.69698054790497L174.1250203125,107.84370188713073L174.1498875,93.3573989868164L174.279196875,81.59809112548828L174.507975,83.27413516044616L174.58257656249998,91.67431597709655L174.9903984375,96.83830704689026L175.20425625,99.65863180160522L175.333565625,92.80466644763946L175.53747656250002,72.43462042808532L175.751334375,79.47423663139342L176.40782812499998,81.50347008705138L176.4426421875,83.38582191467286L176.4625359375,81.64422426223756L176.9698265625,84.66697018146515L177.1687640625,89.17972526550292L177.6362671875,95.20954821109771L177.70589531250002,88.65933487415313L177.7954171875,107.0877843618393L178.00430156250002,90.17493839263916L179.3570765625,74.50195212364197L179.62066875,99.07480201721191L180.2125078125,84.6105613231659L181.1176734375,92.00636737346649L181.30169062500002,90.89331049919129L181.76919375,85.1878627538681L182.5599703125,79.27767705917358L182.68927968749998,99.52243523597717L182.8882171875,131.49817024469377L183.1169953125,71.5950665473938L183.44026875,84.03612527847291L183.4750828125,65.62644639015197L183.5148703125,69.43364553451538L183.7535953125,57.88284831047058L183.79835625,97.60867388248444L184.0917890625,90.11933133602142L184.15644375,101.66111462116241L184.8775921875,58.542452573776245L184.9372734375,92.7934665441513L185.10139687499998,67.45412378311157L185.31028125,93.09305341243744L185.6335546875,81.02677788734435L186.0015890625,83.55933179855346L186.235340625,67.13679599761963L186.5586140625,99.4327684879303L186.70284375,75.87551436424256L186.7674984375,66.98383755683899L187.110665625,91.27901508808137L187.1255859375,68.12705483436584L187.33944375000002,96.17082824707032L187.58314218750002,69.92991013526917L187.86165468750002,66.44165081977845L188.5181484375,81.24510426521302L188.55793593750002,70.66761832237243L188.59275,82.5708200454712L189.0552796875,98.48479835987091L189.1149609375,66.69560251235963L189.2144296875,73.0822736263275L189.7814015625,68.75545635223388L189.8012953125,102.14390473365783L189.93557812499998,84.22064094543457L189.94552499999998,74.60877742767333L190.393134375,90.8599639892578L190.741275,74.59482607841493L190.8755578125,67.693035364151L190.910371875,89.04774448871612L190.92529218750002,92.26888990402222L191.049628125,67.00274319648743L191.726015625,109.19180481433868L192.183571875,88.39714150428772L192.2183859375,94.9062224149704L192.66599531249997,89.18604683876038L192.71075625,85.55516810417176L192.7704375,63.5490288734436L192.8649328125,104.29779303073883L192.94948125,90.06547558307648L193.218046875,76.34163966178893L193.277728125,98.35526940822601L193.4020640625,51.48544993400573L193.58608125,94.13952276706695L193.874540625,72.97856268882752L194.10331875,93.08638157844544L194.19781406250002,82.1604157447815L194.23262812500002,71.6334770679474L194.46140624999998,97.31684761047363L194.720025,81.42484288215637L194.73494531249997,74.3605818271637L194.909015625,79.8666130542755L195.5555625,42.109965991973866L195.81418125,72.34503808021545L195.8191546875,59.15553545951843L195.923596875,68.16740655899048L196.19713593749998,81.82169251441955L196.629825,76.82548899650574L196.63479843750002,78.22960410118104L196.8237890625,66.77428035736084L196.997859375,83.21021890640259L197.0426203125,66.96800408363343L197.236584375,76.45963110923766L197.48028281249998,71.22283644676209L197.753821875,110.55401523113251L197.912971875,87.49213950634002L198.38544843749997,76.15751223564148L199.1414109375,79.35670094490051L199.385109375,86.63250682353974L199.564153125,76.89920411109925L199.87250625,95.24781103134156L200.2554609375,70.47316031455993L200.27038125,83.37741565704346L200.6483625,76.66688418388367L200.75280468749997,70.49906272888184L200.79259218750002,85.61956121921538L200.85724687500002,87.04732947349548L200.86719375,94.8243880033493L200.897034375,79.60888867378235L201.38443124999998,78.8680745601654L201.394378125,72.44168472290039L201.8270671875,80.16630120277405L201.8419875,68.53253016471864L201.9762703125,93.6655566930771L202.826728125,86.76134791374206L202.8615421875,82.60827684402466L203.18978906249998,75.38741970062256L203.21465625000002,66.3491651058197L203.73189374999998,87.79391655921937L203.8164421875,69.95116209983826L204.1496625,87.49655785560607L204.24913125,75.28196167945862L204.7812890625,70.38480176925658L205.03990781250002,52.65105013847351L205.114509375,68.9633508682251L205.1891109375,70.30822548866273L205.26868593749998,62.16817445755005L205.333340625,55.66004304885864L205.5074109375,70.53738884925842L205.60190624999998,75.89547500610352L205.63672031250002,58.46810445785523L206.79553124999998,61.32124400138855L207.09393749999998,68.68210415840149L207.243140625,96.02007265090943L207.33763593749998,67.95088634490968L207.780271875,93.89253408908844L207.9742359375,79.23639693260192L207.9941296875,93.6875260591507L208.03889062500002,90.69918165206909L208.06873125,74.03193597793579L208.1930671875,88.02426152229309L208.476553125,77.66814880371093L209.20267499999997,84.73687462806701L209.77959374999998,73.51672353744506L209.9437171875,79.2354600906372L210.485821875,77.58541131019592L210.51566250000002,83.23876304626465L210.5604234375,85.37244172096253L211.201996875,88.79202461242676L211.37109375,70.89829244613647L212.64429375,57.576711988449105L212.7387890625,83.68010001182556L212.952646875,72.40144271850586L213.2958140625,49.73983483314514L214.36510312500002,78.79522032737732L214.8674203125,59.15461549758912L215.140959375,83.52541136741638L215.2155609375,80.11789770126343L215.55872812500002,67.86693348884582L215.727825,77.47021350860597L216.09585937499997,46.62748546600341L216.175434375,64.9707329750061L216.2301421875,68.56065230369568L216.3992390625,76.11297426223756L216.79711406250001,51.24863147735596L217.10049375,68.3323920249939L217.1054671875,81.19547696113587L217.3939265625,72.1049533367157L217.4933953125,46.34422159194946L217.70725312500002,101.1940440416336L217.7321203125,54.13565769195556L218.0902078125,54.29879479408264L218.7914625,71.43202228546143L218.9058515625,76.74459986686706L218.91082500000002,72.28150162696839L219.5872125,69.74222946166992L220.06466250000003,52.75198431015015L220.3580953125,62.145470809936526L220.412803125,73.5224458694458L221.82525937499997,80.41423516273498L222.02917031249999,70.08740086555481L222.3773109375,67.40685968399048L222.51656718750002,48.20088200569154L222.7702125,47.38003120422363L223.2526359375,36.867102956771845L223.4068125,60.35146064758301L223.4316796875,65.96590390205382L223.516228125,51.795358943939206L223.7698734375,64.42339782714843L223.95886406250003,53.31571841239929L224.9734453125,79.26232466697694L225.3315328125,69.82070474624634L225.85374375,50.28383617401123L226.28643281249998,66.88645663261413L226.3461140625,48.96715121269227L226.5052640625,84.68431441783905L226.6445203125,70.00444393157959L227.077209375,63.511825275421145L227.12694375,63.62028794288635L227.156784375,61.949662399291995L227.176678125,66.32229208946228L227.33085468750002,64.8879195213318L227.34080156250002,61.00194969177245L227.4104296875,39.853822660446156L227.4402703125,47.724080085754395L227.80333124999999,62.61687955856324L229.0317703125,71.7122055530548L229.4694328125,64.58076195716858L229.5987421875,70.74947805404663L230.0463515625,59.62300271987915L230.18063437499998,72.42230644226073L230.528775,100.1246980190277L230.86696874999998,72.44263844490051L230.94654375000002,91.80125384330749L231.274790625,49.19529333114623L231.51351562500003,98.50072889328003L231.593090625,44.36913084983826L231.73732031249997,40.3690097808838L231.86165625,71.7720705986023L231.9561515625,72.02611513137818L232.6723265625,52.87744517326355L232.7121140625,35.445103454589855L233.0304140625,56.802382564544686L233.164696875,65.84580245018005L233.8361109375,76.65895900726319L233.87092499999997,41.33104519844056L233.960446875,48.655554199218756L234.47271093749998,53.14812498092651L234.5920734375,34.54989609718322L234.6418078125,63.515395402908325L234.7114359375,76.11575946807862L235.0197890625,66.78054285049438L235.49226562500002,43.984519243240356L235.8205125,36.76688618659972L235.8851671875,30.093963432312023L236.0443171875,51.31739230155945L236.1338390625,71.5817397594452L236.1835734375,48.53409390449525L236.28801562499999,70.1300229549408L236.8301203125,40.47162351608276L237.17826093749997,31.601434993743908L237.6656578125,65.29823942184449L238.24755,57.606766891479495L238.43654062500002,59.62427716255188L238.6006640625,74.43929343223571L238.68521249999998,58.16979203224183L238.8791765625,69.82558307647706L240.0827484375,42.35683650970458L240.1623234375,53.97037682533265L240.8784984375,46.73436141014099L241.13711718750002,19.774539470672607L241.3559484375,37.233948326110834L241.53001875,66.73518619537354L241.679221875,72.03000597953796L241.79858437500002,36.91686530113219L241.91794687499998,48.677363204956066L241.957734375,40.255896663665766L242.01244218750003,43.050369644165045L242.017415625,76.12683277130127L242.315821875,42.133024120330816L242.4501046875,65.89648475646972L242.4699984375,74.05797343254089L242.5446,72.57409172058105L242.67390937500002,58.87921772003175L242.7286171875,59.77510871887206L242.783325,16.653522205352772L242.94744843750001,63.89179487228394L243.370190625,56.88777022361755L243.63378281250002,72.16077561378479L243.6536765625,33.196826219558716L243.71833125,53.917365074157715L244.11620625,76.92785797119141L244.13610000000003,54.47675256729126L244.2703828125,59.30109200477601L244.31514375,53.83774194717408L244.7478328125,62.67983365058899L244.782646875,52.991706132888794L245.00147812499998,45.759606885910046L245.2650703125,24.55121812820434L245.439140625,55.151548862457275L245.459034375,70.63217868804931L245.7624140625,38.40580258369445L246.24483750000002,29.56494312286378L246.433828125,41.44899444580079L246.66260625,49.56196146011352L246.6675796875,43.11713018417359L246.6825,61.11274180412293L246.9610125,54.18320031166077L247.37878124999997,52.79542508125304L247.49814375,38.456383609771734L247.74184218750003,82.45501456260682L247.8114703125,40.48624162673951L248.5475390625,28.78765125274657L248.6967421875,42.504916620254505L248.99017500000002,27.64313421249389L249.24382031250002,59.13965978622436L250.2683484375,48.31118459701537L250.31310937499998,62.85080308914185L250.41257812499998,42.846880817413336L250.5667546875,61.46160993576051L250.5767015625,39.05161585807801L251.248115625,57.511757612228394L251.427159375,52.94688963890076L251.64599062500002,29.070636606216425L251.9394234375,49.40684237480163L251.99910468750002,65.29282093048096L252.56110312500002,54.45294327735901L252.7451203125,47.471723556518555L252.899296875,46.88552212715149L253.0733671875,30.296431016921986L253.8193828125,43.34366025924683L253.86414375,38.10626635551452L253.9984265625,35.88071808815002L254.1476296875,39.6301706314087L254.31672656249998,39.93806247711183L254.54053125,34.21863384246825L254.58031875,49.52279133796692L254.71957500000002,38.93344717025758L255.28157343750001,27.04837460517882L255.3611484375,30.03819179534912L255.4755375,63.187796115875244L255.6695015625,15.49958610534668L255.75405,37.67369856834412L256.181765625,35.291199731826794L256.2265265625,56.44209508895874L256.3956234375,37.150544071197515L256.96756875,43.66930990219117L257.1615328125,41.84966740608215L257.4201515625,33.11038355827333L258.85250156250004,18.275482606887806L258.95694375,2.0602758407592887L259.6581984375,15.865756273269653L259.87205625,49.62153110504151L260.1356484375,51.69982638359069L260.1704625,62.80733699798584L260.26993125,39.93178310394288L260.399240625,40.79765295982361L260.84685,33.47773532867433L261.10546875,66.34588193893433L261.403875,30.21235156059265L261.4386890625,9.548428344726574L261.58291875000003,39.27153739929199L261.8465109375,74.58915438652038L261.8664046875,45.305525493621815L261.931059375,58.6048749446869L262.0006875,36.77985005378724L262.12005,53.423126077651986L262.17973125000003,61.81744108200074L262.33888125,9.308242321014404L262.3736953125,18.23169579505921L262.4433234375,41.61073894500731L263.005321875,32.24279193878175L263.0600296875,7.180159378051769L263.0898703125,56.73456702232362L263.29378125,40.06051869392394L263.313675,42.573500204086315L263.383303125,44.744846677780146L263.4976921875,59.95391893386841L264.0248765625,21.664107513427723L264.238734375,46.112408065795904L264.457565625,29.621963882446295L264.5470875,59.23985967636109L264.6266625,59.8026653766632L264.775865625,60.522860527038574L265.1190328125,46.856665706634516L265.7407125,32.72053070068358L265.9545703125,19.67053313255309L265.9645171875,26.10996279716491L266.148534375,50.433427047729495L266.1535078125,56.01584043502807L266.2032421875,18.672830200195307L266.2430296875,36.169358253479004L266.367365625,44.06389760971069L266.7801609375,25.821888113021856L266.805028125,36.881948947906494L266.87962968749997,12.340369319915766L267.8444765625,9.368926048278809L268.5308109375,57.75014591217041L269.5851796875,22.680083084106457L269.97310781249996,47.859550809860224L270.24167343749997,14.715432500839228L270.36600937500003,35.499077367782604L270.9926625,21.752187538146984L271.3955109375,48.743102502822865L271.639209375,26.432514953613293L271.698890625,57.20667629241943L271.79338593750003,3.125524234771717L272.08681875,54.24940381050111L272.66373749999997,55.45571022033691L273.0566390625,15.919139385223389L273.2655234375,41.112550020217896L273.529115625,69.79505553245544" style="fill: none;" fill="none"></path></g></g></g></g></g></g><g transform="translate(31, 177)" clip-path="url(#clip_1)"><clipPath id="clip_1"><rect width="298" height="23"></rect></clipPath><g><g><line x1="0" y1="0" x2="0" y2="5" style="visibility: inherit;" fill="rgb(0, 0, 0)" stroke="rgb(204, 204, 204)" stroke-width="1px"></line><line x1="24.8671875" y1="0" x2="24.8671875" y2="5" style="visibility: inherit;" fill="rgb(0, 0, 0)" stroke="rgb(204, 204, 204)" stroke-width="1px"></line><line x1="49.734375" y1="0" x2="49.734375" y2="5" style="visibility: inherit;" fill="rgb(0, 0, 0)" stroke="rgb(204, 204, 204)" stroke-width="1px"></line><line x1="74.6015625" y1="0" x2="74.6015625" y2="5" style="visibility: inherit;" fill="rgb(0, 0, 0)" stroke="rgb(204, 204, 204)" stroke-width="1px"></line><line x1="99.46875" y1="0" x2="99.46875" y2="5" style="visibility: inherit;" fill="rgb(0, 0, 0)" stroke="rgb(204, 204, 204)" stroke-width="1px"></line><line x1="124.3359375" y1="0" x2="124.3359375" y2="5" style="visibility: inherit;" fill="rgb(0, 0, 0)" stroke="rgb(204, 204, 204)" stroke-width="1px"></line><line x1="149.203125" y1="0" x2="149.203125" y2="5" style="visibility: inherit;" fill="rgb(0, 0, 0)" stroke="rgb(204, 204, 204)" stroke-width="1px"></line><line x1="174.0703125" y1="0" x2="174.0703125" y2="5" style="visibility: inherit;" fill="rgb(0, 0, 0)" stroke="rgb(204, 204, 204)" stroke-width="1px"></line><line x1="198.9375" y1="0" x2="198.9375" y2="5" style="visibility: inherit;" fill="rgb(0, 0, 0)" stroke="rgb(204, 204, 204)" stroke-width="1px"></line><line x1="223.8046875" y1="0" x2="223.8046875" y2="5" style="visibility: inherit;" fill="rgb(0, 0, 0)" stroke="rgb(204, 204, 204)" stroke-width="1px"></line><line x1="248.671875" y1="0" x2="248.671875" y2="5" style="visibility: inherit;" fill="rgb(0, 0, 0)" stroke="rgb(204, 204, 204)" stroke-width="1px"></line><line x1="273.5390625" y1="0" x2="273.5390625" y2="5" style="visibility: inherit;" fill="rgb(0, 0, 0)" stroke="rgb(204, 204, 204)" stroke-width="1px"></line><line x1="298.40625" y1="0" x2="298.40625" y2="5" style="visibility: inherit;" fill="rgb(0, 0, 0)" stroke="rgb(204, 204, 204)" stroke-width="1px"></line></g><g transform="translate(0, 8)"><text x="0" y="0" dx="0em" dy="0.95em" style="text-anchor: middle; visibility: hidden; font-family: &quot;Helvetica Neue&quot;, sans-serif; font-size: 12px; font-weight: 200;" fill="rgb(50, 49, 63)" stroke="none" stroke-width="1px">-500k</text><text x="24.8671875" y="0" dx="0em" dy="0.95em" style="text-anchor: middle; visibility: inherit; font-family: &quot;Helvetica Neue&quot;, sans-serif; font-size: 12px; font-weight: 200;" fill="rgb(50, 49, 63)" stroke="none" stroke-width="1px">0</text><text x="49.734375" y="0" dx="0em" dy="0.95em" style="text-anchor: middle; visibility: hidden; font-family: &quot;Helvetica Neue&quot;, sans-serif; font-size: 12px; font-weight: 200;" fill="rgb(50, 49, 63)" stroke="none" stroke-width="1px">500k</text><text x="74.6015625" y="0" dx="0em" dy="0.95em" style="text-anchor: middle; visibility: inherit; font-family: &quot;Helvetica Neue&quot;, sans-serif; font-size: 12px; font-weight: 200;" fill="rgb(50, 49, 63)" stroke="none" stroke-width="1px">1M</text><text x="99.46875" y="0" dx="0em" dy="0.95em" style="text-anchor: middle; visibility: hidden; font-family: &quot;Helvetica Neue&quot;, sans-serif; font-size: 12px; font-weight: 200;" fill="rgb(50, 49, 63)" stroke="none" stroke-width="1px">1.5M</text><text x="124.3359375" y="0" dx="0em" dy="0.95em" style="text-anchor: middle; visibility: inherit; font-family: &quot;Helvetica Neue&quot;, sans-serif; font-size: 12px; font-weight: 200;" fill="rgb(50, 49, 63)" stroke="none" stroke-width="1px">2M</text><text x="149.203125" y="0" dx="0em" dy="0.95em" style="text-anchor: middle; visibility: hidden; font-family: &quot;Helvetica Neue&quot;, sans-serif; font-size: 12px; font-weight: 200;" fill="rgb(50, 49, 63)" stroke="none" stroke-width="1px">2.5M</text><text x="174.0703125" y="0" dx="0em" dy="0.95em" style="text-anchor: middle; visibility: inherit; font-family: &quot;Helvetica Neue&quot;, sans-serif; font-size: 12px; font-weight: 200;" fill="rgb(50, 49, 63)" stroke="none" stroke-width="1px">3M</text><text x="198.9375" y="0" dx="0em" dy="0.95em" style="text-anchor: middle; visibility: hidden; font-family: &quot;Helvetica Neue&quot;, sans-serif; font-size: 12px; font-weight: 200;" fill="rgb(50, 49, 63)" stroke="none" stroke-width="1px">3.5M</text><text x="223.8046875" y="0" dx="0em" dy="0.95em" style="text-anchor: middle; visibility: inherit; font-family: &quot;Helvetica Neue&quot;, sans-serif; font-size: 12px; font-weight: 200;" fill="rgb(50, 49, 63)" stroke="none" stroke-width="1px">4M</text><text x="248.671875" y="0" dx="0em" dy="0.95em" style="text-anchor: middle; visibility: hidden; font-family: &quot;Helvetica Neue&quot;, sans-serif; font-size: 12px; font-weight: 200;" fill="rgb(50, 49, 63)" stroke="none" stroke-width="1px">4.5M</text><text x="273.5390625" y="0" dx="0em" dy="0.95em" style="text-anchor: middle; visibility: inherit; font-family: &quot;Helvetica Neue&quot;, sans-serif; font-size: 12px; font-weight: 200;" fill="rgb(50, 49, 63)" stroke="none" stroke-width="1px">5M</text><text x="298.40625" y="0" dx="0em" dy="0.95em" style="text-anchor: middle; visibility: hidden; font-family: &quot;Helvetica Neue&quot;, sans-serif; font-size: 12px; font-weight: 200;" fill="rgb(50, 49, 63)" stroke="none" stroke-width="1px">5.5M</text></g><line x1="0" y1="0" x2="298.40625" y2="0" fill="rgb(0, 0, 0)" stroke="rgb(204, 204, 204)" stroke-width="1px"></line></g></g></g></g></svg>