<svg viewBox="0 0 330 200" xmlns="http://www.w3.org/2000/svg"><g><g><g><g><g><line x1="53.1875" y1="177" x2="48.1875" y2="177" style="visibility: inherit;" fill="rgb(0, 0, 0)" stroke="rgb(204, 204, 204)" stroke-width="1px"></line><line x1="53.1875" y1="163.3846153846154" x2="48.1875" y2="163.3846153846154" style="visibility: inherit;" fill="rgb(0, 0, 0)" stroke="rgb(204, 204, 204)" stroke-width="1px"></line><line x1="53.1875" y1="149.76923076923077" x2="48.1875" y2="149.76923076923077" style="visibility: inherit;" fill="rgb(0, 0, 0)" stroke="rgb(204, 204, 204)" stroke-width="1px"></line><line x1="53.1875" y1="136.15384615384616" x2="48.1875" y2="136.15384615384616" style="visibility: inherit;" fill="rgb(0, 0, 0)" stroke="rgb(204, 204, 204)" stroke-width="1px"></line><line x1="53.1875" y1="122.53846153846153" x2="48.1875" y2="122.53846153846153" style="visibility: inherit;" fill="rgb(0, 0, 0)" stroke="rgb(204, 204, 204)" stroke-width="1px"></line><line x1="53.1875" y1="108.92307692307693" x2="48.1875" y2="108.92307692307693" style="visibility: inherit;" fill="rgb(0, 0, 0)" stroke="rgb(204, 204, 204)" stroke-width="1px"></line><line x1="53.1875" y1="95.3076923076923" x2="48.1875" y2="95.3076923076923" style="visibility: inherit;" fill="rgb(0, 0, 0)" stroke="rgb(204, 204, 204)" stroke-width="1px"></line><line x1="53.1875" y1="81.6923076923077" x2="48.1875" y2="81.6923076923077" style="visibility: inherit;" fill="rgb(0, 0, 0)" stroke="rgb(204, 204, 204)" stroke-width="1px"></line><line x1="53.1875" y1="68.0769230769231" x2="48.1875" y2="68.0769230769231" style="visibility: inherit;" fill="rgb(0, 0, 0)" stroke="rgb(204, 204, 204)" stroke-width="1px"></line><line x1="53.1875" y1="54.46153846153847" x2="48.1875" y2="54.46153846153847" style="visibility: inherit;" fill="rgb(0, 0, 0)" stroke="rgb(204, 204, 204)" stroke-width="1px"></line><line x1="53.1875" y1="40.84615384615387" x2="48.1875" y2="40.84615384615387" style="visibility: inherit;" fill="rgb(0, 0, 0)" stroke="rgb(204, 204, 204)" stroke-width="1px"></line><line x1="53.1875" y1="27.230769230769226" x2="48.1875" y2="27.230769230769226" style="visibility: inherit;" fill="rgb(0, 0, 0)" stroke="rgb(204, 204, 204)" stroke-width="1px"></line><line x1="53.1875" y1="13.615384615384613" x2="48.1875" y2="13.615384615384613" style="visibility: inherit;" fill="rgb(0, 0, 0)" stroke="rgb(204, 204, 204)" stroke-width="1px"></line><line x1="53.1875" y1="0" x2="48.1875" y2="0" style="visibility: inherit;" fill="rgb(0, 0, 0)" stroke="rgb(204, 204, 204)" stroke-width="1px"></line></g><g transform="translate(43.1875, 0)"><text x="0" y="177" dx="0em" dy="0.3em" style="text-anchor: end; visibility: hidden; font-family: &quot;Helvetica Neue&quot;, sans-serif; font-size: 12px; font-weight: 200;" fill="rgb(50, 49, 63)" stroke="none" stroke-width="1px">-0.2</text><text x="0" y="163.3846153846154" dx="0em" dy="0.3em" style="text-anchor: end; visibility: inherit; font-family: &quot;Helvetica Neue&quot;, sans-serif; font-size: 12px; font-weight: 200;" fill="rgb(50, 49, 63)" stroke="none" stroke-width="1px">0</text><text x="0" y="149.76923076923077" dx="0em" dy="0.3em" style="text-anchor: end; visibility: hidden; font-family: &quot;Helvetica Neue&quot;, sans-serif; font-size: 12px; font-weight: 200;" fill="rgb(50, 49, 63)" stroke="none" stroke-width="1px">0.2</text><text x="0" y="136.15384615384616" dx="0em" dy="0.3em" style="text-anchor: end; visibility: inherit; font-family: &quot;Helvetica Neue&quot;, sans-serif; font-size: 12px; font-weight: 200;" fill="rgb(50, 49, 63)" stroke="none" stroke-width="1px">0.4</text><text x="0" y="122.53846153846153" dx="0em" dy="0.3em" style="text-anchor: end; visibility: hidden; font-family: &quot;Helvetica Neue&quot;, sans-serif; font-size: 12px; font-weight: 200;" fill="rgb(50, 49, 63)" stroke="none" stroke-width="1px">0.6</text><text x="0" y="108.92307692307693" dx="0em" dy="0.3em" style="text-anchor: end; visibility: inherit; font-family: &quot;Helvetica Neue&quot;, sans-serif; font-size: 12px; font-weight: 200;" fill="rgb(50, 49, 63)" stroke="none" stroke-width="1px">0.8</text><text x="0" y="95.3076923076923" dx="0em" dy="0.3em" style="text-anchor: end; visibility: hidden; font-family: &quot;Helvetica Neue&quot;, sans-serif; font-size: 12px; font-weight: 200;" fill="rgb(50, 49, 63)" stroke="none" stroke-width="1px">1</text><text x="0" y="81.6923076923077" dx="0em" dy="0.3em" style="text-anchor: end; visibility: inherit; font-family: &quot;Helvetica Neue&quot;, sans-serif; font-size: 12px; font-weight: 200;" fill="rgb(50, 49, 63)" stroke="none" stroke-width="1px">1.2</text><text x="0" y="68.0769230769231" dx="0em" dy="0.3em" style="text-anchor: end; visibility: hidden; font-family: &quot;Helvetica Neue&quot;, sans-serif; font-size: 12px; font-weight: 200;" fill="rgb(50, 49, 63)" stroke="none" stroke-width="1px">1.4</text><text x="0" y="54.46153846153847" dx="0em" dy="0.3em" style="text-anchor: end; visibility: inherit; font-family: &quot;Helvetica Neue&quot;, sans-serif; font-size: 12px; font-weight: 200;" fill="rgb(50, 49, 63)" stroke="none" stroke-width="1px">1.6</text><text x="0" y="40.84615384615387" dx="0em" dy="0.3em" style="text-anchor: end; visibility: hidden; font-family: &quot;Helvetica Neue&quot;, sans-serif; font-size: 12px; font-weight: 200;" fill="rgb(50, 49, 63)" stroke="none" stroke-width="1px">1.8</text><text x="0" y="27.230769230769226" dx="0em" dy="0.3em" style="text-anchor: end; visibility: inherit; font-family: &quot;Helvetica Neue&quot;, sans-serif; font-size: 12px; font-weight: 200;" fill="rgb(50, 49, 63)" stroke="none" stroke-width="1px">2</text><text x="0" y="13.615384615384613" dx="0em" dy="0.3em" style="text-anchor: end; visibility: hidden; font-family: &quot;Helvetica Neue&quot;, sans-serif; font-size: 12px; font-weight: 200;" fill="rgb(50, 49, 63)" stroke="none" stroke-width="1px">2.2</text><text x="0" y="0" dx="0em" dy="0.3em" style="text-anchor: end; visibility: hidden; font-family: &quot;Helvetica Neue&quot;, sans-serif; font-size: 12px; font-weight: 200;" fill="rgb(50, 49, 63)" stroke="none" stroke-width="1px">2.4</text></g><line x1="53.1875" y1="0" x2="53.1875" y2="177" fill="rgb(0, 0, 0)" stroke="rgb(204, 204, 204)" stroke-width="1px"></line></g></g><g transform="translate(53, 0)" clip-path="url(#clip_0)"><clipPath id="clip_0"><rect width="276" height="177"></rect></clipPath><g><g><g><line x1="0" y1="0" x2="0" y2="177" fill="rgb(0, 0, 0)" stroke="rgb(60, 60, 60)" stroke-width="1px" opacity="0.25"></line><line x1="23.067708333333332" y1="0" x2="23.067708333333332" y2="177" fill="rgb(0, 0, 0)" stroke="rgb(60, 60, 60)" stroke-width="1px" opacity="0.25"></line><line x1="46.135416666666664" y1="0" x2="46.135416666666664" y2="177" fill="rgb(0, 0, 0)" stroke="rgb(60, 60, 60)" stroke-width="1px" opacity="0.25"></line><line x1="69.203125" y1="0" x2="69.203125" y2="177" fill="rgb(0, 0, 0)" stroke="rgb(60, 60, 60)" stroke-width="1px" opacity="0.25"></line><line x1="92.27083333333333" y1="0" x2="92.27083333333333" y2="177" fill="rgb(0, 0, 0)" stroke="rgb(60, 60, 60)" stroke-width="1px" opacity="0.25"></line><line x1="115.33854166666667" y1="0" x2="115.33854166666667" y2="177" fill="rgb(0, 0, 0)" stroke="rgb(60, 60, 60)" stroke-width="1px" opacity="0.25"></line><line x1="138.40625" y1="0" x2="138.40625" y2="177" fill="rgb(0, 0, 0)" stroke="rgb(60, 60, 60)" stroke-width="1px" opacity="0.25"></line><line x1="161.47395833333334" y1="0" x2="161.47395833333334" y2="177" fill="rgb(0, 0, 0)" stroke="rgb(60, 60, 60)" stroke-width="1px" opacity="0.25"></line><line x1="184.54166666666666" y1="0" x2="184.54166666666666" y2="177" fill="rgb(0, 0, 0)" stroke="rgb(60, 60, 60)" stroke-width="1px" opacity="0.25"></line><line x1="207.609375" y1="0" x2="207.609375" y2="177" fill="rgb(0, 0, 0)" stroke="rgb(60, 60, 60)" stroke-width="1px" opacity="0.25"></line><line x1="230.67708333333334" y1="0" x2="230.67708333333334" y2="177" fill="rgb(0, 0, 0)" stroke="rgb(60, 60, 60)" stroke-width="1px" opacity="0.25"></line><line x1="253.74479166666666" y1="0" x2="253.74479166666666" y2="177" fill="rgb(0, 0, 0)" stroke="rgb(60, 60, 60)" stroke-width="1px" opacity="0.25"></line><line x1="276.8125" y1="0" x2="276.8125" y2="177" fill="rgb(0, 0, 0)" stroke="rgb(60, 60, 60)" stroke-width="1px" opacity="0.25"></line></g><g><line x1="0" y1="177" x2="276.8125" y2="177" fill="rgb(0, 0, 0)" stroke="rgb(60, 60, 60)" stroke-width="1px" opacity="0.25"></line><line x1="0" y1="163.3846153846154" x2="276.8125" y2="163.3846153846154" fill="rgb(0, 0, 0)" stroke="rgb(60, 60, 60)" stroke-width="1px" opacity="0.25"></line><line x1="0" y1="149.76923076923077" x2="276.8125" y2="149.76923076923077" fill="rgb(0, 0, 0)" stroke="rgb(60, 60, 60)" stroke-width="1px" opacity="0.25"></line><line x1="0" y1="136.15384615384616" x2="276.8125" y2="136.15384615384616" fill="rgb(0, 0, 0)" stroke="rgb(60, 60, 60)" stroke-width="1px" opacity="0.25"></line><line x1="0" y1="122.53846153846153" x2="276.8125" y2="122.53846153846153" fill="rgb(0, 0, 0)" stroke="rgb(60, 60, 60)" stroke-width="1px" opacity="0.25"></line><line x1="0" y1="108.92307692307693" x2="276.8125" y2="108.92307692307693" fill="rgb(0, 0, 0)" stroke="rgb(60, 60, 60)" stroke-width="1px" opacity="0.25"></line><line x1="0" y1="95.3076923076923" x2="276.8125" y2="95.3076923076923" fill="rgb(0, 0, 0)" stroke="rgb(60, 60, 60)" stroke-width="1px" opacity="0.25"></line><line x1="0" y1="81.6923076923077" x2="276.8125" y2="81.6923076923077" fill="rgb(0, 0, 0)" stroke="rgb(60, 60, 60)" stroke-width="1px" opacity="0.25"></line><line x1="0" y1="68.0769230769231" x2="276.8125" y2="68.0769230769231" fill="rgb(0, 0, 0)" stroke="rgb(60, 60, 60)" stroke-width="1px" opacity="0.25"></line><line x1="0" y1="54.46153846153847" x2="276.8125" y2="54.46153846153847" fill="rgb(0, 0, 0)" stroke="rgb(60, 60, 60)" stroke-width="1px" opacity="0.25"></line><line x1="0" y1="40.84615384615387" x2="276.8125" y2="40.84615384615387" fill="rgb(0, 0, 0)" stroke="rgb(60, 60, 60)" stroke-width="1px" opacity="0.25"></line><line x1="0" y1="27.230769230769226" x2="276.8125" y2="27.230769230769226" fill="rgb(0, 0, 0)" stroke="rgb(60, 60, 60)" stroke-width="1px" opacity="0.25"></line><line x1="0" y1="13.615384615384613" x2="276.8125" y2="13.615384615384613" fill="rgb(0, 0, 0)" stroke="rgb(60, 60, 60)" stroke-width="1px" opacity="0.25"></line><line x1="0" y1="0" x2="276.8125" y2="0" fill="rgb(0, 0, 0)" stroke="rgb(60, 60, 60)" stroke-width="1px" opacity="0.25"></line></g></g></g><g><g><line x1="0" y1="163.3846153846154" x2="276.8125" y2="163.3846153846154" fill="rgb(0, 0, 0)" stroke="rgb(153, 153, 153)" stroke-width="1.5px"></line></g></g><g><g><line x1="23.067708333333332" y1="0" x2="23.067708333333332" y2="177" fill="rgb(0, 0, 0)" stroke="rgb(153, 153, 153)" stroke-width="1.5px"></line></g></g><g><g><g><g><g><path stroke="rgb(255, 112, 67)" stroke-width="2px" d="M23.312226041666666,109.23058085258191L23.32606666666667,101.4260244610218L23.44601875,104.16814569691475L23.55213020833333,101.62334209768211L23.888918750000002,103.9694816355156L24.174958333333333,110.09225977175316L24.19802604166667,117.29035747558497L24.294910416666667,123.78069310124775L24.37795416666667,124.98564424023577L24.539428125,122.46280304062356L24.548655208333333,128.34213798564627L24.585563541666666,127.94697261784485L25.305276041666666,129.6593371426316L25.591315625,132.47289164727607L25.789697916666665,131.37464004696835L25.821992708333333,129.5148651138488L26.043442708333334,125.58920278724293L26.10341875,135.9822917940278L26.21414375,128.98097615996548L26.412526041666666,127.36785971330092L26.449434375,128.47002629646997L26.7400875,129.41843502653361L26.818517708333335,127.11050802545334L26.846198958333336,123.30751815972606L26.975378125,127.30151624211547L27.59820625,121.21337809234717L27.79658854166667,121.40719317635941L28.036492708333334,122.00668639452302L28.211807291666666,115.5616396579787L28.562436458333334,118.60697455275283L28.936133333333334,117.69931193741377L29.189878125,124.22730376368162L29.20371875,116.14480955087572L29.268308333333334,118.51403464672008L29.286762500000002,121.4149392348651L29.5082125,124.74655596670036L29.540507291666668,131.78173489217275L29.743503125,129.94670830786913L29.881909375000003,131.1004958453891L30.144881249999997,127.27356007110512L30.278673958333332,129.55581524983785L30.352490624999998,120.54870301657041L30.426307291666667,120.99434666474562L30.91995625,121.51938549395575L31.118338541666667,116.57236938622765L31.132179166666667,117.59205834702894L31.625828125,122.29203775876061L31.727326041666668,122.27011563025611L31.778075,114.68134529642512L31.962616666666666,111.02550693210033L32.041046875,112.86692966779762L32.101022916666665,112.68463678675792L32.511628125,115.12204451457444L32.788440625,109.34639327169933L33.208272916666665,111.9584076944419L33.263635416666666,115.42941815607755L33.41126875,115.57799113089726L33.43895,119.72013204640368L33.554288541666665,120.49287857344562L33.76189791666667,126.05583099149796L34.140208333333334,121.98715417894053L34.35704479166667,122.92957715669976L34.435475,116.69430489642623L34.44470208333333,111.39806665592081L34.46776979166667,106.25305783976266L34.58310833333333,108.45729766212011L34.587721875,105.35780952022047L34.643084375,106.04890260760253L34.66615208333334,111.97544024249015L34.79994479166667,114.1330044600511L34.86914791666667,122.39546416507719L35.50581666666667,124.46185412497945L35.75956145833334,120.30000211110075L36.80683541666667,111.50935960413616L37.134396875,113.96954752840483L37.1482375,119.90066357204203L37.41582291666666,116.68985631683034L37.7018625,120.20497761416496L38.020196875,118.7480942218234L38.08478645833333,108.01350936116387L38.09401354166667,112.95112286103732L38.098627083333334,110.93043183327114L38.3662125,111.0238600013463L39.17358229166667,108.27628260709464L39.81025104166667,108.71360214496991L39.819478125,107.46582150059912L40.05015520833333,114.28932274798873L40.37771666666667,119.12511602111239L40.61762083333333,119.9040021950825L40.714505208333335,117.37964302536483L40.7468,114.9480488158539L41.24044895833333,105.89262514364067L41.369628125,100.90942839185433L41.498807291666665,100.84665131027904L41.738711458333334,104.96086349162701L42.02475104166666,101.97810996814515L42.476878125,98.00382419557357L42.619897916666666,104.2979995790366L42.642965624999995,103.05899994456846L43.03511666666667,100.54626244558418L43.04434375,106.94475945752208L43.418040624999996,106.91458024244011L43.84248645833333,104.49475368425777L43.92091666666667,105.36257226804214L44.017801041666665,110.95531315528942L44.636015625,110.06346034912269L44.65446979166666,114.52625122382275L44.691378125,117.94144695689239L45.20809479166667,114.60678098292051L45.272684375,114.30224641744067L45.44799895833333,114.55405998944732L45.50336145833333,115.2490098886093L45.697130208333334,114.56118475731155L46.05237291666666,109.82978780607408L46.41684270833333,109.58703740285925L46.42606979166666,102.61756468094872L46.67520104166667,110.25803620247076L46.804380208333335,107.16524493059947L47.28880208333334,115.47346635217788L47.777837500000004,108.32428476545405L47.842427083333334,105.01591813258551L48.123853125000004,108.14310452021036L48.718999999999994,112.44400782988592L49.31876041666667,115.838191868195L49.52175625,114.74209720617432L49.91390729166666,115.4477223833876L50.006178125,117.0025402933185L50.172265625,114.63220937338114L50.204560416666666,112.30007790543772L50.37064791666667,109.28005268722121L50.467532291666664,111.28373060462177L50.753571875000006,110.01419864062387L50.845842708333336,109.04104078803196L51.35794583333333,104.82854549743513L51.404081250000004,108.01079333587388L51.722415625,111.58141182291082L51.78239166666666,116.6205771517563L51.81007291666667,114.35717622304654L51.870048958333335,110.35216270696247L52.13302083333333,109.93574486353977L52.23913229166667,114.51407607533693L52.534398958333334,115.55732251396367L53.19874895833334,117.58058347678076L53.44788020833333,108.69153697439643L53.58167291666667,108.77974596616487L53.83080416666667,108.74451862250805L54.01073229166666,104.69840107522356L54.02457291666666,112.47978244933041L54.079935416666665,111.57856803089985L54.22295520833333,111.80908170496406L54.739671875,114.74056345179207L55.25638854166667,110.027169741763L55.376340625000005,111.874840021521L55.902284375,117.66489926874968L55.93919270833334,118.09540600350468L56.12834791666667,117.46517744248766L56.55279375,107.10049323926226L56.84806041666667,106.38081195765648L57.06951041666667,111.78971617615264L57.175621875000004,105.81738426848032L57.48934270833333,107.81676792425793L57.535478125000004,113.3587093166193L57.54931875,108.45762749246381L57.618521875,106.87700447326031L57.77076875,102.02726818759012L58.61043333333333,106.12061388002176L58.919540625,110.8797674101969L59.04871979166666,110.01780666292146L59.094855208333335,96.37993289046365L59.25632916666666,95.67810271573406L59.98526875,91.98610172047086L60.331284375,100.25391924649948L60.857228125,107.70492787705759L61.04638333333333,105.26966386488294L61.56771354166667,102.51120981384507L61.701506249999994,110.48724933519708L61.72457395833334,102.70324233344505L61.76609583333333,100.44280727882891L62.18131458333333,101.11545670873211L62.19515520833334,97.93762386349611L62.324334375,94.30035046549992L62.370469791666665,94.2685289059972L62.799529166666666,90.15539763053398L62.95638958333333,96.1487956715739L63.23320208333333,96.59442908924593L63.80528125,102.67329856602186L64.07748020833334,103.39944734895313L64.19743229166666,98.98852462374848L64.21127291666666,94.35424294308876L64.30815729166667,90.89580092845912L64.34045208333333,90.58354703199004L64.6080375,92.51031849702724L64.63571875000001,91.9492532826235L64.89407708333333,86.07528409507647L65.839853125,87.7541280484695L66.09821145833332,92.51511281570326L66.24584479166667,92.8922407223293L66.64722291666666,85.3442353776584L66.79946979166667,87.54416811296284L67.16393958333333,76.26449277665809L67.196234375,75.6035370435466L67.25621041666666,77.94070481373687L67.53302291666667,83.47590685096138L67.67142916666667,74.35643224472624L67.777540625,76.66213614537746L67.860584375,74.22180846669472L68.52954791666666,63.10738975974073L68.82481458333334,68.80839276920739L69.52145937499999,73.4316776202013L69.64141145833334,66.56502857426757L70.52721145833333,74.59896003560809L70.55950625,63.51099573448788L71.08083645833332,71.03014302867255L71.09467708333334,67.44207428053198L71.19156145833333,68.88610888261856L71.46376041666666,69.00912314635532L71.66214270833333,58.56936071733614L72.05429375,56.85410796837611L72.19731354166666,56.03969958473898L72.27113020833333,58.87051026988284L72.34956041666668,59.8200035409686L72.53410208333334,67.79566571215133L72.746325,73.88529570391154L72.75093854166666,65.50781872885726L72.85243645833333,58.354100744185516L73.01391041666666,63.71877914407389L73.13386249999999,62.351660366517294L73.175384375,58.46543580860387L73.41528854166667,59.36919484386827L73.42912916666666,62.82145150627073L73.58598958333333,62.98754292342751L73.60444375,65.08564788789839L73.71055520833333,67.84909334503082L73.73823645833335,72.13125626095996L73.74746354166668,69.20300565042646L73.95968645833334,56.10525543892436L74.337996875,63.662537857318256L74.42565416666666,55.609094847968734L74.46717604166668,49.510760202156106L74.780896875,53.33542572461211L74.79012395833334,51.208908781195774L75.06693645833333,61.100830036044414L75.80048958333333,64.72234670608428L76.04500729166666,51.20973701282621L76.13727812500001,50.005703151710065L76.28029791666667,60.96696164545344L76.32181979166667,61.51235673903503L76.40025,58.782554460960185L76.47868020833333,56.189613675803784L76.85699062500001,51.32960175204741L76.96310208333334,53.86018797409996L77.02769166666667,57.97404641210208L77.36909375,62.48268056919447L77.8950375,63.73691165132409L78.3379375,66.10283109952859L78.36100520833334,64.85671354730682L78.52709270833334,60.22995894239355L78.6701125,54.50253911298887L79.11762604166667,45.39918665393998L79.237578125,45.0392600169377L79.25603229166667,41.85219706534309L79.32984895833334,48.80361394456099L79.52361770833333,40.83124577486694L79.818884375,48.037142693672905L79.832725,45.73784440186236L79.90654166666667,39.29731918231616L80.34944166666666,43.240091838803494L80.59395937500001,58.82209601121525L81.57664375,60.90895543810312L81.70582291666668,47.927237689548065L82.19485833333333,39.93152723774051L82.52703333333332,25.75592336051352L82.81307291666667,32.773266295701234L83.17292916666666,39.24115280653098L83.251359375,30.634206570334555L83.37592500000001,39.873367265688216L83.472809375,34.30639516691744L83.528171875,35.25644170501826L83.597375,30.815760965698956L83.860346875,32.921394079566056L84.19713541666665,26.541425749215733L84.704625,32.80321972641542L84.94914270833334,27.707749824318313L84.967596875,25.648448037537662L85.41972395833334,34.25449243585081L85.61349270833334,35.27267128880092L85.84878333333333,38.89254554167093L85.95489479166666,42.3277070195451L86.22709375,45.82690501452714L86.240934375,44.8399482924828L86.67460729166666,37.25949154206495L86.83146770833334,31.496413282618562L86.99294166666668,37.74479119029658L87.17286979166667,38.40515774974969L87.59731562500001,28.93452305443776L87.69881354166667,28.238667002558714L88.07712395833333,15.183453914116L88.72763333333333,18.61103663057878L89.03212708333334,32.56091511054237L89.064421875,34.09580423347961L89.10594375000001,29.32595838806563L89.18437395833332,37.31122655232133L89.26741770833334,30.405295504639668L89.53961666666667,30.830714488746196L89.77029375,33.85035409200094L89.98713020833334,43.88746422698074L90.27778333333333,31.273755717373632L90.62379895833334,28.881559743572097L90.65148020833334,32.974719938092704L90.78988645833334,23.151948458134797L90.83140833333333,24.592609013059302L90.87754375,30.89461659579098L91.30198958333332,22.485416656939833L91.34351145833334,23.79882676788074L91.361965625,16.618067814773212L91.44039583333333,17.43707251916743L91.73566249999999,23.74529334069004L91.82331979166666,30.52920758453203L92.44614791666667,21.58891176831426L92.73680104166667,8.42852112855914L92.94902395833333,13.291502979940276L93.15201979166667,21.474473778930957L93.548784375,42.070564770646286L93.81636979166666,29.312229662276962L94.5037875,32.486446508022L94.51301458333333,37.71399661519314L94.66064791666666,34.72155787212867L94.80366770833332,33.57334984523604L95.07586666666666,34.60403643542671L95.735603125,35.1093326753946L95.846328125,43.005436004608555L95.88785,40.795281923657456L96.14159479166666,39.16037896591865L96.83823958333333,44.34900897610177L96.90282916666668,46.152004080682474L97.37341041666667,53.90945911268561L97.47029479166667,52.71487975770793L98.08389583333333,53.01864390029783L98.41607083333332,56.35952707157941L98.51756875,50.429115902617966L98.59599895833334,53.59345366890891L98.808221875,58.3116422572336L98.96508229166666,57.198700693120486L99.2649625,54.005646750987L99.63404583333333,60.8257163833465L99.98467500000001,65.60219165967756L100.1507625,57.10368388466151L100.662865625,53.64071235860196L100.66747916666668,53.010207447392446L100.82433958333334,40.67630779691726L100.88892916666667,32.95512397991993L101.08269791666666,34.87390276780306L101.853159375,43.41244160985835L101.99617916666666,37.983325662120706L102.15303958333332,29.911842043801414L102.65130208333333,33.88581311715822L102.80354895833334,45.95347676101616L102.88659270833332,47.52383084045135L102.89581979166665,38.204877522496844L103.00654479166666,43.56041299699868L103.01115833333333,49.929531561497825L103.02499895833333,49.89373931853275L103.11265625,51.31658472482421L103.27413020833333,52.17803730791934L103.41714999999999,53.55489472285585L103.59707812500001,61.39381663274939L103.64321354166667,59.060717283550716L104.05381875,60.59162135881779L104.11840833333333,64.64110523164904L104.25220104166667,55.973126650823204L104.289109375,52.73515001868515L104.42290208333333,48.0688027891558L104.87964270833334,58.66939558519556L105.94537083333333,51.31860166198348L106.07455,57.96244498320834L106.116071875,65.12471665188414L106.24525104166666,61.39242859812042L106.40672500000001,60.5257369984613L106.4620875,57.57251362810932L106.75735416666666,57.34803088194373L107.38018229166667,61.37359475902464L107.62931354166666,65.55775304095228L108.24291458333333,63.750412862544636L108.247528125,60.247989130643234L108.89342395833333,67.73701140441132L109.4516625,66.32055557464142L109.48395729166667,64.71226857856125L110.06065,63.3273081155088L110.58198020833333,61.961984578596L110.6696375,56.68432838319559L110.79881666666667,54.10780876498251L110.90031458333334,47.88935387183648L110.99719895833334,56.40133165792432L111.31091979166666,62.449599780112734L111.55543750000001,66.80478846876039L111.82302291666666,57.10224408462726L112.02601875,53.97383620978137L113.01331666666667,59.13324073384801L113.09636041666667,64.73629259907182L113.19785833333333,65.30240680894426L113.22553958333334,53.32337933117391L113.728415625,50.04964449834142L113.79300520833334,53.10251368963125L113.84375416666667,49.96221428489879L114.09749895833333,57.78169828464918L114.14824791666666,54.47152801088842L114.17592916666666,52.302423539767176L114.448128125,63.12402374281899L114.57269375,64.42717802687216L114.67880520833333,56.50745454849118L115.001753125,63.03566516384576L115.10325104166667,56.13054763733709L115.25549791666667,56.433678445894785L115.36622291666667,59.690287840817106L115.55076458333333,49.61247587579483L115.63380833333333,46.61795554386373L115.66148958333333,46.09747465195488L115.67533020833334,32.65390793206552L116.025959375,45.24225712390563L116.03057291666667,50.4582646917534L116.247409375,55.44127764246106L116.39042916666666,49.54616841042781L116.51499479166667,51.26484797034891L116.52883541666667,47.511068825192154L116.551903125,59.00122120451333L116.87946458333334,55.912063664715205L116.93021354166666,58.15710016694295L117.15627708333334,51.84864296724528L117.41924895833334,47.76138679831382L117.62685833333333,45.489425490654014L117.81601354166666,60.41069802663117L117.87598958333334,55.33545745211292L117.88060312500001,57.297619793216484L117.98210104166667,43.010149411705896L118.05591770833333,46.46932792299165L118.56802083333334,45.830574029790114L118.66490520833334,43.0402124149702L118.98323958333334,51.88583476956224L118.99708020833333,57.30338287491155L119.00169375,55.050306042249915L119.22314375,57.17819159410581L119.33386875,49.93003110856661L119.94285625,58.60473785309655L120.31193958333333,54.10660916640785L120.371915625,45.26521042629736L120.66718229166666,55.6597714604692L120.9670625,61.476958047256275L121.07317395833334,44.672244375566805L121.46071145833334,44.82170084683082L121.47455208333334,53.94615073863531L121.49761979166666,59.141108748651575L121.80672708333333,54.33226094820782L121.88977083333334,48.128551554827936L122.23578645833334,45.57447955323812L122.41571458333333,43.35721656225107L123.14465416666667,50.18422352123524L123.33842291666667,39.67703188613169L123.34303645833333,41.68145986842029L123.64291666666666,46.20636731744267L123.67059791666667,42.05273773609949L123.79055,42.713682430712794L123.887434375,39.36396560625249L123.915115625,40.61089812619326L124.64405520833333,43.16046255448089L125.74669166666666,45.90447629646252L125.80666770833334,44.37415601795698L125.963528125,49.60341954314487L126.07425312500001,41.783409801395635L126.13884270833333,33.517994600742355L126.268021875,42.04955218831947L126.793965625,40.92692809737795L126.95543958333333,39.2047431206162L127.12614062499999,43.698426417941846L127.54597291666667,36.6907649994655L128.14573333333334,34.18227085925031L128.49174895833335,38.15175614858572L128.90696770833333,27.564159046394877L128.92080833333333,33.905994438216425L129.59899895833334,44.79132913718357L129.617453125,41.58826800365017L129.81583541666666,38.12531979924162L129.866584375,37.72735786098443L129.91271979166666,30.821742547272066L130.06958020833332,34.3875114956883L130.115715625,33.57277839235175L130.23566770833332,34.08211345446668L130.44327708333333,35.720295901776865L130.54938854166667,39.23909958068501L130.78467916666665,44.065665328608844L130.89540416666665,38.04694320483344L130.98306145833334,43.07580474266794L131.19989791666666,47.90720933136666L131.721228125,40.78385892783001L131.94729166666667,41.34369677698021L132.32098854166665,37.27564045059691L132.3717375,43.50284117161502L132.46400833333334,42.33447254900315L132.800796875,38.6096754494329L133.06376875,31.96095684078682L133.55741770833333,40.10062840434017L134.20792708333335,36.65761700276104L134.38785520833332,30.317983214234573L134.52164791666667,20.76991390972313L134.92302604166667,25.88594971677739L135.14447604166668,26.834880415088406L135.153703125,26.6912001694773L135.32901770833334,32.51908447115213L135.43512916666668,35.37030626764283L135.762690625,35.93967627497591L136.41320000000002,33.10759193124997L136.70846666666668,35.56827672605064L137.16059375,31.840189642033437L137.19750208333332,36.04438234577634L137.89876041666665,23.451254760178585L138.00025833333333,22.347408170625982L138.15250520833334,33.55648826712053L138.49390729166666,35.69040114191762L138.67383541666666,38.438493914145084L139.07059999999998,36.79849541863993L139.40738854166668,34.53412940541392L139.52272708333334,36.75872255825689L139.582703125,39.51132676190045L139.624225,30.07398825948823L139.9886947916667,37.242593482297224L140.26089375,46.84409747018722L140.78683750000002,42.99486460109216L140.85604062500002,49.18979834577469L141.22051041666666,50.911879255126706L141.6218885416667,37.16097602655154L142.03249375,44.25133487734686L142.20319479166668,41.25136146682746L142.36466875,51.83683721037883L142.7060708333333,49.85727009294507L143.27814999999998,36.662893734773775L143.375034375,26.573898256338992L143.41655625,35.80627545699366L143.49037291666667,35.93994185594576L143.78102604166665,33.79489856705396L143.78563958333334,25.74003015421414L143.85022916666668,28.927482634330516L144.4176947916667,35.27883535458864L144.46844375,34.49886491291562L144.92979791666664,32.77817626692101L145.2389052083333,40.395440557674334L146.16161354166667,44.05881859926009L146.74753333333334,43.61919706183173L146.752146875,39.522857547965174L146.8859395833333,42.72512447903546L146.89516666666665,36.30740305685532L147.35190729166666,28.603311322169105L148.04393854166668,31.894262323309647L148.33920520833334,35.53985255149166L148.36688645833334,37.00694531634821L148.39456770833334,36.83115674516782L148.413021875,29.98322613926848L148.41763541666668,31.00971214523571L148.94819270833335,35.03316026428965L149.2019375,32.2215954228067L149.7555625,46.20347796279515L150.01392083333334,48.44788506176758L150.46604791666667,46.41935975052161L150.51218333333333,45.23959488825807L150.54447812499998,47.51674300021321L150.627521875,50.6011305628479L150.89049375000002,48.772236753048276L151.0934895833333,49.41048623007276L151.49025416666666,42.88340190165894L151.91008645833332,41.63910184662046L151.91931354166664,35.04763426353679L152.066946875,42.82975071284034L152.149990625,48.43796930540853L153.45562291666667,47.078473952999616L153.575575,51.44957988072734L153.77857083333333,53.51324808043742L154.032315625,42.51778617489913L154.31835520833334,43.36562393759377L154.37833125,43.25049242538256L154.80277708333335,40.98760620956537L154.93656979166667,40.181406913658236L155.11649791666667,44.953052634458516L156.40828958333336,43.49105362745388L156.772759375,38.81541127263557L156.89271145833334,51.610999300795186L156.99420937500003,45.694885579041596L157.08186666666666,46.629960335896385L157.19720520833332,26.556051361050862L157.271021875,41.036487203255376L157.326384375,36.79298604994534L157.5247666666667,29.735111588287225L157.8384875,35.438816138534435L158.12452708333333,35.24686422758711L159.08414375,34.69296797631995L159.11643854166667,25.58084338203969L159.15796041666667,36.19697023210469L159.3886375,30.384506578678355L159.402478125,21.39760374567365L159.49936250000002,28.31998348696365L159.64238229166665,23.230238301031108L159.7300395833333,29.073283278581755L160.35748125,35.55139559082269L160.731178125,35.43912939128373L160.73579166666667,46.27865522213267L160.89265208333336,48.77329414367554L161.52470729166666,52.89414067664441L161.547775,45.109290577257184L161.66772708333332,49.22277366311269L161.87995,45.170255162845194L161.94915312499998,56.25903564787332L162.32746354166667,52.55939842703411L162.5258458333333,48.26371907947251L162.64579791666668,44.808458737616945L162.83495312500003,33.32208586826266L163.03333541666666,31.628725494892052L163.64232291666664,25.902039991771176L163.67461770833336,32.531181536748534L163.69307187500002,36.604996281140075L164.163653125,25.76315858751758L164.34819479166666,33.96431287447899L164.78186770833335,38.85488432194808L164.84645729166667,44.0482920665458L164.92950104166667,40.7657158327373L165.12326979166667,46.50952499178527L166.37815312499998,39.30654024613693L166.62267083333333,34.582011231058544L167.17168229166666,36.774781888611415L168.011346875,34.87427815366411L168.18204791666668,38.22736018226337L168.6157208333333,28.385087677715035L169.34927395833333,37.24400944597039L169.46922604166664,41.288997011975454L169.65376770833333,48.35090317949644L169.865990625,41.43995211588643L170.16587083333334,41.96747951089188L170.198165625,36.44395166953018L170.23507395833334,31.403523482797226L170.45652395833335,32.69162219913784L170.49804583333332,34.76888291834675L170.77024479166667,38.023911623948095L170.83022083333333,36.30183675538177L171.499184375,40.69579589296248L171.554546875,37.219482063823136L171.70679375,40.89866733342188L171.9005625,45.8997789076966L172.20044270833333,38.390026886995145L172.54184479166665,39.35507305569655L172.75868125,42.12004261814343L173.05856145833332,46.27631522363711L173.1923541666667,46.43305736271316L173.25233020833335,41.040484108989546L173.57066458333333,39.97625157191416L173.58450520833333,29.476719984826104L173.78288750000002,34.524091937102554L174.00895104166668,40.334370911738034L174.26730937500002,35.076219004304136L174.876296875,37.94176453190775L174.91320520833335,36.33089134137927L174.9455,44.31103938980027L175.374559375,43.66764572039045L175.42992187500002,40.68692733878004L175.52219270833334,43.04068170439439L176.04813645833335,46.50968872944489L176.066590625,41.2027631267766L176.19115624999998,41.116733754796144L176.20038333333332,37.00824633133368L176.61560208333333,40.967890120284125L176.93855,35.85737420125983L177.06311562500002,37.47028187836793L177.09541041666668,36.97348864400965L177.10925104166668,44.28731858997142L177.22458958333334,36.53268716862189L177.85203124999998,39.068819992219034L178.27647708333333,39.593441441525385L178.308771875,41.1963330586737L178.723990625,44.06536270581674L178.7655125,32.460726177801945L178.820875,28.721641483189188L178.90853229166666,34.848068573367584L178.98696249999998,39.67802258628129L179.23609374999998,37.13050531234546L179.29145625,52.7840628740974L179.40679479166667,43.064734946449164L179.57749583333336,39.27499596430127L179.84508125000002,36.3987625424644L180.05730416666665,47.217673997693566L180.14496145833334,43.6489320346013L180.17725625,44.179653629559L180.38947916666666,41.43678828953185L180.62938333333332,50.637455939980754L180.64322395833332,39.102619347046016L180.80469791666667,37.363128657612094L181.40445833333334,37.9833447796174L181.6443625,53.618733570240494L181.64897604166666,47.224460329845016L181.74586041666666,44.737549354527914L181.99960520833332,40.14616334661284L182.40098333333336,46.862391742796945L182.40559687500001,48.518217986616094L182.58091145833333,33.34796640392926L182.74238541666668,32.19522141792143L182.78390729166668,36.2396481586928L182.96383541666668,41.61452249377808L183.18989895833332,45.03218788365581L183.44364374999998,40.91626996993136L183.59127708333332,47.78176509123054L184.02956354166665,40.47026900701937L184.730821875,51.61418552733012L184.95688541666667,56.10831225742521L185.12297291666664,56.37611152519864L185.4090125,48.60207075305675L185.76425520833334,53.236484483371626L185.77809583333334,54.65366409289726L186.128725,50.682988302011935L186.22560937499998,51.068986541000484L186.26251770833335,50.919518685229804L186.32249375,52.688703177825616L186.33172083333335,54.617032906639025L186.35940208333335,50.12868468926305L186.81152916666665,52.750497735719236L186.82075625000002,43.96302885107556L187.222134375,37.30455378284853L187.235975,41.6324233966059L187.360540625,46.02336957381701L188.14945625,46.103598384786096L188.18175104166664,41.72228128971824L188.48624479166665,43.329188577215604L188.50931250000002,41.43703943648933L188.98912083333332,47.306007025822765L189.0675510416667,48.15325237129292L189.37665833333335,51.72009319277183L189.46892916666667,50.194808367926555L189.962578125,45.389490483930615L190.20248229166668,39.50042315737568L190.27168541666668,36.03504501187348L190.34088854166666,34.32309523327811L190.41470520833332,35.40959795270865L190.47468125,30.803095879650385L190.63615520833332,44.73005677793813L190.72381249999998,45.38153592804173L190.75610729166667,42.429296699289296L191.83106249999997,43.78724554009665L192.10787499999998,42.67429207873187L192.24628125,47.53931192822361L192.33393854166667,45.929312955174254L192.74454375000002,40.01548628719192L192.924471875,40.98256404823982L192.94292604166665,54.848843106467L192.98444791666668,50.22098714181553L193.01212916666668,47.35614030127067L193.12746770833334,47.15853889508264L193.39043958333332,39.80907728690451L194.06401666666665,48.07105461975294L194.5991875,54.677784048073434L194.751434375,59.522966045287404L195.25431041666667,63.04371646899045L195.28199166666667,50.40808304005162L195.32351354166667,56.89113224749053L195.91866041666665,55.8902182229004L196.07552083333334,51.736214602082256L197.2565875,50.82263784835709L197.34424479166665,51.31482136249066L197.54262708333334,44.972888566894596L197.86096145833332,37.05552828091669L198.85287291666668,41.47151019441063L199.31884062499998,46.23503811426835L199.57258541666667,52.64878499988518L199.64178854166664,48.59533923694235L199.96012291666668,51.3571710255392L200.11698333333334,50.11171230383296L200.45838541666666,51.04638976738937L200.53220208333335,42.91266007309653L200.58295104166666,43.35435657139536L200.73981145833332,46.07576046800011L201.10889479166667,36.45897462890704L201.39032083333333,42.10920144504772L201.39493437500002,39.308214489324314L201.66251979166668,31.324805374702322L201.754790625,30.563907494218824L201.9531729166667,35.58568687030592L201.976240625,36.54488917325824L202.308415625,27.52892773231798L202.958925,30.585931900580192L203.06503645833334,34.52879816223626L203.06965,41.81543128540093L203.69709166666667,49.3526060741909L204.13999166666667,43.184359281351874L204.41219062500002,39.62405111597954L204.46293958333334,39.727372974932535L205.77318541666665,49.06131633520789L205.962340625,47.47164425721934L206.28528854166666,42.58125444702242L206.41446770833335,37.37799321774111L206.64975833333335,33.99974235806329L207.097271875,30.21055834654433L207.24029166666668,35.63665859475731L207.263359375,36.23221668806215L207.34178958333334,33.700556208392754L207.57708020833334,39.23777504178696L207.7523947916667,39.31112802045462L208.69355729166668,39.66095411053985L209.02573229166666,43.267158333398754L209.51015416666667,39.71555408107281L209.91153229166665,38.92805731639106L209.96689479166665,43.10325301999447L210.114528125,33.427879728303395L210.24370729166665,38.79699248013765L210.64508541666666,36.937582460363245L210.69122083333332,41.680909089636515L210.71890208333332,37.08951926969988L210.73735625,45.01135321473413L210.88037604166666,41.178254774991984L210.889603125,43.790245796771984L210.95419270833332,46.0380369448624L210.98187395833332,45.095922029529646L211.3186625,38.21720820916113L212.45820729166667,43.73479066687429L212.86419895833333,41.149663161850384L212.98415104166665,41.1653688215757L213.3993697916667,42.16690006726557L213.52393541666666,40.00164845968965L213.84688333333332,44.10652072063496L214.16060416666664,45.81674706789548L214.23442083333333,41.49121697594799L214.53891458333334,42.32128010440377L214.76036458333334,48.28252196184974L214.83418125,54.89336579319989L214.96797395833332,46.30828353836128L215.0833125,37.93186843668579L215.17096979166666,38.54784983835637L215.83531979166665,27.94376337333196L215.87222812500002,22.69240736294148L216.16749479166668,24.645502937421725L216.29206041666666,27.50851909030453L216.91488854166667,32.539409037836094L216.94718333333333,42.23043921513286L217.03022708333333,41.57050549708791L217.505421875,43.229212390642374L217.616146875,44.90234524077604L217.66228229166666,44.948253726438196L217.726871875,48.60761634208524L218.01291145833332,35.71755925878696L218.45119791666667,32.061397468513036L218.75569166666668,32.638415374254066L218.81566770833334,33.05356158534531L218.96330104166668,34.786969255648216L219.04634479166666,38.625993158548965L219.09248020833334,32.6170515601309L219.18936458333332,37.71285467972265L219.69224062499998,32.697144743657475L220.01518854166665,27.394884096619393L220.467315625,38.655725673138164L221.0071,37.91032413239148L221.18241458333335,42.92689097419762L221.33466145833333,46.56507028911665L221.41309166666665,40.67685387458434L221.59301979166668,50.07345007980713L222.70949687499999,47.9635916621057L222.78331354166664,39.30334788889786L223.44766354166669,42.656465615815506L223.68756770833335,36.602850829538255L223.89056354166667,29.60855870681064L224.0520375,37.589305894228914L224.19044375,32.004790668143244L224.30116875000002,42.25730603006684L224.41189375,39.431447589339484L224.44880208333333,32.288654208698716L224.49955104166668,32.899045432840154L224.50416458333333,30.3261089264451L224.78097708333334,34.55147242916675L224.90554270833334,39.503239644880324L224.923996875,41.4568233789434L224.9932,38.48993700063497L225.11315208333335,40.555323946068626L225.16390104166666,35.0914226402993L225.21465,25.81226822592666L225.366896875,32.7189724148017L225.75904791666667,32.599864079902346L226.003565625,31.531564819195978L226.02201979166668,30.644464608152447L226.08199583333334,31.645629097386376L226.4510791666667,32.42157177382862L226.46953333333335,31.949500105612117L226.59409895833332,34.03768133951263L226.63562083333332,41.88443506214688L227.03699895833336,42.384930717898186L227.06929375,37.63884089742194L227.27228958333333,38.67607196780497L227.51680729166665,41.16916325640767L227.67828125,41.63629348753835L227.69673541666666,41.09070290961006L227.97816145833335,43.882214272891474L228.425675,47.65575746129912L228.60098958333333,49.29755542305915L228.8132125,48.95267568788233L228.81782604166668,31.517535746967297L228.83166666666668,37.78133368819405L229.090025,50.64719659928306L229.47756249999998,51.682493004876704L229.5882875,46.56503013637516L229.81435104166667,49.61628877670448L229.878940625,42.338872259470804L230.56174479166665,36.5881653076396L230.7001510416667,43.253982059762166L230.97235,43.30637447943454L231.207640625,44.09827500298948L232.15803020833334,43.80010518766335L232.19955208333332,45.67399414199113L232.29182291666666,47.530589942578075L232.43484270833332,50.295827147491494L232.44406979166666,50.63895321821526L233.06689791666665,51.86803492956878L233.23298541666668,56.09127943593529L233.43598125000003,54.20226083325308L233.70818020833335,54.57178959280277L233.76354270833335,52.13933552842431L234.28487291666667,48.03463169612985L234.45557395833333,54.78422505526383L234.59859375000002,47.06348044748137L234.76006770833334,42.05455046249142L235.45209895833335,48.877281451952115L235.49362083333332,46.848712990903465L235.61818645833333,48.84469963738127L235.75659270833333,45.627207996833505L235.913453125,40.62248850377921L236.1210625,42.784980102072694L236.15797083333334,51.59859648521024L236.28715,48.69402165654924L236.80848020833335,56.17066192478728L236.882296875,60.11699460014027L236.98840833333333,62.13773743135937L237.16833645833333,45.42604287849102L237.24676666666667,40.3684306607893L237.64353125000002,33.88482412769824L237.685053125,45.1925513881755L237.84191354166666,48.74059027982702L238.37247083333332,38.21445432130571L238.55239895833333,37.18064619243742L238.79230312500002,38.61938478709541L240.12100312500002,38.4887833980857L240.21788750000002,35.88655537938064L240.868396875,35.49938733828745L241.06677916666666,35.71897804594266L241.311296875,39.87806545501991L241.34359166666667,34.97025574375965L241.43586249999998,44.35691296260504L241.55581458333333,43.98007240002539L241.97103333333334,38.52299116912593L242.2109375,43.233963284685274L242.48775,44.200834100031955L242.52004479166666,44.32414712353824L242.6538375,41.052787844940156L242.89835520833333,46.77650415163103L242.916809375,48.16095228304826L242.97678541666667,46.75475028617325L243.041375,37.68522552940519L243.1521,33.01736291363261L243.20746250000002,41.29883006237449L243.35509583333334,40.15339795960486L243.387390625,41.645805730625085L243.4519802083333,45.65125083852976L243.97331041666666,45.67494580520079L244.02405937499998,33.758766026610374L244.051740625,41.41599148911169L244.24089583333333,40.29445462558135L244.25934999999998,36.29838266131284L244.32393958333336,46.54124686903265L244.43005104166667,48.26814868047816L244.91908645833334,44.80150137036341L245.11746875,51.80975001315011L245.32046458333332,43.2521459104357L245.40350833333332,38.32346144980002L245.477325,42.500630197000305L245.61573124999998,41.8563669764965L245.934065625,49.69025968391894L246.5107583333333,40.501604796111366L246.709140625,40.18461263769302L246.71836770833332,38.43875328014201L246.88906875,34.54626351458697L246.89368229166666,41.63269901468996L246.93981770833332,38.70839631123283L246.97672604166667,31.508516530953102L247.09206458333333,32.71792667416008L247.47498854166668,35.365523852290806L247.49805625,38.74863118419131L247.567259375,25.645225723137315L248.46228645833332,31.313322883117564L249.09895520833334,35.73228752963766L250.07702604166667,40.88456691622244L250.43688229166665,47.28807017122489L250.68601354166665,36.37344391524431L250.80135208333334,32.490785352970704L251.38265833333332,30.412741697000172L251.75635520833333,27.62837150968801L251.98241875,30.13728511636532L252.03778125,31.73813208064942L252.12543854166668,29.740014777540978L252.3976375,36.439751191206966L252.93280833333333,40.54124371833464L253.29727812500002,30.34300862465878L253.491046875,28.4902173460857L253.7355645833333,36.335550317202035" style="fill: none;" fill="none"></path></g></g></g></g><g opacity="0.2"><g><g><g><path stroke="rgb(255, 112, 67)" stroke-width="2px" d="M23.312226041666666,109.23058085258191L23.32606666666667,96.74329062608572L23.44601875,106.80058208337198L23.55213020833333,98.63065306498454L23.888918750000002,107.032601416111L24.174958333333333,118.56226613429877L24.19802604166667,127.58375236162773L24.294910416666667,133.24366475068607L24.37795416666667,126.76271312053387L24.539428125,118.71667788120416L24.548655208333333,137.107815267948L24.585563541666666,127.35637503862381L25.305276041666666,132.22229276253626L25.591315625,136.68771135807037L25.789697916666665,129.72855360003618L25.821992708333333,126.72651437154184L26.043442708333334,119.70237050606654L26.10341875,151.56928650003212L26.21414375,118.48006928884067L26.412526041666666,124.94833248853683L26.449434375,130.1232157257887L26.7400875,130.84101691383583L26.818517708333335,123.64866308982556L26.846198958333336,117.60307841117566L26.975378125,133.29248497807063L27.59820625,112.08119683082288L27.79658854166667,121.6979153064581L28.036492708333334,122.9059253014051L28.211807291666666,105.89407548996118L28.562436458333334,123.17497521180374L28.936133333333334,116.33781831539594L29.189878125,134.01929020423157L29.20371875,104.02106919655434L29.268308333333334,122.06787212078387L29.286762500000002,125.7662959924111L29.5082125,129.74398097854396L29.540507291666668,142.33450317153563L29.743503125,127.19416844844818L29.881909375000003,132.8311771452427L30.144881249999997,121.53315642246834L30.278673958333332,132.9791980133607L30.352490624999998,107.03803467750551L30.426307291666667,121.66281213668677L30.91995625,122.30694373754355L31.118338541666667,109.15184522592105L31.132179166666667,119.12159178807185L31.625828125,129.34200687591846L31.727326041666668,122.23723243750058L31.778075,103.29818979593423L31.962616666666666,105.54174938568703L32.041046875,115.62906377132123L32.101022916666665,112.41119746519969L32.511628125,118.77815610628862L32.788440625,100.68291640740175L33.208272916666665,115.87642932855167L33.263635416666666,120.63593384852777L33.41126875,115.80085059312674L33.43895,125.9333434196619L33.554288541666665,121.65199836400839L33.76189791666667,134.40025961857577L34.140208333333334,115.88413896010474L34.35704479166667,124.34321162333856L34.435475,107.34139650601608L34.44470208333333,103.4537092951628L34.46776979166667,98.53554461552547L34.58310833333333,111.7636573956563L34.587721875,100.708577307371L34.643084375,107.08554223867563L34.66615208333334,120.86524669482158L34.79994479166667,117.36935078639252L34.86914791666667,134.78915372261633L35.50581666666667,127.56143906483284L35.75956145833334,114.05722409028274L36.80683541666667,98.32339584368927L37.134396875,117.65982941480783L37.1482375,128.79733763749783L37.41582291666666,111.87364543401279L37.7018625,125.47765956016687L38.020196875,116.56276913331106L38.08478645833333,91.91163207017459L38.09401354166667,120.35754311084747L38.098627083333334,107.89939529162187L38.3662125,111.16400225345905L39.17358229166667,104.15491651571715L39.81025104166667,109.36958145178282L39.819478125,105.59415053404295L40.05015520833333,124.52457461907314L40.37771666666667,126.37880593079788L40.61762083333333,121.07233145603767L40.714505208333335,113.59310427078834L40.7468,111.30065750158751L41.24044895833333,92.30948963532082L41.369628125,93.43463326417483L41.498807291666665,100.7524856879161L41.738711458333334,111.132181763649L42.02475104166666,97.50397968292238L42.476878125,92.04239553671617L42.619897916666666,113.73926265423114L42.642965624999995,101.20050049286623L43.03511666666667,96.77715619710776L43.04434375,116.54250497542895L43.418040624999996,106.86931141981712L43.84248645833333,100.86501384698428L43.92091666666667,106.66430014371873L44.017801041666665,119.34442448616028L44.636015625,108.72568113987262L44.65446979166666,121.22043753587283L44.691378125,123.06424055649684L45.20809479166667,109.60478202196268L45.272684375,113.84544456922092L45.44799895833333,114.9317803474573L45.50336145833333,116.29143473735223L45.697130208333334,113.52944706036494L46.05237291666666,102.73269237921788L46.41684270833333,109.22291179803702L46.42606979166666,92.16335559808292L46.67520104166667,121.71874348475383L46.804380208333335,102.52605802279253L47.28880208333334,127.9357984845455L47.777837500000004,97.60051238536836L47.842427083333334,100.05336818328271L48.123853125000004,112.8338841016476L48.718999999999994,118.89536279439926L49.31876041666667,120.9294679256586L49.52175625,113.09795521314328L49.91390729166666,116.50616014920749L50.006178125,119.33476715821487L50.172265625,111.07671299347511L50.204560416666666,108.80188070352261L50.37064791666667,104.75001485989644L50.467532291666664,114.28924748072258L50.753571875000006,108.10990069462703L50.845842708333336,107.58130400914413L51.35794583333333,98.50980256153987L51.404081250000004,112.78416509353198L51.722415625,116.93733955346622L51.78239166666666,124.17932514502452L51.81007291666667,110.96207482998187L51.870048958333335,104.3446424328364L52.13302083333333,109.3111180984057L52.23913229166667,121.38157289303265L52.534398958333334,117.12219217190376L53.19874895833334,120.61547492100642L53.44788020833333,95.35796722081992L53.58167291666667,108.91205945381752L53.83080416666667,108.6916776070228L54.01073229166666,98.62922475429683L54.02457291666666,124.15185451049072L54.079935416666665,110.226746403254L54.22295520833333,112.15485221606035L54.739671875,119.1377860720341L55.25638854166667,102.95707917671938L55.376340625000005,114.646345441158L55.902284375,126.34998813959268L55.93919270833334,118.74116610563718L56.12834791666667,116.51983460096213L56.55279375,91.55346693442418L56.84806041666667,105.30129003524782L57.06951041666667,119.90307250389687L57.175621875000004,96.85888640697186L57.48934270833333,110.81584340792436L57.535478125000004,121.67162140516135L57.54931875,101.10600475623058L57.618521875,104.50606994445508L57.77076875,94.75266375908485L58.61043333333333,112.26063241866919L58.919540625,118.0184977054596L59.04871979166666,108.72486554200833L59.094855208333335,75.92312223177692L59.25632916666666,94.6253574536397L59.98526875,86.44810022757605L60.331284375,112.65564553554242L60.857228125,118.88144082289476L61.04638333333333,101.616767846621L61.56771354166667,98.37352873728825L61.701506249999994,122.45130861722507L61.72457395833334,91.027231830817L61.76609583333333,97.05215469690471L62.18131458333333,102.12443085358693L62.19515520833334,93.1708745956421L62.324334375,88.84444036850563L62.370469791666665,94.22079656674312L62.799529166666666,83.98570071733916L62.95638958333333,105.13889273313376L63.23320208333333,97.262879215754L63.80528125,111.79160278118574L64.07748020833334,104.48867052335007L64.19743229166666,92.3721405359415L64.21127291666666,87.40282042209918L64.30815729166667,85.7081379065147L64.34045208333333,90.11516618728639L64.6080375,95.40047569458301L64.63571875000001,91.10765546101791L64.89407708333333,77.26433031375592L65.839853125,90.27239397855907L66.09821145833332,99.65658996655391L66.24584479166667,93.45793258226836L66.64722291666666,74.02222736065204L66.79946979166667,90.84406721591951L67.16393958333333,59.34497977220096L67.196234375,74.61210344387935L67.25621041666666,81.44645646902232L67.53302291666667,91.77870990679814L67.67142916666667,60.67722033537352L67.777540625,80.12069199635432L67.860584375,70.56131694867061L68.52954791666666,46.43576169930972L68.82481458333334,77.35989728340736L69.52145937499999,80.36660489669212L69.64141145833334,56.265055005367L70.52721145833333,86.6498572276189L70.55950625,46.879049282807586L71.08083645833332,82.30886396994957L71.09467708333334,62.059971158321105L71.19156145833333,71.05216078574841L71.46376041666666,69.19364454196051L71.66214270833333,42.90971707380737L72.05429375,54.281228844936095L72.19731354166666,54.81808700928322L72.27113020833333,63.11672629759863L72.34956041666668,61.24424344759723L72.53410208333334,79.75915896892548L72.746325,83.0197406915518L72.75093854166666,52.94160326627585L72.85243645833333,47.623523767177886L73.01391041666666,71.76579674390646L73.13386249999999,60.3009822001824L73.175384375,52.63609897173369L73.41528854166667,60.72483339676491L73.42912916666666,67.99983649987442L73.58598958333333,63.23668004916266L73.60444375,68.2328053346047L73.71055520833333,71.99426153072945L73.73823645833335,78.55450063485367L73.74746354166668,64.81062973462619L73.95968645833334,36.458630121671234L74.337996875,74.99846148490906L74.42565416666666,43.52893033394446L74.46717604166668,40.363258233437165L74.780896875,59.07242400829608L74.79012395833334,48.01913336607126L75.06693645833333,75.93871191831737L75.80048958333333,70.15462171114409L76.04500729166666,30.940822472939118L76.13727812500001,48.19965236003583L76.28029791666667,77.4088493860685L76.32181979166667,62.330449379407455L76.40025,54.687851043847914L76.47868020833333,52.30020249806918L76.85699062500001,44.03958386641284L76.96310208333334,57.6560673071788L77.02769166666667,64.1448340691053L77.36909375,69.24563180483305L77.8950375,65.61825827451854L78.3379375,69.65171027183533L78.36100520833334,62.98753721897418L78.52709270833334,53.28982703502362L78.6701125,45.911409368881834L79.11762604166667,31.74415796536664L79.237578125,44.499370061434234L79.25603229166667,37.07160263795117L79.32984895833334,59.23073926338783L79.52361770833333,28.872693520325868L79.818884375,58.84598807188182L79.832725,42.288896964146545L79.90654166666667,29.636531352996826L80.34944166666666,49.154250823534454L80.59395937500001,82.19510226983292L81.57664375,64.03924457843488L81.70582291666668,28.454661066715516L82.19485833333333,27.937961560029237L82.52703333333332,4.492517544673035L82.81307291666667,43.29928069848282L83.17292916666666,48.942982572775634L83.251359375,17.723787216039796L83.37592500000001,53.73210830871875L83.472809375,25.95593701876126L83.528171875,36.681511512169465L83.597375,24.15473985671997L83.860346875,36.07984375036679L84.19713541666665,16.971473253690277L84.704625,42.195910692214966L84.94914270833334,20.06454497117261L84.967596875,22.5594953573667L85.41972395833334,47.163559033320496L85.61349270833334,36.79993956822614L85.84878333333333,44.32235692097592L85.95489479166666,47.48044923635629L86.22709375,51.075702007000274L86.240934375,43.35951320941632L86.67460729166666,25.88880641643817L86.83146770833334,22.851795893449037L86.99294166666668,47.11735805181357L87.17286979166667,39.39570758892938L87.59731562500001,14.72857101146991L87.69881354166667,27.194882924740114L88.07712395833333,-4.399365718548125L88.72763333333333,23.75241070527295L89.03212708333334,53.48573283048778L89.064421875,36.39813791788541L89.10594375000001,22.17118961994464L89.18437395833332,49.289128798704894L89.26741770833334,20.04639893311719L89.53961666666667,31.468842964905946L89.77029375,38.37981349688309L89.98713020833334,58.94312942945041L90.27778333333333,12.353192952963013L90.62379895833334,25.29326578286978L90.65148020833334,39.11446022987366L90.78988645833334,8.417791238197907L90.83140833333333,26.753599845446075L90.87754375,40.34762796988855L91.30198958333332,9.871616748663087L91.34351145833334,25.768941934292116L91.361965625,5.846929385111878L91.44039583333333,18.6655795757587L91.73566249999999,33.20762457297397L91.82331979166666,40.705078950295075L92.44614791666667,8.17846804398755L92.73680104166667,-11.312064831073457L92.94902395833333,20.585975757011994L93.15201979166667,33.74892997741699L93.548784375,72.96470125821921L93.81636979166666,10.174726999722992L94.5037875,37.247771776639496L94.51301458333333,45.55532177594992L94.66064791666666,30.232899757531982L94.80366770833332,31.851037804897004L95.07586666666666,36.15006632071274L95.735603125,35.867277035346376L95.846328125,54.84959099842952L95.88785,37.480050802230835L96.14159479166666,36.708024529310364L96.83823958333333,52.13195399137645L96.90282916666668,48.85649673755353L97.37341041666667,65.54564166069031L97.47029479166667,50.923010725241454L98.08389583333333,53.47429011418269L98.41607083333332,61.37085182850177L98.51756875,41.53349914917578L98.59599895833334,58.33996031834529L98.808221875,65.38892513972064L98.96508229166666,55.529288346950835L99.2649625,49.21606583778674L99.63404583333333,71.05582083188571L99.98467500000001,72.76690457417415L100.1507625,44.35592222213745L100.662865625,48.4462550695126L100.66747916666668,52.064450080578155L100.82433958333334,22.17545832120453L100.88892916666667,21.37334825442386L101.08269791666666,37.75207094962781L101.853159375,56.22024987294124L101.99617916666666,29.839651740514313L102.15303958333332,17.80461661632245L102.65130208333333,39.84676972719339L102.80354895833334,64.05497222680313L102.88659270833332,49.87936195960414L102.89581979166665,24.226447545565094L103.00654479166666,51.5937162087514L103.01115833333333,59.483209408246566L103.02499895833333,49.84005095408514L103.11265625,53.45085283426138L103.27413020833333,53.47021618256203L103.41714999999999,55.62018084526062L103.59707812500001,73.1521994975897L103.64321354166667,55.561068259752716L104.05381875,62.88797747171843L104.11840833333333,70.7153310408959L104.25220104166667,42.97115877958444L104.289109375,47.878185070478L104.42290208333333,41.069281944861785L104.87964270833334,74.57028477925522L105.94537083333333,40.292410777165344L106.07455,67.92820996504565L106.116071875,75.86812415489784L106.24525104166666,55.79399651747485L106.40672500000001,59.225699598972625L106.4620875,53.14267857258136L106.75735416666666,57.01130676269531L107.38018229166667,67.411940574646L107.62931354166666,71.83399046384372L108.24291458333333,61.03940259493315L108.247528125,54.99435353279114L108.89342395833333,78.97054481506348L109.4516625,64.19587182998657L109.48395729166667,62.29983808444098L110.06065,61.24986742093013L110.58198020833333,59.91399927322681L110.6696375,48.76784409009494L110.79881666666667,50.24302933766292L110.90031458333334,38.5616715321174L110.99719895833334,69.16929833705609L111.31091979166666,71.52200196339534L111.55543750000001,73.33757150173187L111.82302291666666,42.54842750842755L112.02601875,49.28122439751259L113.01331666666667,66.87234751994794L113.09636041666667,73.14087039690753L113.19785833333333,66.1515781237529L113.22553958333334,35.35483811451837L113.728415625,45.13904224909271L113.79300520833334,57.68181747656604L113.84375416666667,45.25176517780011L114.09749895833333,69.51092428427478L114.14824791666666,49.506272600247314L114.17592916666666,49.04876683308528L114.448128125,79.35642404739673L114.57269375,66.38190945295187L114.67880520833333,44.62786933091971L115.001753125,72.82798108687767L115.10325104166667,45.772871347574096L115.25549791666667,56.88837465873134L115.36622291666667,64.57520193320056L115.55076458333333,34.49575792826138L115.63380833333333,42.1261750459671L115.66148958333333,45.31675331409161L115.67533020833334,12.488557852231537L116.025959375,64.12478091166571L116.03057291666667,58.282276043525115L116.247409375,62.91579706852252L116.39042916666666,40.70350456237793L116.51499479166667,53.84286731023056L116.52883541666667,41.88040010745709L116.551903125,76.23644977349502L116.87946458333334,51.278327355018035L116.93021354166666,61.524654920284576L117.15627708333334,42.38595716769879L117.41924895833334,41.630502544916595L117.62685833333333,42.081483529164245L117.81601354166666,82.79260683059692L117.87598958333334,47.72259659033557L117.88060312500001,60.24086330487178L117.98210104166667,21.578943839439972L118.05591770833333,51.6580956899203L118.56802083333334,44.87244318998779L118.66490520833334,38.85466999274033L118.98323958333334,65.1542683014503L118.99708020833333,65.42970503293552L119.00169375,51.670690793257506L119.22314375,60.37001992188968L119.33386875,39.05779038025781L119.94285625,71.61679796989148L120.31193958333333,47.35941613637485L120.371915625,32.00311231613159L120.66718229166666,71.25161301172697L120.9670625,70.20273792743683L121.07317395833334,19.465173868032593L121.46071145833334,45.045885553726805L121.47455208333334,67.63282557634207L121.49761979166666,66.933545763676L121.80672708333333,47.118989247542174L121.88977083333334,38.82298746475806L122.23578645833334,41.74337155085345L122.41571458333333,40.03132207577045L123.14465416666667,60.42473395971152L123.33842291666667,23.91624443347638L123.34303645833333,44.68810184185321L123.64291666666666,52.99372849097621L123.67059791666667,35.822293364084686L123.79055,43.70509947263278L123.887434375,34.33939036956201L123.915115625,42.48129690610446L124.64405520833333,46.98480919691232L125.74669166666666,50.020496909434996L125.80666770833334,42.07867560019861L125.963528125,57.44731483092677L126.07425312500001,30.05339518877176L126.13884270833333,21.11987179976242L126.268021875,54.846888569685134L126.793965625,39.24299196096567L126.95543958333333,36.62146565547357L127.12614062499999,50.43895136393034L127.54597291666667,26.17927287175104L128.14573333333334,30.41952964892755L128.49174895833335,44.105984082588805L128.90696770833333,11.682763393108644L128.92080833333333,43.41874752594876L129.59899895833334,61.11933118563434L129.617453125,36.783676303350006L129.81583541666666,32.930897492628816L129.866584375,37.1304149535986L129.91271979166666,20.463319576703583L130.06958020833332,39.73616491831265L130.115715625,32.350678737346925L130.23566770833332,34.8461160476391L130.44327708333333,38.17756957274216L130.54938854166667,44.51730509904715L130.78467916666665,51.30551395049464L130.89540416666665,29.01886001917032L130.98306145833334,50.61909704941971L131.19989791666666,55.15431621441475L131.721228125,30.098833322525024L131.94729166666667,42.183453550705565L132.32098854166665,31.173555961022004L132.3717375,52.84364225314215L132.46400833333334,40.5819196150853L132.800796875,33.022479800077576L133.06376875,21.98787892781769L133.55741770833333,52.31013574967018L134.20792708333335,31.493099900392394L134.38785520833332,20.808532531444826L134.52164791666667,6.447809952955964L134.92302604166667,33.560003427358765L135.14447604166668,28.25827646255493L135.153703125,26.475679801060608L135.32901770833334,41.2609109236644L135.43512916666668,39.64713896237885L135.762690625,36.793731285975525L136.41320000000002,28.859465415661134L136.70846666666668,39.25930391825162L137.16059375,26.24805901600763L137.19750208333332,42.350671401390684L137.89876041666665,4.561563381781923L138.00025833333333,20.69163828629712L138.15250520833334,50.370108411862304L138.49390729166666,38.89127045411328L138.67383541666666,42.5606330724863L139.07059999999998,34.33849767538217L139.40738854166668,31.13758038557492L139.52272708333334,40.09561228752136L139.582703125,43.640233067365784L139.624225,15.917980505869934L139.9886947916667,47.99550131651071L140.26089375,61.24635345202228L140.78683750000002,37.221015297449554L140.85604062500002,58.48219896279849L141.22051041666666,53.49500061915472L141.6218885416667,16.534621183688813L142.03249375,54.88687315353981L142.20319479166668,36.7514013510484L142.36466875,67.7150508257059L142.7060708333333,46.88791941679443L143.27814999999998,16.871329197516786L143.375034375,11.44040503868689L143.41655625,49.65484125797565L143.49037291666667,36.14044145437387L143.78102604166665,30.57733363371628L143.78563958333334,13.657727534954347L143.85022916666668,33.7086613545051L144.4176947916667,44.80586443497586L144.46844375,33.32890925040613L144.92979791666664,30.197143297929017L145.2389052083333,51.82133699380435L146.16161354166667,49.5538856616387L146.74753333333334,42.95976475568918L146.752146875,33.378348277165344L146.8859395833333,47.52852487564087L146.89516666666665,26.680820923585145L147.35190729166666,17.04717372013971L148.04393854166668,36.83068882502042L148.33920520833334,41.0082378937648L148.36688645833334,39.207584463633026L148.39456770833334,36.56747388839722L148.413021875,19.711330230419435L148.41763541666668,32.549441154186525L148.94819270833335,41.06833244287051L149.2019375,28.004248160582307L149.7555625,67.17630177277786L150.01392083333334,51.81449571022621L150.46604791666667,43.37657178365268L150.51218333333333,43.46994759486273L150.54447812499998,50.93246516814601L150.627521875,55.22771190679991L150.89049375000002,46.028896038348876L151.0934895833333,50.367860445609466L151.49025416666666,33.09277540903824L151.91008645833332,39.77265176406274L151.91931354166664,25.160432888911316L152.066946875,54.50292538679564L152.149990625,56.85029719426082L153.45562291666667,45.03923092438626L153.575575,58.00623877231891L153.77857083333333,56.60875038000255L154.032315625,26.024593316591705L154.31835520833334,44.63738058163571L154.37833125,43.077795157065765L154.80277708333335,37.5932768858396L154.93656979166667,38.97210796979758L155.11649791666667,52.110521215658935L156.40828958333336,41.2980551169469L156.772759375,31.80194774040808L156.89271145833334,70.80438134303459L156.99420937500003,36.820714996411255L157.08186666666666,48.0325724711785L157.19720520833332,-3.554812101217408L157.271021875,62.75714096656215L157.326384375,30.427734319980317L157.5247666666667,19.14829989580008L157.8384875,43.994372963905334L158.12452708333333,34.95893636116614L159.08414375,33.86212359941922L159.11643854166667,11.912656490619355L159.15796041666667,52.12116050720215L159.3886375,21.66581109853891L159.402478125,7.917249496166505L159.49936250000002,38.70355309889865L159.64238229166665,15.595620522132265L159.7300395833333,37.837850744907655L160.35748125,45.26856405918414L160.731178125,35.27073009197528L160.73579166666667,62.5379439684061L160.89265208333336,52.51525252598984L161.52470729166666,59.0754104760977L161.547775,33.43201542817627L161.66772708333332,55.392998291895935L161.87995,39.09147741244388L161.94915312499998,72.89220637541553L162.32746354166667,47.00994259577533L162.5258458333333,41.820200058130126L162.64579791666668,39.62556822483356L162.83495312500003,16.092526564231264L163.03333541666666,29.088684934836152L163.64232291666664,17.312011737089875L163.67461770833336,42.4748938542146L163.69307187500002,42.715718397727386L164.163653125,9.500402047083924L164.34819479166666,46.26604430492108L164.78186770833335,46.190741493151734L164.84645729166667,51.83840368344234L164.92950104166667,35.84185148202454L165.12326979166667,55.12523873035724L166.37815312499998,28.502063127664428L166.62267083333333,27.49521770844092L167.17168229166666,40.063937874940734L168.011346875,32.023522551243104L168.18204791666668,43.25698322516223L168.6157208333333,13.621678920892577L169.34927395833333,50.532392098353455L169.46922604166664,47.35647836098303L169.65376770833333,58.94376243077792L169.865990625,31.073525520471435L170.16587083333334,42.75877060340002L170.198165625,28.15865990748773L170.23507395833334,23.842881202697754L170.45652395833335,34.62377027364877L170.49804583333332,37.884773997160096L170.77024479166667,42.90645468235016L170.83022083333333,33.71872445253226L171.499184375,47.286734599333556L171.554546875,32.005011320114136L171.70679375,46.417445237819976L171.9005625,53.4014462691087L172.20044270833333,27.125398855942933L172.54184479166665,40.80264230874869L172.75868125,46.26749696181372L173.05856145833332,52.51072413187762L173.1923541666667,46.66817057132721L173.25233020833335,32.951624228404114L173.57066458333333,38.379902766301086L173.58450520833333,13.727422604194032L173.78288750000002,42.09514986551727L174.00895104166668,49.04978937369128L174.26730937500002,27.18899114315326L174.876296875,42.2400828233132L174.91320520833335,33.91458155558658L174.9455,56.2812614624317L175.374559375,42.70255521627573L175.42992187500002,36.21584976636444L175.52219270833334,46.571313252815855L176.04813645833335,51.7131992670206L176.066590625,33.2423747227742L176.19115624999998,40.98768969682547L176.20038333333332,30.845515196139985L176.61560208333333,46.90735580370978L176.93855,28.19160032272339L177.06311562500002,39.88964339403006L177.09541041666668,36.22829879247223L177.10925104166668,55.25806350891406L177.22458958333334,24.900740036597597L177.85203124999998,42.873019227614776L178.27647708333333,40.380373615484956L178.308771875,43.60067048439612L178.723990625,48.36890717653128L178.7655125,15.053771385779726L178.820875,23.11301444127008L178.90853229166666,44.03770920863519L178.98696249999998,46.922953605651855L179.23609374999998,33.30922940144171L179.29145625,76.26439921672528L179.40679479166667,28.48574305497681L179.57749583333336,33.59038749107947L179.84508125000002,32.084412409709046L180.05730416666665,63.44604118053729L180.14496145833334,38.29581908996289L180.17725625,44.975736021995544L180.38947916666666,37.32249027949112L180.62938333333332,64.43845741565411L180.64322395833332,21.80036445764395L180.80469791666667,34.75389262346121L181.40445833333334,38.913668962625366L181.6443625,77.07181675617511L181.64897604166666,37.63305046925177L181.74586041666666,41.007182891552276L181.99960520833332,33.259084334740265L182.40098333333336,56.93673433707312L182.40559687500001,51.00195735234482L182.58091145833333,10.592589029898988L182.74238541666668,30.46610393890967L182.78390729166668,42.306288269849915L182.96383541666668,49.676833996405975L183.18989895833332,50.15868596847241L183.44364374999998,34.742393099344696L183.59127708333332,58.080007773179275L184.02956354166665,29.503024880702668L184.730821875,68.3300603077962L184.95688541666667,62.849502352567825L185.12297291666664,56.77781042685878L185.4090125,36.94100959484393L185.76425520833334,60.18810507884395L185.77809583333334,56.77943350718573L186.128725,44.72697461568393L186.22560937499998,51.64798389948332L186.26251770833335,50.695316901573776L186.32249375,55.34247991671931L186.33172083333335,57.50952749985916L186.35940208333335,43.396162363199096L186.81152916666665,56.6832173054035L186.82075625000002,30.781825524110047L187.222134375,27.316841180507936L187.235975,48.12422781724197L187.360540625,52.609788839633666L188.14945625,46.223941601239716L188.18175104166664,35.150305647116426L188.48624479166665,45.73954950846161L188.50931250000002,38.5988157253999L188.98912083333332,56.109458409822906L189.0675510416667,49.4241203894982L189.37665833333335,57.07035442499014L189.46892916666667,47.90688113065866L189.962578125,38.18151365793668L190.20248229166668,30.666822167543273L190.27168541666668,30.83697779362018L190.34088854166666,31.75517056538507L190.41470520833332,37.03935203185449L190.47468125,23.893342770062958L190.63615520833332,65.62049812536975L190.72381249999998,46.35875465319708L190.75610729166667,38.000937856160675L191.83106249999997,45.82416880130768L192.10787499999998,41.00486188668472L192.24628125,54.83684170246124L192.33393854166667,43.51431449560019L192.74454375000002,31.144746285218446L192.924471875,42.43318068981171L192.94292604166665,75.64826169380775L192.98444791666668,43.27920319483832L193.01212916666668,43.0588700404534L193.12746770833334,46.86213678580066L193.39043958333332,28.7848848746373L194.06401666666665,60.464020619025604L194.5991875,64.58787819055411L194.751434375,66.79073904110835L195.25431041666667,68.32484210454501L195.28199166666667,31.454632896643403L195.32351354166667,66.61570605864891L195.91866041666665,54.3888471860152L196.07552083333334,45.50520917085501L197.2565875,49.45227271776935L197.34424479166665,52.053096633691055L197.54262708333334,35.45998937350052L197.86096145833332,25.17948785194983L198.85287291666668,48.09548306465149L199.31884062499998,53.38032999405495L199.57258541666667,62.269405328310455L199.64178854166664,42.515170592528136L199.96012291666668,55.49991870843448L200.11698333333334,48.24352422127356L200.45838541666666,52.44840596272395L200.53220208333335,30.712065531657288L200.58295104166666,44.016901318843566L200.73981145833332,50.15786631290729L201.10889479166667,22.033795870267426L201.39032083333333,50.58454166925871L201.39493437500002,35.10673405573917L201.66251979166668,19.34969170276935L201.754790625,29.422560673493592L201.9531729166667,43.11835593443652L201.976240625,37.98369262768671L202.308415625,14.004985570907593L202.958925,35.17143815297345L203.06503645833334,40.44309755472037L203.06965,52.74538097014796L203.69709166666667,60.65836825737587L204.13999166666667,33.93198909209323L204.41219062500002,34.28358886792108L204.46293958333334,39.882355763362L205.77318541666665,63.06223137562091L205.962340625,45.08713614023651L206.28528854166666,35.24566973172699L206.41446770833335,29.573101373819213L206.64975833333335,28.93236606854657L207.097271875,24.52678232926587L207.24029166666668,43.77580896707681L207.263359375,37.12555382801935L207.34178958333334,29.90306548888867L207.57708020833334,47.543603291878355L207.7523947916667,39.42115748845612L208.69355729166668,40.185693245667665L209.02573229166666,48.67646466768707L209.51015416666667,34.38814770258389L209.91153229166665,37.74681216936844L209.96689479166665,49.36604657539955L210.114528125,18.914819790766785L210.24370729166665,46.85066160788904L210.64508541666666,34.1484674307016L210.69122083333332,48.79589903354645L210.71890208333332,30.202434539794922L210.73735625,56.89410413228549L210.88037604166666,35.428607115378725L210.889603125,47.708232329441955L210.95419270833332,49.40972366699806L210.98187395833332,43.68274965653052L211.3186625,27.89913747860834L212.45820729166667,52.01116435344403L212.86419895833333,37.27197190431448L212.98415104166665,41.188927311163695L213.3993697916667,43.669196935800414L213.52393541666666,36.753771048325746L213.84688333333332,50.26382911205292L214.16060416666664,48.382086588786194L214.23442083333333,35.002921838026765L214.53891458333334,43.56637479708746L214.76036458333334,57.22438474801871L214.83418125,64.8096315402251L214.96797395833332,33.43066015610327L215.0833125,25.36724578417264L215.17096979166666,39.47182194086221L215.83531979166665,12.03763367579532L215.87222812500002,14.815373347355774L216.16749479166668,27.57514629914209L216.29206041666666,31.803043319628785L216.91488854166667,40.085743959133424L216.94718333333333,56.76698448107794L217.03022708333333,40.58060492002045L217.505421875,45.71727273097406L217.616146875,47.41204451597656L217.66228229166666,45.0171164549314L217.726871875,54.096660265555755L218.01291145833332,16.38247363383954L218.45119791666667,26.577154783102173L218.75569166666668,33.50394223286554L218.81566770833334,33.67628090198224L218.96330104166668,37.38708076110254L219.04634479166666,44.384529012900146L219.09248020833334,23.603639162503754L219.18936458333332,45.35655935911032L219.69224062499998,25.173579839559693L220.01518854166665,19.441493126062255L220.467315625,55.546988037916336L221.0071,36.792221821271454L221.18241458333335,50.4517412369068L221.33466145833333,52.02233926149516L221.41309166666665,31.84452925278589L221.59301979166668,64.16834438764133L222.70949687499999,44.79880403555359L222.78331354166664,26.31298222908606L223.44766354166669,47.68614220619202L223.68756770833335,27.522428650122407L223.89056354166667,19.117120522719148L224.0520375,49.560426675356354L224.19044375,23.62801782901471L224.30116875000002,57.63607907295227L224.41189375,35.192659928248474L224.44880208333333,21.57446413773755L224.49955104166668,33.81463226905237L224.50416458333333,26.46670416685251L224.78097708333334,40.88951768324927L224.90554270833334,46.930890468450684L224.923996875,44.387198980037994L224.9932,34.039607433172364L225.11315208333335,43.653404364219085L225.16390104166666,26.895570681645324L225.21465,11.893536604367767L225.366896875,43.07902869811426L225.75904791666667,32.421201577553376L226.003565625,29.929115928136383L226.02201979166668,29.31381429158722L226.08199583333334,33.147375831237184L226.4510791666667,33.585485788492065L226.46953333333335,31.241392603287323L226.59409895833332,37.16995319036337L226.63562083333332,53.654565646098206L227.03699895833336,43.13567420152518L227.06929375,30.51970616670755L227.27228958333333,40.23191857337952L227.51680729166665,44.908800189311705L227.67828125,42.336988834234376L227.69673541666666,40.27231704271756L227.97816145833335,48.0694813178136L228.425675,53.31607224391058L228.60098958333333,51.76025236569919L228.8132125,48.435356085117064L228.81782604166668,5.364825835594758L228.83166666666668,47.17703060003427L229.090025,69.94599096591656L229.47756249999998,53.235437613267166L229.5882875,38.88883583362286L229.81435104166667,54.19317673719847L229.878940625,31.42274748362027L230.56174479166665,27.96210487989279L230.7001510416667,53.252707187946044L230.97235,43.384963108943055L231.207640625,45.28612578832187L232.15803020833334,43.352850464674134L232.19955208333332,48.48482757348282L232.29182291666666,50.315483643458435L232.43484270833332,54.44368295486157L232.44406979166666,51.15364232430092L233.06689791666665,53.711657496599074L233.23298541666668,62.426146195485046L233.43598125000003,51.368732929229736L233.70818020833335,55.12608273212726L233.76354270833335,48.4906544318566L234.28487291666667,41.87757594768817L234.45557395833333,64.9086150939648L234.59859375000002,35.48236353580768L234.76006770833334,34.54115548500647L235.45209895833335,59.11137793614314L235.49362083333332,43.805860299330504L235.61818645833333,51.83867960709793L235.75659270833333,40.8009705360119L235.913453125,33.115409264197694L236.1210625,46.02871749951291L236.15797083333334,64.81902105991657L236.28715,44.3371594135578L236.80848020833335,67.38562232714435L236.882296875,66.03649361316974L236.98840833333333,65.16885167818805L237.16833645833333,20.358501049188476L237.24676666666667,32.782012334236725L237.64353125000002,24.159414328061615L237.685053125,62.15414227889136L237.84191354166666,54.06264861730429L238.37247083333332,22.425250383523803L238.55239895833333,35.62993399913495L238.79230312500002,40.77749267908243L240.12100312500002,38.292881314571076L240.21788750000002,31.98321335132306L240.868396875,34.918635276647706L241.06677916666666,36.048364107425385L241.311296875,46.1166965686358L241.34359166666667,27.608541176869323L241.43586249999998,58.436898790873016L241.55581458333333,43.41481155615588L241.97103333333334,30.337369322776794L242.2109375,50.300421458024246L242.48775,45.65114032305206L242.52004479166666,44.50911665879764L242.6538375,36.14574892704303L242.89835520833333,55.36207861166736L242.916809375,50.237624480174134L242.97678541666667,44.64544729086069L243.041375,24.080938394253053L243.1521,26.015568989973787L243.20746250000002,53.721030785487244L243.35509583333334,38.43524980545044L243.387390625,43.884417387155395L243.4519802083333,51.659418500386764L243.97331041666666,45.710488255207366L244.02405937499998,15.884496358724732L244.051740625,52.90182968286368L244.24089583333333,38.61214933028589L244.25934999999998,30.304274714910065L244.32393958333336,61.90554318061244L244.43005104166667,50.85850139764639L244.91908645833334,39.60153040519128L245.11746875,62.32212297733014L245.32046458333332,30.415739756364076L245.40350833333332,30.93043475884656L245.477325,48.76638331780066L245.61573124999998,40.88997214574081L245.934065625,61.44109874505264L246.5107583333333,26.718622464400056L246.709140625,39.70912440006549L246.71836770833332,35.81996424381549L246.88906875,28.707528866254364L246.89368229166666,52.262352264844466L246.93981770833332,34.32194225604718L246.97672604166667,20.70869686053348L247.09206458333333,34.53204188897058L247.47498854166668,39.33691961948688L247.49805625,43.82329218204205L247.567259375,5.990117531556336L248.46228645833332,39.81546862308795L249.09895520833334,42.360734499417816L250.07702604166667,48.61298599609961L250.43688229166665,56.893325053728546L250.68601354166665,20.00150453127347L250.80135208333334,26.66679750956021L251.38265833333332,27.295676213044374L251.75635520833333,23.45181622871985L251.98241875,33.90065552638126L252.03778125,34.13940252707553L252.12543854166668,26.742838822878326L252.3976375,46.48935581170596L252.93280833333333,46.69348250902618L253.29727812500002,15.045655984144929L253.491046875,25.711030428226167L253.7355645833333,48.103549773876495" style="fill: none;" fill="none"></path></g></g></g></g></g></g><g transform="translate(53, 177)" clip-path="url(#clip_1)"><clipPath id="clip_1"><rect width="276" height="23"></rect></clipPath><g><g><line x1="0" y1="0" x2="0" y2="5" style="visibility: inherit;" fill="rgb(0, 0, 0)" stroke="rgb(204, 204, 204)" stroke-width="1px"></line><line x1="23.067708333333332" y1="0" x2="23.067708333333332" y2="5" style="visibility: inherit;" fill="rgb(0, 0, 0)" stroke="rgb(204, 204, 204)" stroke-width="1px"></line><line x1="46.135416666666664" y1="0" x2="46.135416666666664" y2="5" style="visibility: inherit;" fill="rgb(0, 0, 0)" stroke="rgb(204, 204, 204)" stroke-width="1px"></line><line x1="69.203125" y1="0" x2="69.203125" y2="5" style="visibility: inherit;" fill="rgb(0, 0, 0)" stroke="rgb(204, 204, 204)" stroke-width="1px"></line><line x1="92.27083333333333" y1="0" x2="92.27083333333333" y2="5" style="visibility: inherit;" fill="rgb(0, 0, 0)" stroke="rgb(204, 204, 204)" stroke-width="1px"></line><line x1="115.33854166666667" y1="0" x2="115.33854166666667" y2="5" style="visibility: inherit;" fill="rgb(0, 0, 0)" stroke="rgb(204, 204, 204)" stroke-width="1px"></line><line x1="138.40625" y1="0" x2="138.40625" y2="5" style="visibility: inherit;" fill="rgb(0, 0, 0)" stroke="rgb(204, 204, 204)" stroke-width="1px"></line><line x1="161.47395833333334" y1="0" x2="161.47395833333334" y2="5" style="visibility: inherit;" fill="rgb(0, 0, 0)" stroke="rgb(204, 204, 204)" stroke-width="1px"></line><line x1="184.54166666666666" y1="0" x2="184.54166666666666" y2="5" style="visibility: inherit;" fill="rgb(0, 0, 0)" stroke="rgb(204, 204, 204)" stroke-width="1px"></line><line x1="207.609375" y1="0" x2="207.609375" y2="5" style="visibility: inherit;" fill="rgb(0, 0, 0)" stroke="rgb(204, 204, 204)" stroke-width="1px"></line><line x1="230.67708333333334" y1="0" x2="230.67708333333334" y2="5" style="visibility: inherit;" fill="rgb(0, 0, 0)" stroke="rgb(204, 204, 204)" stroke-width="1px"></line><line x1="253.74479166666666" y1="0" x2="253.74479166666666" y2="5" style="visibility: inherit;" fill="rgb(0, 0, 0)" stroke="rgb(204, 204, 204)" stroke-width="1px"></line><line x1="276.8125" y1="0" x2="276.8125" y2="5" style="visibility: inherit;" fill="rgb(0, 0, 0)" stroke="rgb(204, 204, 204)" stroke-width="1px"></line></g><g transform="translate(0, 8)"><text x="0" y="0" dx="0em" dy="0.95em" style="text-anchor: middle; visibility: hidden; font-family: &quot;Helvetica Neue&quot;, sans-serif; font-size: 12px; font-weight: 200;" fill="rgb(50, 49, 63)" stroke="none" stroke-width="1px">-500k</text><text x="23.067708333333332" y="0" dx="0em" dy="0.95em" style="text-anchor: middle; visibility: inherit; font-family: &quot;Helvetica Neue&quot;, sans-serif; font-size: 12px; font-weight: 200;" fill="rgb(50, 49, 63)" stroke="none" stroke-width="1px">0</text><text x="46.135416666666664" y="0" dx="0em" dy="0.95em" style="text-anchor: middle; visibility: hidden; font-family: &quot;Helvetica Neue&quot;, sans-serif; font-size: 12px; font-weight: 200;" fill="rgb(50, 49, 63)" stroke="none" stroke-width="1px">500k</text><text x="69.203125" y="0" dx="0em" dy="0.95em" style="text-anchor: middle; visibility: inherit; font-family: &quot;Helvetica Neue&quot;, sans-serif; font-size: 12px; font-weight: 200;" fill="rgb(50, 49, 63)" stroke="none" stroke-width="1px">1M</text><text x="92.27083333333333" y="0" dx="0em" dy="0.95em" style="text-anchor: middle; visibility: hidden; font-family: &quot;Helvetica Neue&quot;, sans-serif; font-size: 12px; font-weight: 200;" fill="rgb(50, 49, 63)" stroke="none" stroke-width="1px">1.5M</text><text x="115.33854166666667" y="0" dx="0em" dy="0.95em" style="text-anchor: middle; visibility: inherit; font-family: &quot;Helvetica Neue&quot;, sans-serif; font-size: 12px; font-weight: 200;" fill="rgb(50, 49, 63)" stroke="none" stroke-width="1px">2M</text><text x="138.40625" y="0" dx="0em" dy="0.95em" style="text-anchor: middle; visibility: hidden; font-family: &quot;Helvetica Neue&quot;, sans-serif; font-size: 12px; font-weight: 200;" fill="rgb(50, 49, 63)" stroke="none" stroke-width="1px">2.5M</text><text x="161.47395833333334" y="0" dx="0em" dy="0.95em" style="text-anchor: middle; visibility: inherit; font-family: &quot;Helvetica Neue&quot;, sans-serif; font-size: 12px; font-weight: 200;" fill="rgb(50, 49, 63)" stroke="none" stroke-width="1px">3M</text><text x="184.54166666666666" y="0" dx="0em" dy="0.95em" style="text-anchor: middle; visibility: hidden; font-family: &quot;Helvetica Neue&quot;, sans-serif; font-size: 12px; font-weight: 200;" fill="rgb(50, 49, 63)" stroke="none" stroke-width="1px">3.5M</text><text x="207.609375" y="0" dx="0em" dy="0.95em" style="text-anchor: middle; visibility: inherit; font-family: &quot;Helvetica Neue&quot;, sans-serif; font-size: 12px; font-weight: 200;" fill="rgb(50, 49, 63)" stroke="none" stroke-width="1px">4M</text><text x="230.67708333333334" y="0" dx="0em" dy="0.95em" style="text-anchor: middle; visibility: hidden; font-family: &quot;Helvetica Neue&quot;, sans-serif; font-size: 12px; font-weight: 200;" fill="rgb(50, 49, 63)" stroke="none" stroke-width="1px">4.5M</text><text x="253.74479166666666" y="0" dx="0em" dy="0.95em" style="text-anchor: middle; visibility: inherit; font-family: &quot;Helvetica Neue&quot;, sans-serif; font-size: 12px; font-weight: 200;" fill="rgb(50, 49, 63)" stroke="none" stroke-width="1px">5M</text><text x="276.8125" y="0" dx="0em" dy="0.95em" style="text-anchor: middle; visibility: hidden; font-family: &quot;Helvetica Neue&quot;, sans-serif; font-size: 12px; font-weight: 200;" fill="rgb(50, 49, 63)" stroke="none" stroke-width="1px">5.5M</text></g><line x1="0" y1="0" x2="276.8125" y2="0" fill="rgb(0, 0, 0)" stroke="rgb(204, 204, 204)" stroke-width="1px"></line></g></g></g></g></svg>